SplineFontDB: 3.0
FontName: Inconsolata-aw-bold
FullName: Inconsolata-aw-bold
FamilyName: Inconsolata-aw
Weight: Bold
Copyright: Created by Raph Levien using his own tools and FontForge. Copyright 2006 Raph Levien. Released under the SIL Open Font License, http://scripts.sil.org/OFL. Modified by maffi leonardo, Feb 13 2009. Modified again by Allen Wu, July 2014.
Version: 001.010
ItalicAngle: 0
UnderlinePosition: -100
UnderlineWidth: 50
Ascent: 820
Descent: 180
LayerCount: 2
Layer: 0 0 "Back"  1
Layer: 1 0 "Fore"  0
XUID: [1021 803 253296341 14691650]
FSType: 8
OS2Version: 3
OS2_WeightWidthSlopeOnly: 0
OS2_UseTypoMetrics: 1
CreationTime: 1161020814
ModificationTime: 1406451174
PfmFamily: 17
TTFWeight: 500
TTFWidth: 5
LineGap: 200
VLineGap: 0
Panose: 2 11 6 9 3 0 3 0 0 0
OS2TypoAscent: -85
OS2TypoAOffset: 1
OS2TypoDescent: 85
OS2TypoDOffset: 1
OS2TypoLinegap: 0
OS2WinAscent: -85
OS2WinAOffset: 1
OS2WinDescent: 85
OS2WinDOffset: 1
HheadAscent: -85
HheadAOffset: 1
HheadDescent: 85
HheadDOffset: 1
OS2SubXSize: 650
OS2SubYSize: 700
OS2SubXOff: 0
OS2SubYOff: 140
OS2SupXSize: 650
OS2SupYSize: 700
OS2SupXOff: 0
OS2SupYOff: 480
OS2StrikeYSize: 49
OS2StrikeYPos: 258
OS2Vendor: 'PfEd'
OS2CodePages: 00000013.00000000
OS2UnicodeRanges: 8000002f.0000016b.00000000.00000000
MarkAttachClasses: 1
DEI: 91125
LangName: 1033
Encoding: UnicodeBmp
UnicodeInterp: none
NameList: Adobe Glyph List
DisplaySize: -24
AntiAlias: 1
FitToEm: 1
WinInfo: 64 16 14
BeginPrivate: 9
BlueValues 31 [-14 0 529 541 722 730 770 775]
OtherBlues 11 [-201 -193]
BlueScale 8 0.039625
BlueFuzz 1 1
StdHW 4 [74]
StdVW 4 [77]
StemSnapH 7 [71 74]
StemSnapV 7 [74 77]
ExpansionFactor 4 0.06
EndPrivate
TeXData: 1 0 0 629145 314572 209715 554699 1048576 209715 783286 444596 497025 792723 393216 433062 380633 303038 157286 324010 404750 52429 2506097 1059062 262144
BeginChars: 65544 294

StartChar: exclam
Encoding: 33 33 2
Width: 600
VWidth: 1150
GlyphClass: 2
Flags: W
HStem: -11.5 166.75<215.917 334.775> 751.65 20G<263.925 289.225>
VStem: 186.3 179.4<18.7237 124.637> 196.65 161<349.888 744.712> 204.7 147.2<261.913 660.873>
LayerCount: 2
Fore
SplineSet
274.849609375 155.25 m 0xe0
 287.5 155.25 300.150390625 152.950195312 310.5 147.200195312 c 1
 322 142.599609375 331.200195312 136.849609375 340.400390625 128.799804688 c 1
 347.299804688 120.75 354.200195312 112.700195312 358.799804688 102.349609375 c 0
 363.400390625 92 365.700195312 81.650390625 365.700195312 71.2998046875 c 0
 365.700195312 59.7998046875 363.400390625 49.4501953125 358.799804688 39.099609375 c 0
 353.049804688 28.75 346.150390625 20.7001953125 338.099609375 12.650390625 c 0
 330.049804688 4.599609375 319.700195312 -1.150390625 308.200195312 -4.599609375 c 1
 297.849609375 -9.2001953125 286.349609375 -11.5 274.849609375 -11.5 c 0
 262.200195312 -11.5 250.700195312 -9.2001953125 240.349609375 -4.599609375 c 0
 230 -1.150390625 220.799804688 4.599609375 211.599609375 12.650390625 c 1
 204.700195312 20.7001953125 197.799804688 28.75 193.200195312 39.099609375 c 0
 188.599609375 49.4501953125 186.299804688 59.7998046875 186.299804688 71.2998046875 c 0
 186.299804688 82.7998046875 188.599609375 93.150390625 193.200195312 103.5 c 0
 197.799804688 113.849609375 204.700195312 121.900390625 211.599609375 129.950195312 c 1
 220.799804688 138 230 143.75 240.349609375 148.349609375 c 0
 250.700195312 152.950195312 262.200195312 155.25 274.849609375 155.25 c 0xe0
277.150390625 771.650390625 m 0
 301.299804688 771.650390625 320.849609375 763.599609375 335.799804688 745.200195312 c 1
 350.75 729.099609375 357.650390625 700.349609375 357.650390625 661.25 c 0xd0
 357.650390625 653.200195312 357.650390625 645.150390625 356.5 634.799804688 c 0
 355.349609375 624.450195312 355.349609375 614.099609375 354.200195312 602.599609375 c 0
 353.049804688 592.25 351.900390625 580.75 351.900390625 570.400390625 c 1
 349.599609375 558.900390625 349.599609375 548.549804688 348.450195312 540.5 c 2
 327.75 227.700195312 l 1
 224.25 227.700195312 l 1
 208.150390625 540.5 l 2
 207 549.700195312 207 560.049804688 204.700195312 572.700195312 c 1xc8
 204.700195312 584.200195312 202.400390625 595.700195312 201.25 607.200195312 c 0
 200.099609375 619.849609375 198.950195312 631.349609375 197.799804688 642.849609375 c 0
 196.650390625 654.349609375 196.650390625 664.700195312 196.650390625 672.75 c 0xd0
 196.650390625 704.950195312 203.549804688 729.099609375 217.349609375 746.349609375 c 0
 231.150390625 763.599609375 250.700195312 771.650390625 277.150390625 771.650390625 c 0
EndSplineSet
Validated: 524289
EndChar

StartChar: quotedbl
Encoding: 34 34 3
Width: 600
VWidth: 1150
GlyphClass: 2
Flags: W
HStem: 565.8 322.165<213.203 282.623 445.503 514.924>
VStem: 197.8 94.2998<565.8 873> 430.1 94.3008<565.8 873>
LayerCount: 2
Fore
SplineSet
524.400390625 811.900390625 m 2
 524.400390625 685.400390625 l 1
 526.286132812 565.799804688 l 1
 433.872070312 565.799804688 l 1
 430.099609375 623.299804688 433.872070312 623.299804688 431.986328125 680.799804688 c 1
 437.879882812 703.224609375 430.099609375 719.046875 430.099609375 745.200195312 c 2
 430.099609375 811.900390625 l 2
 430.099609375 864.548828125 461.37109375 887.96484375 482.44140625 887.96484375 c 0
 503.90625 887.96484375 524.400390625 872.198242188 524.400390625 811.900390625 c 2
292.099609375 811.900390625 m 2
 292.099609375 685.400390625 l 1
 293.986328125 565.799804688 l 1
 201.572265625 565.799804688 l 1
 197.799804688 623.299804688 201.572265625 623.299804688 199.685546875 680.799804688 c 1
 205.580078125 703.224609375 197.799804688 719.046875 197.799804688 745.200195312 c 2
 197.799804688 811.900390625 l 2
 197.799804688 864.548828125 229.0703125 887.96484375 250.140625 887.96484375 c 0
 271.60546875 887.96484375 292.099609375 872.198242188 292.099609375 811.900390625 c 2
EndSplineSet
Validated: 524321
EndChar

StartChar: numbersign
Encoding: 35 35 4
Width: 600
VWidth: 1150
GlyphClass: 2
Flags: W
HStem: 201.25 89.7002<28.75 121.9 249.55 303.6 431.25 526.7> 447.35 90.8506<43.7002 151.8 279.45 331.2 460 545.1> 701.05 20G<182.85 298.879>
LayerCount: 2
Fore
SplineSet
182.849609375 719.900390625 m 1
 301.299804688 721.049804688 l 1
 279.450195312 540.5 l 1
 341.549804688 540.5 l 1
 362.25 717.599609375 l 1
 480.700195312 718.75 l 1
 460 542.799804688 l 1
 556.599609375 542.799804688 l 1
 545.099609375 450.799804688 l 1
 448.5 450.799804688 l 1
 431.25 295.549804688 l 1
 533.599609375 295.549804688 l 1
 526.700195312 205.849609375 l 1
 420.900390625 205.849609375 l 1
 397.900390625 14.9501953125 l 1
 279.450195312 8.0498046875 l 1
 303.599609375 202.400390625 l 1
 239.200195312 202.400390625 l 1
 216.200195312 13.7998046875 l 1
 101.200195312 12.650390625 l 1
 121.900390625 201.25 l 1
 21.849609375 201.25 l 1
 28.75 290.950195312 l 1
 134.549804688 290.950195312 l 1
 151.799804688 447.349609375 l 1
 37.9501953125 447.349609375 l 1
 43.7001953125 538.200195312 l 1
 162.150390625 538.200195312 l 1
 182.849609375 719.900390625 l 1
266.799804688 448.5 m 1
 249.549804688 293.25 l 1
 312.799804688 293.25 l 1
 331.200195312 448.5 l 1
 266.799804688 448.5 l 1
EndSplineSet
Validated: 524289
EndChar

StartChar: dollar
Encoding: 36 36 5
Width: 600
VWidth: 1150
GlyphClass: 2
Flags: W
HStem: 8.0498 105.8<199.287 244.95>
VStem: 77.0498 120.75<463.635 556.482> 244.95 115<-50.5996 12.3241 678.348 748.596> 250.7 103.5<120.75 282.9 446.2 573.85> 422.05 117.3<148.526 255.408>
LayerCount: 2
Fore
SplineSet
244.950195312 748.650390625 m 1xe8
 359.950195312 748.650390625 l 1
 363.400390625 747.5 364.549804688 746.349609375 365.700195312 744.049804688 c 0
 366.849609375 741.75 366.849609375 739.450195312 366.849609375 737.150390625 c 0
 366.849609375 736 366.849609375 733.700195312 365.700195312 731.400390625 c 2
 363.400390625 719.900390625 l 1
 361.099609375 710.700195312 l 2
 359.950195312 706.099609375 359.950195312 703.799804688 359.950195312 701.5 c 2
 359.950195312 683.099609375 l 1xe8
 392.150390625 677.349609375 422.049804688 664.700195312 448.5 646.299804688 c 0
 474.950195312 629.049804688 500.25 606.049804688 522.099609375 579.599609375 c 1
 454.25 493.349609375 l 1
 448.5 493.349609375 445.049804688 494.5 441.599609375 496.799804688 c 0
 438.150390625 500.25 435.849609375 503.700195312 434.700195312 507.150390625 c 0
 432.400390625 510.599609375 430.099609375 515.200195312 430.099609375 519.799804688 c 1
 427.799804688 523.25 426.650390625 527.849609375 424.349609375 531.299804688 c 0
 416.299804688 539.349609375 407.099609375 548.549804688 394.450195312 556.599609375 c 0
 381.799804688 564.650390625 369.150390625 570.400390625 354.200195312 573.849609375 c 1
 354.200195312 404.799804688 l 1xd8
 385.25 394.450195312 411.700195312 384.099609375 434.700195312 372.599609375 c 0
 457.700195312 359.950195312 477.25 346.150390625 492.200195312 331.200195312 c 0
 508.299804688 315.099609375 519.799804688 296.700195312 527.849609375 278.299804688 c 0
 535.900390625 257.599609375 539.349609375 235.75 539.349609375 210.450195312 c 0
 539.349609375 186.299804688 535.900390625 164.450195312 526.700195312 142.599609375 c 1
 519.799804688 120.75 507.150390625 101.200195312 492.200195312 83.9501953125 c 0
 476.099609375 66.7001953125 457.700195312 50.599609375 434.700195312 39.099609375 c 1
 414 25.2998046875 388.700195312 17.25 359.950195312 11.5 c 1
 359.950195312 -50.599609375 l 1
 244.950195312 -50.599609375 l 1
 244.950195312 8.0498046875 l 1xe8
 209.299804688 13.7998046875 175.950195312 26.4501953125 142.599609375 43.7001953125 c 0
 110.400390625 60.9501953125 81.650390625 83.9501953125 56.349609375 111.549804688 c 1
 126.5 210.450195312 l 1
 132.25 209.299804688 138 205.849609375 140.299804688 202.400390625 c 1
 144.900390625 198.950195312 147.200195312 194.349609375 149.5 190.900390625 c 1
 150.650390625 186.299804688 152.950195312 181.700195312 154.099609375 178.25 c 0
 155.25 174.799804688 157.549804688 171.349609375 158.700195312 170.200195312 c 0
 171.349609375 156.400390625 185.150390625 144.900390625 200.099609375 134.549804688 c 0
 213.900390625 124.200195312 231.150390625 117.299804688 250.700195312 113.849609375 c 1
 250.700195312 319.700195312 l 1xd8
 223.099609375 330.049804688 198.950195312 340.400390625 177.099609375 353.049804688 c 0
 155.25 365.700195312 138 379.5 121.900390625 394.450195312 c 1
 108.099609375 409.400390625 96.599609375 426.650390625 88.5498046875 445.049804688 c 0
 80.5 463.450195312 77.0498046875 484.150390625 77.0498046875 506 c 0
 77.0498046875 526.700195312 80.5 546.25 88.5498046875 565.799804688 c 0
 96.599609375 585.349609375 106.950195312 602.599609375 121.900390625 617.549804688 c 0
 136.849609375 632.5 154.099609375 646.299804688 174.799804688 657.799804688 c 1
 196.650390625 668.150390625 219.650390625 676.200195312 244.950195312 681.950195312 c 1
 244.950195312 748.650390625 l 1xe8
354.200195312 120.75 m 1xd8
 373.75 127.650390625 391 138 402.5 150.650390625 c 1
 416.299804688 163.299804688 422.049804688 181.700195312 422.049804688 203.549804688 c 0
 422.049804688 220.799804688 416.299804688 236.900390625 404.799804688 250.700195312 c 0
 394.450195312 263.349609375 377.200195312 274.849609375 354.200195312 282.900390625 c 1
 354.200195312 120.75 l 1xd8
250.700195312 575 m 1
 234.599609375 571.549804688 221.950195312 563.5 211.599609375 553.150390625 c 0
 202.400390625 542.799804688 197.799804688 529 197.799804688 512.900390625 c 0
 197.799804688 500.25 201.25 487.599609375 209.299804688 476.099609375 c 1
 217.349609375 462.299804688 231.150390625 453.099609375 250.700195312 446.200195312 c 1
 250.700195312 575 l 1
EndSplineSet
Validated: 524289
EndChar

StartChar: percent
Encoding: 37 37 6
Width: 600
VWidth: 1150
GlyphClass: 2
Flags: W
HStem: -11.5 83.9502<385.401 448.182> 0 21G<25.2998 150.611> 218.5 83.9502<384.744 449.107> 415.15 83.9492<122.543 187.693> 645.15 83.9492<123.201 187.162>
VStem: 14.9502 95.4502<508.396 635.5> 200.1 100.051<508.952 635.454> 277.15 95.4492<81.7587 208.867> 462.3 100.05<83.1221 208.054>
LayerCount: 2
Fore
SplineSet
432.400390625 716.450195312 m 1x7c80
 549.700195312 716.450195312 l 1
 139.150390625 0 l 1
 25.2998046875 0 l 1
 432.400390625 716.450195312 l 1x7c80
14.9501953125 572.700195312 m 0
 14.9501953125 594.549804688 18.400390625 614.099609375 26.4501953125 633.650390625 c 0
 34.5 653.200195312 44.849609375 669.299804688 57.5 683.099609375 c 0
 70.150390625 698.049804688 85.099609375 708.400390625 103.5 717.599609375 c 0
 119.599609375 724.5 138 729.099609375 157.549804688 729.099609375 c 0
 177.099609375 729.099609375 195.5 724.5 212.75 716.450195312 c 0
 230 708.400390625 246.099609375 696.900390625 258.75 683.099609375 c 0
 271.400390625 669.299804688 281.75 653.200195312 289.799804688 632.5 c 0
 296.700195312 614.099609375 300.150390625 593.400390625 300.150390625 571.549804688 c 0x3e80
 300.150390625 548.549804688 296.700195312 527.849609375 289.799804688 508.299804688 c 0
 281.75 488.75 271.400390625 472.650390625 259.900390625 458.849609375 c 1
 246.099609375 445.049804688 232.299804688 434.700195312 213.900390625 426.650390625 c 0
 197.799804688 418.599609375 178.25 415.150390625 157.549804688 415.150390625 c 0
 138 415.150390625 119.599609375 418.599609375 103.5 426.650390625 c 0
 85.099609375 434.700195312 70.150390625 445.049804688 57.5 460 c 0
 44.849609375 473.799804688 34.5 489.900390625 26.4501953125 509.450195312 c 0
 18.400390625 529 14.9501953125 549.700195312 14.9501953125 572.700195312 c 0
110.400390625 571.549804688 m 0
 110.400390625 561.200195312 111.549804688 552 113.849609375 542.799804688 c 0
 116.150390625 534.75 119.599609375 526.700195312 123.049804688 519.799804688 c 0
 126.5 514.049804688 131.099609375 508.299804688 136.849609375 504.849609375 c 0
 142.599609375 501.400390625 148.349609375 499.099609375 155.25 499.099609375 c 0
 161 499.099609375 167.900390625 501.400390625 172.5 504.849609375 c 0
 179.400390625 508.299804688 184 514.049804688 187.450195312 519.799804688 c 0
 190.900390625 526.700195312 194.349609375 534.75 196.650390625 542.799804688 c 0
 198.950195312 552 200.099609375 561.200195312 200.099609375 571.549804688 c 0
 200.099609375 581.900390625 198.950195312 591.099609375 196.650390625 600.299804688 c 0
 194.349609375 609.5 190.900390625 617.549804688 187.450195312 623.299804688 c 0
 184 630.200195312 179.400390625 635.950195312 172.5 639.400390625 c 0
 167.900390625 642.849609375 161 645.150390625 155.25 645.150390625 c 0
 149.5 645.150390625 142.599609375 642.849609375 138 639.400390625 c 0
 131.099609375 635.950195312 126.5 630.200195312 123.049804688 623.299804688 c 0
 119.599609375 617.549804688 116.150390625 609.5 113.849609375 600.299804688 c 0
 111.549804688 591.099609375 110.400390625 581.900390625 110.400390625 571.549804688 c 0
277.150390625 146.049804688 m 0x7d80
 277.150390625 167.900390625 280.599609375 187.450195312 288.650390625 207 c 0
 296.700195312 226.549804688 307.049804688 242.650390625 319.700195312 257.599609375 c 0
 332.349609375 271.400390625 347.299804688 282.900390625 365.700195312 289.799804688 c 1
 381.799804688 299 400.200195312 302.450195312 419.75 302.450195312 c 0
 439.299804688 302.450195312 457.700195312 299 474.950195312 289.799804688 c 1
 492.200195312 282.900390625 508.299804688 271.400390625 519.799804688 257.599609375 c 0
 533.599609375 242.650390625 542.799804688 225.400390625 550.849609375 207 c 0
 558.900390625 186.299804688 562.349609375 166.75 562.349609375 144.900390625 c 0
 562.349609375 121.900390625 558.900390625 101.200195312 552 81.650390625 c 0
 543.950195312 62.099609375 533.599609375 46 522.099609375 32.2001953125 c 1
 508.299804688 18.400390625 494.5 8.0498046875 476.099609375 0 c 0x7d80
 460 -8.0498046875 440.450195312 -11.5 419.75 -11.5 c 0xbd80
 400.200195312 -11.5 381.799804688 -6.900390625 365.700195312 0 c 0
 347.299804688 9.2001953125 332.349609375 19.5498046875 319.700195312 33.349609375 c 0
 307.049804688 47.150390625 296.700195312 63.25 288.650390625 82.7998046875 c 0
 280.599609375 102.349609375 277.150390625 123.049804688 277.150390625 146.049804688 c 0x7d80
372.599609375 144.900390625 m 0
 372.599609375 134.549804688 373.75 125.349609375 376.049804688 117.299804688 c 0
 378.349609375 108.099609375 381.799804688 100.049804688 385.25 94.2998046875 c 0
 388.700195312 87.400390625 393.299804688 81.650390625 399.049804688 78.2001953125 c 0
 404.799804688 74.75 410.549804688 72.4501953125 417.450195312 72.4501953125 c 0xbd80
 423.200195312 72.4501953125 428.950195312 74.75 434.700195312 78.2001953125 c 0
 440.450195312 81.650390625 445.049804688 87.400390625 448.5 94.2998046875 c 1
 453.099609375 100.049804688 456.549804688 108.099609375 458.849609375 117.299804688 c 0
 461.150390625 125.349609375 462.299804688 134.549804688 462.299804688 144.900390625 c 0
 462.299804688 155.25 461.150390625 164.450195312 458.849609375 173.650390625 c 0
 456.549804688 182.849609375 453.099609375 190.900390625 448.5 197.799804688 c 0
 445.049804688 203.549804688 440.450195312 209.299804688 434.700195312 212.75 c 0
 428.950195312 216.200195312 423.200195312 218.5 417.450195312 218.5 c 0
 411.700195312 218.5 404.799804688 216.200195312 400.200195312 212.75 c 0
 393.299804688 209.299804688 388.700195312 203.549804688 385.25 197.799804688 c 0
 381.799804688 190.900390625 378.349609375 182.849609375 376.049804688 173.650390625 c 0
 373.75 164.450195312 372.599609375 155.25 372.599609375 144.900390625 c 0
EndSplineSet
Validated: 524289
EndChar

StartChar: ampersand
Encoding: 38 38 7
Width: 600
VWidth: 1150
GlyphClass: 2
Flags: W
HStem: -18.4004 101.2<192.789 305.272> 632.5 95.4502<226.954 306.392>
VStem: 34.5 125.35<117.64 265.186> 96.5996 117.301<497.426 617.637> 319.7 113.85<487.294 620.476>
LayerCount: 2
Fore
SplineSet
447.349609375 299 m 1xd8
 447.349609375 303.599609375 447.349609375 308.200195312 448.5 312.799804688 c 1
 448.5 326.599609375 l 1
 449.650390625 331.200195312 450.799804688 335.799804688 453.099609375 340.400390625 c 0
 454.25 343.849609375 457.700195312 347.299804688 461.150390625 350.75 c 1
 564.650390625 278.299804688 l 1
 549.700195312 254.150390625 535.900390625 230 522.099609375 208.150390625 c 0
 508.299804688 186.299804688 495.650390625 165.599609375 483 148.349609375 c 1
 488.75 140.299804688 494.5 132.25 501.400390625 124.200195312 c 2
 522.099609375 96.599609375 l 2
 527.849609375 88.5498046875 534.75 79.349609375 540.5 71.2998046875 c 0
 547.400390625 63.25 554.299804688 55.2001953125 560.049804688 47.150390625 c 1
 463.450195312 -24.150390625 l 1
 407.099609375 64.400390625 l 1
 395.599609375 52.900390625 382.950195312 42.5498046875 369.150390625 32.2001953125 c 0
 355.349609375 21.849609375 340.400390625 13.7998046875 325.450195312 5.75 c 0
 310.5 -2.2998046875 294.400390625 -8.0498046875 278.299804688 -11.5 c 0
 261.049804688 -16.099609375 244.950195312 -18.400390625 227.700195312 -18.400390625 c 0
 195.5 -18.400390625 167.900390625 -13.7998046875 143.75 -4.599609375 c 0
 119.599609375 5.75 100.049804688 18.400390625 82.7998046875 35.650390625 c 0
 66.7001953125 52.900390625 55.2001953125 72.4501953125 46 96.599609375 c 1
 39.099609375 119.599609375 34.5 144.900390625 34.5 171.349609375 c 0xe8
 34.5 193.200195312 37.9501953125 216.200195312 46 236.900390625 c 1
 52.900390625 259.900390625 62.099609375 280.599609375 75.900390625 300.150390625 c 1
 87.400390625 319.700195312 103.5 338.099609375 119.599609375 354.200195312 c 0
 138 371.450195312 156.400390625 385.25 177.099609375 396.75 c 1
 150.650390625 425.5 129.950195312 455.400390625 117.299804688 485.299804688 c 1
 103.5 514.049804688 96.599609375 541.650390625 96.599609375 566.950195312 c 0
 96.599609375 588.799804688 101.200195312 610.650390625 110.400390625 630.200195312 c 0
 118.450195312 649.75 131.099609375 667 146.049804688 680.799804688 c 0
 161 695.75 179.400390625 707.25 200.099609375 715.299804688 c 0
 221.950195312 723.349609375 243.799804688 727.950195312 266.799804688 727.950195312 c 0
 292.099609375 727.950195312 315.099609375 723.349609375 335.799804688 714.150390625 c 0
 355.349609375 704.950195312 372.599609375 692.299804688 387.549804688 678.5 c 1
 402.5 662.400390625 414 646.299804688 420.900390625 626.75 c 1
 430.099609375 607.200195312 433.549804688 587.650390625 433.549804688 566.950195312 c 0
 433.549804688 549.700195312 431.25 531.299804688 425.5 512.900390625 c 0
 419.75 494.5 412.849609375 476.099609375 402.5 460 c 0
 392.150390625 441.599609375 380.650390625 426.650390625 365.700195312 411.700195312 c 0
 351.900390625 397.900390625 336.950195312 386.400390625 319.700195312 377.200195312 c 1
 417.450195312 236.900390625 l 1
 424.349609375 246.099609375 430.099609375 256.450195312 434.700195312 266.799804688 c 0
 440.450195312 278.299804688 443.900390625 288.650390625 447.349609375 299 c 1xd8
213.900390625 565.799804688 m 0xd8
 213.900390625 550.849609375 218.5 534.75 225.400390625 516.349609375 c 1
 234.599609375 497.950195312 247.25 477.25 264.5 454.25 c 1
 273.700195312 460 281.75 466.900390625 288.650390625 474.950195312 c 0
 295.549804688 483 301.299804688 492.200195312 305.900390625 501.400390625 c 0
 310.5 511.75 313.950195312 520.950195312 316.25 531.299804688 c 0
 318.549804688 541.650390625 319.700195312 550.849609375 319.700195312 561.200195312 c 0
 319.700195312 571.549804688 318.549804688 580.75 316.25 588.799804688 c 0
 313.950195312 596.849609375 310.5 604.900390625 305.900390625 611.799804688 c 0
 301.299804688 617.549804688 295.549804688 623.299804688 289.799804688 626.75 c 0
 284.049804688 630.200195312 276 632.5 267.950195312 632.5 c 0
 250.700195312 632.5 236.900390625 625.599609375 227.700195312 614.099609375 c 1
 218.5 600.299804688 213.900390625 585.349609375 213.900390625 565.799804688 c 0xd8
227.700195312 316.25 m 1
 215.049804688 308.200195312 204.700195312 299 195.5 289.799804688 c 1
 187.450195312 278.299804688 180.549804688 267.950195312 174.799804688 255.299804688 c 0
 170.200195312 243.799804688 166.75 232.299804688 163.299804688 219.650390625 c 0
 161 207 159.849609375 195.5 159.849609375 184 c 0xe8
 159.849609375 171.349609375 162.150390625 158.700195312 165.599609375 147.200195312 c 0
 170.200195312 134.549804688 175.950195312 124.200195312 184 115 c 1
 190.900390625 104.650390625 200.099609375 96.599609375 209.299804688 92 c 0
 220.799804688 85.099609375 231.150390625 82.7998046875 243.799804688 82.7998046875 c 0
 265.650390625 82.7998046875 284.049804688 89.7001953125 301.299804688 101.200195312 c 1
 318.549804688 115 332.349609375 129.950195312 345 148.349609375 c 1
 227.700195312 316.25 l 1
EndSplineSet
Validated: 524289
EndChar

StartChar: quotesingle
Encoding: 39 39 8
Width: 600
VWidth: 1150
GlyphClass: 2
Flags: W
HStem: 538.939 351.16<340.383 434.775>
VStem: 315.966 133.112<538.939 865.361>
LayerCount: 2
Fore
SplineSet
449.078125 807.189453125 m 6
 449.078125 669.303710938 l 5
 451.740234375 538.939453125 l 5
 321.290039062 538.939453125 l 5
 315.965820312 601.614257812 321.290039062 601.614257812 318.627929688 664.2890625 c 5
 326.948242188 688.731445312 315.965820312 705.978515625 315.965820312 734.485351562 c 6
 315.965820312 807.188476562 l 6
 315.965820312 864.577148438 360.108398438 890.099609375 389.849609375 890.099609375 c 4
 420.150390625 890.099609375 449.078125 872.9140625 449.078125 807.189453125 c 6
EndSplineSet
Validated: 524321
EndChar

StartChar: parenleft
Encoding: 40 40 9
Width: 600
VWidth: 1150
GlyphClass: 2
Flags: W
HStem: 750.5 20G<420.325 453.9>
VStem: 134.55 119.601<150.74 446.975>
LayerCount: 2
Fore
SplineSet
496.799804688 664.700195312 m 1
 488.75 661.25 483 660.099609375 477.25 660.099609375 c 0
 472.650390625 660.099609375 468.049804688 660.099609375 464.599609375 662.400390625 c 1
 461.150390625 662.400390625 457.700195312 663.549804688 454.25 663.549804688 c 2
 450.799804688 663.549804688 l 1
 450.799804688 663.549804688 448.5 663.549804688 446.200195312 662.400390625 c 0
 416.299804688 645.150390625 389.849609375 623.299804688 365.700195312 600.299804688 c 1
 341.549804688 575 322 548.549804688 305.900390625 517.5 c 0
 288.650390625 486.450195312 276 453.099609375 266.799804688 415.150390625 c 0
 258.75 377.200195312 254.150390625 336.950195312 254.150390625 292.099609375 c 0
 254.150390625 249.549804688 259.900390625 207 271.400390625 167.900390625 c 1
 281.75 126.5 297.849609375 89.7001953125 319.700195312 54.0498046875 c 0
 340.400390625 18.400390625 365.700195312 -13.7998046875 395.599609375 -43.7001953125 c 0
 424.349609375 -72.4501953125 457.700195312 -97.75 494.5 -119.599609375 c 1
 443.900390625 -205.849609375 l 1
 396.75 -181.700195312 353.049804688 -151.799804688 315.099609375 -117.299804688 c 0
 277.150390625 -81.650390625 243.799804688 -42.5498046875 218.5 0 c 1
 190.900390625 42.5498046875 171.349609375 89.7001953125 156.400390625 139.150390625 c 0
 141.450195312 188.599609375 134.549804688 240.349609375 134.549804688 294.400390625 c 0
 134.549804688 349.599609375 141.450195312 401.349609375 156.400390625 450.799804688 c 0
 171.349609375 499.099609375 192.049804688 543.950195312 218.5 584.200195312 c 0
 246.099609375 624.450195312 278.299804688 661.25 317.400390625 692.299804688 c 1
 354.200195312 723.349609375 396.75 749.799804688 443.900390625 770.5 c 1
 496.799804688 664.700195312 l 1
EndSplineSet
Validated: 524289
EndChar

StartChar: parenright
Encoding: 41 41 10
Width: 600
VWidth: 1150
GlyphClass: 2
Flags: W
HStem: 751.65 20G<105.573 136.85>
VStem: 320.85 119.601<144.628 425.986>
LayerCount: 2
Fore
SplineSet
111.549804688 771.650390625 m 1
 162.150390625 749.799804688 208.150390625 722.200195312 248.400390625 687.700195312 c 0
 288.650390625 654.349609375 323.150390625 616.400390625 351.900390625 573.849609375 c 0
 380.650390625 531.299804688 402.5 486.450195312 417.450195312 437 c 0
 432.400390625 387.549804688 440.450195312 338.099609375 440.450195312 286.349609375 c 0
 440.450195312 234.599609375 432.400390625 182.849609375 416.299804688 133.400390625 c 1
 401.349609375 82.7998046875 378.349609375 35.650390625 349.599609375 -6.900390625 c 0
 320.849609375 -50.599609375 285.200195312 -89.7001953125 243.799804688 -124.200195312 c 0
 202.400390625 -159.849609375 156.400390625 -187.450195312 104.650390625 -209.299804688 c 1
 74.75 -111.549804688 l 1
 113.849609375 -94.2998046875 148.349609375 -71.2998046875 179.400390625 -43.7001953125 c 1
 209.299804688 -14.9501953125 234.599609375 16.099609375 255.299804688 50.599609375 c 1
 277.150390625 83.9501953125 293.25 120.75 303.599609375 161 c 1
 315.099609375 200.099609375 320.849609375 240.349609375 320.849609375 282.900390625 c 0
 320.849609375 369.150390625 300.150390625 446.200195312 258.75 512.900390625 c 0
 217.349609375 579.599609375 158.700195312 632.5 81.650390625 671.599609375 c 1
 111.549804688 771.650390625 l 1
EndSplineSet
Validated: 524289
EndChar

StartChar: asterisk
Encoding: 42 42 11
Width: 600
VWidth: 1150
GlyphClass: 2
Flags: W
LayerCount: 2
Fore
SplineSet
227.700195312 603.75 m 1
 363.400390625 603.75 l 1
 339.25 426.650390625 l 1
 499.099609375 499.099609375 l 1
 541.650390625 400.200195312 l 1
 362.25 345 l 1
 493.349609375 187.450195312 l 1
 401.349609375 116.150390625 l 1
 289.799804688 285.200195312 l 1
 174.799804688 115 l 1
 83.9501953125 187.450195312 l 1
 218.5 343.849609375 l 1
 39.099609375 399.049804688 l 1
 79.349609375 503.700195312 l 1
 243.799804688 426.650390625 l 1
 227.700195312 603.75 l 1
EndSplineSet
Validated: 524289
EndChar

StartChar: plus
Encoding: 43 43 12
Width: 600
VWidth: 1150
GlyphClass: 2
Flags: W
HStem: 325.45 97.75<47.1504 238.05 349.6 533.6>
VStem: 238.05 111.55<124.2 325.45 423.2 608.35>
LayerCount: 2
Fore
SplineSet
238.049804688 608.349609375 m 1
 349.599609375 608.349609375 l 1
 349.599609375 423.200195312 l 1
 533.599609375 423.200195312 l 1
 533.599609375 325.450195312 l 1
 349.599609375 325.450195312 l 1
 349.599609375 124.200195312 l 1
 238.049804688 124.200195312 l 1
 238.049804688 325.450195312 l 1
 47.150390625 325.450195312 l 1
 47.150390625 423.200195312 l 1
 238.049804688 423.200195312 l 1
 238.049804688 608.349609375 l 1
EndSplineSet
Validated: 524289
EndChar

StartChar: comma
Encoding: 44 44 13
Width: 600
VWidth: 1150
GlyphClass: 2
Flags: W
HStem: -194.35 21G<213.789 258.75>
VStem: 246.1 125.351<-45.8262 42.5498>
LayerCount: 2
Fore
SplineSet
371.450195312 34.5 m 0
 371.450195312 3.4501953125 359.950195312 -29.900390625 338.099609375 -67.849609375 c 0
 316.25 -105.799804688 281.75 -147.200195312 235.75 -194.349609375 c 1
 171.349609375 -135.700195312 l 1
 181.700195312 -125.349609375 192.049804688 -115 201.25 -104.650390625 c 0
 210.450195312 -94.2998046875 218.5 -83.9501953125 225.400390625 -73.599609375 c 0
 231.150390625 -63.25 236.900390625 -54.0498046875 240.349609375 -46 c 0
 243.799804688 -36.7998046875 246.099609375 -28.75 246.099609375 -23 c 0
 246.099609375 -19.5498046875 243.799804688 -14.9501953125 241.5 -11.5 c 1
 236.900390625 -8.0498046875 233.450195312 -3.4501953125 228.849609375 0 c 0
 218.5 8.0498046875 210.450195312 17.25 202.400390625 26.4501953125 c 0
 194.349609375 35.650390625 190.900390625 47.150390625 190.900390625 59.7998046875 c 0
 190.900390625 71.2998046875 193.200195312 81.650390625 197.799804688 92 c 0
 201.25 101.200195312 207 109.25 213.900390625 117.299804688 c 1
 221.950195312 124.200195312 231.150390625 129.950195312 241.5 133.400390625 c 0
 251.849609375 138 264.5 140.299804688 277.150390625 140.299804688 c 0
 289.799804688 140.299804688 301.299804688 138 312.799804688 132.25 c 0
 324.299804688 126.5 334.650390625 119.599609375 342.700195312 110.400390625 c 0
 351.900390625 101.200195312 358.799804688 89.7001953125 363.400390625 78.2001953125 c 0
 369.150390625 64.400390625 371.450195312 50.599609375 371.450195312 34.5 c 0
EndSplineSet
Validated: 524289
EndChar

StartChar: hyphen
Encoding: 45 45 14
Width: 600
VWidth: 1150
GlyphClass: 2
Flags: W
HStem: 316.25 104.65<73.5996 504.85>
LayerCount: 2
Fore
SplineSet
73.599609375 420.900390625 m 1
 504.849609375 420.900390625 l 1
 504.849609375 316.25 l 1
 73.599609375 316.25 l 1
 73.599609375 420.900390625 l 1
EndSplineSet
Validated: 524289
EndChar

StartChar: period
Encoding: 46 46 15
Width: 600
VWidth: 1150
GlyphClass: 2
Flags: W
HStem: -14.9502 156.4<219.643 333.787>
VStem: 192.05 171.351<11.3686 111.988>
LayerCount: 2
Fore
SplineSet
277.150390625 141.450195312 m 0
 288.650390625 141.450195312 299 139.150390625 310.5 134.549804688 c 0
 319.700195312 129.950195312 328.900390625 124.200195312 338.099609375 116.150390625 c 1
 345 108.099609375 351.900390625 100.049804688 356.5 89.7001953125 c 0
 361.099609375 80.5 363.400390625 71.2998046875 363.400390625 62.099609375 c 0
 363.400390625 51.75 361.099609375 41.400390625 356.5 32.2001953125 c 0
 351.900390625 23 346.150390625 14.9501953125 338.099609375 8.0498046875 c 0
 330.049804688 1.150390625 320.849609375 -4.599609375 310.5 -9.2001953125 c 0
 300.150390625 -12.650390625 288.650390625 -14.9501953125 277.150390625 -14.9501953125 c 0
 264.5 -14.9501953125 253 -12.650390625 243.799804688 -9.2001953125 c 0
 232.299804688 -4.599609375 224.25 1.150390625 216.200195312 8.0498046875 c 0
 208.150390625 14.9501953125 202.400390625 23 197.799804688 32.2001953125 c 0
 194.349609375 41.400390625 192.049804688 51.75 192.049804688 62.099609375 c 0
 192.049804688 72.4501953125 194.349609375 82.7998046875 198.950195312 92 c 0
 203.549804688 102.349609375 209.299804688 110.400390625 217.349609375 117.299804688 c 0
 225.400390625 125.349609375 234.599609375 131.099609375 243.799804688 135.700195312 c 1
 255.299804688 139.150390625 265.650390625 141.450195312 277.150390625 141.450195312 c 0
EndSplineSet
Validated: 524289
EndChar

StartChar: slash
Encoding: 47 47 16
Width: 600
VWidth: 1150
GlyphClass: 2
Flags: W
LayerCount: 2
Fore
SplineSet
59.7998046875 -5.75 m 1
 416.299804688 767.049804688 l 1
 516.349609375 715.299804688 l 1
 161 -54.0498046875 l 1
 59.7998046875 -5.75 l 1
EndSplineSet
Validated: 524289
EndChar

StartChar: zero
Encoding: 48 48 17
Width: 600
VWidth: 1150
GlyphClass: 2
Flags: W
HStem: -21.8496 115<234.723 339.498> 619.85 111.551<237.228 343.291>
VStem: 39.0996 123.051<277.48 510.301> 415.15 123.05<201.63 435.374>
LayerCount: 2
Fore
SplineSet
461.150390625 630.200195312 m 0
 485.299804688 599.150390625 503.700195312 558.900390625 517.5 510.599609375 c 0
 531.299804688 461.150390625 538.200195312 407.099609375 538.200195312 347.299804688 c 0
 538.200195312 284.049804688 531.299804688 230 517.5 184 c 0
 503.700195312 138 485.299804688 100.049804688 462.299804688 69 c 0
 439.299804688 37.9501953125 412.849609375 16.099609375 381.799804688 0 c 1
 350.75 -13.7998046875 319.700195312 -21.849609375 287.5 -21.849609375 c 0
 254.150390625 -21.849609375 221.950195312 -12.650390625 190.900390625 4.599609375 c 1
 161 23 134.549804688 48.2998046875 112.700195312 81.650390625 c 0
 89.7001953125 115 71.2998046875 154.099609375 58.650390625 200.099609375 c 0
 46 246.099609375 39.099609375 296.700195312 39.099609375 353.049804688 c 0
 39.099609375 409.400390625 46 460 59.7998046875 506 c 1
 72.4501953125 553.150390625 90.849609375 593.400390625 112.700195312 625.599609375 c 0
 135.700195312 660.099609375 162.150390625 685.400390625 193.200195312 703.799804688 c 0
 223.099609375 722.200195312 254.150390625 731.400390625 287.5 731.400390625 c 0
 307.049804688 731.400390625 324.299804688 729.099609375 340.400390625 724.5 c 0
 356.5 721.049804688 371.450195312 714.150390625 386.400390625 706.099609375 c 0
 400.200195312 698.049804688 412.849609375 687.700195312 425.5 673.900390625 c 0
 437 662.400390625 448.5 647.450195312 461.150390625 630.200195312 c 0
377.200195312 548.549804688 m 1
 368 570.400390625 355.349609375 588.799804688 340.400390625 600.299804688 c 1
 325.450195312 614.099609375 308.200195312 619.849609375 288.650390625 619.849609375 c 0
 271.400390625 619.849609375 255.299804688 614.099609375 240.349609375 601.450195312 c 0
 225.400390625 588.799804688 211.599609375 572.700195312 200.099609375 549.700195312 c 0
 188.599609375 529 179.400390625 501.400390625 172.5 471.5 c 0
 165.599609375 439.299804688 162.150390625 405.950195312 162.150390625 368 c 0
 162.150390625 361.099609375 162.150390625 354.200195312 163.299804688 345 c 0
 163.299804688 338.099609375 163.299804688 328.900390625 164.450195312 320.849609375 c 0
 165.599609375 312.799804688 165.599609375 303.599609375 165.599609375 296.700195312 c 0
 166.75 287.5 166.75 281.75 167.900390625 276 c 1
 377.200195312 548.549804688 l 1
200.099609375 164.450195312 m 1
 209.299804688 142.599609375 221.950195312 124.200195312 236.900390625 112.700195312 c 1
 251.849609375 98.900390625 269.099609375 93.150390625 288.650390625 93.150390625 c 0
 305.900390625 93.150390625 322 98.900390625 335.799804688 111.549804688 c 1
 351.900390625 124.200195312 364.549804688 140.299804688 377.200195312 163.299804688 c 0
 388.700195312 184 397.900390625 210.450195312 404.799804688 241.5 c 0
 411.700195312 272.549804688 415.150390625 307.049804688 415.150390625 345 c 0
 415.150390625 351.900390625 415.150390625 359.950195312 414 368 c 0
 414 376.049804688 414 385.25 412.849609375 393.299804688 c 0
 411.700195312 401.349609375 411.700195312 409.400390625 410.549804688 417.450195312 c 0
 409.400390625 425.5 409.400390625 431.25 409.400390625 437 c 1
 200.099609375 164.450195312 l 1
EndSplineSet
Validated: 524289
EndChar

StartChar: one
Encoding: 49 49 18
Width: 600
VWidth: 1150
GlyphClass: 2
Flags: W
HStem: 0 21G<240.35 366.85> 533.6 21G<109.359 184.173>
VStem: 240.35 126.5<0 570.4>
LayerCount: 2
Fore
SplineSet
366.849609375 716.450195312 m 1
 366.849609375 0 l 1
 240.349609375 0 l 1
 240.349609375 570.400390625 l 1
 117.299804688 533.599609375 l 1
 86.25 611.799804688 l 1
 280.599609375 716.450195312 l 1
 366.849609375 716.450195312 l 1
EndSplineSet
Validated: 524289
EndChar

StartChar: two
Encoding: 50 50 19
Width: 600
VWidth: 1150
GlyphClass: 2
Flags: W
HStem: 0 125.35<224.663 510.6> 0 106.95<220.8 510.332> 623.3 109.25<211.7 342.016>
VStem: 377.2 132.25<447.09 587.28>
LayerCount: 2
Fore
SplineSet
62.099609375 587.650390625 m 1x70
 83.9501953125 634.799804688 113.849609375 671.599609375 151.799804688 695.75 c 0
 190.900390625 719.900390625 235.75 732.549804688 285.200195312 732.549804688 c 0
 317.400390625 732.549804688 347.299804688 726.799804688 374.900390625 715.299804688 c 0
 402.5 704.950195312 426.650390625 690 446.200195312 670.450195312 c 0
 465.75 650.900390625 481.849609375 629.049804688 492.200195312 602.599609375 c 1
 503.700195312 577.299804688 509.450195312 550.849609375 509.450195312 522.099609375 c 0
 509.450195312 493.349609375 503.700195312 465.75 493.349609375 441.599609375 c 0
 483 416.299804688 469.200195312 392.150390625 451.950195312 370.299804688 c 0
 434.700195312 347.299804688 416.299804688 325.450195312 394.450195312 305.900390625 c 0
 372.599609375 285.200195312 351.900390625 264.5 330.049804688 243.799804688 c 0
 308.200195312 221.950195312 288.650390625 200.099609375 269.099609375 178.25 c 0
 249.549804688 156.400390625 233.450195312 132.25 220.799804688 106.950195312 c 1
 468.049804688 106.950195312 l 2x70
 471.5 106.950195312 474.950195312 108.099609375 478.400390625 110.400390625 c 0
 481.849609375 112.700195312 484.150390625 115 487.599609375 117.299804688 c 0
 491.049804688 118.450195312 494.5 120.75 496.799804688 121.900390625 c 0
 501.400390625 124.200195312 504.849609375 125.349609375 510.599609375 125.349609375 c 1
 510.599609375 0 l 1xb0
 65.5498046875 0 l 1
 65.5498046875 71.2998046875 l 1
 75.900390625 97.75 88.5498046875 121.900390625 103.5 144.900390625 c 0
 118.450195312 169.049804688 133.400390625 190.900390625 149.5 212.75 c 0
 166.75 234.599609375 184 254.150390625 200.099609375 273.700195312 c 1
 218.5 292.099609375 234.599609375 309.349609375 250.700195312 326.599609375 c 0
 263.349609375 339.25 276 353.049804688 290.950195312 368 c 0
 305.900390625 381.799804688 319.700195312 396.75 332.349609375 412.849609375 c 0
 345 428.950195312 356.5 446.200195312 364.549804688 464.599609375 c 0
 372.599609375 481.849609375 377.200195312 501.400390625 377.200195312 520.950195312 c 0
 377.200195312 534.75 374.900390625 547.400390625 370.299804688 561.200195312 c 0
 365.700195312 572.700195312 358.799804688 584.200195312 350.75 593.400390625 c 0
 342.700195312 602.599609375 332.349609375 609.5 319.700195312 615.25 c 0
 308.200195312 621 295.549804688 623.299804688 280.599609375 623.299804688 c 0
 263.349609375 623.299804688 248.400390625 621 236.900390625 616.400390625 c 0
 224.25 611.799804688 215.049804688 606.049804688 207 598 c 0
 198.950195312 591.099609375 193.200195312 583.049804688 188.599609375 575 c 1
 185.150390625 565.799804688 181.700195312 556.599609375 178.25 548.549804688 c 0
 174.799804688 540.5 172.5 532.450195312 170.200195312 525.549804688 c 0
 167.900390625 518.650390625 164.450195312 514.049804688 161 510.599609375 c 1
 62.099609375 587.650390625 l 1x70
EndSplineSet
Validated: 524289
EndChar

StartChar: three
Encoding: 51 51 20
Width: 600
VWidth: 1150
GlyphClass: 2
Flags: W
HStem: -21.8496 111.55<197.536 334.44> 317.4 103.5<178.25 306.804> 622.15 110.399<201.811 333.457>
VStem: 362.25 129.95<466.91 593.686> 379.5 128.8<135.853 274.404>
LayerCount: 2
Fore
SplineSet
492.200195312 533.599609375 m 0xf0
 492.200195312 515.200195312 489.900390625 497.950195312 483 480.700195312 c 1
 478.400390625 464.599609375 470.349609375 450.799804688 460 437 c 1
 449.650390625 425.5 439.299804688 414 426.650390625 404.799804688 c 0
 414 394.450195312 402.5 387.549804688 389.849609375 381.799804688 c 1
 404.799804688 376.049804688 418.599609375 368 432.400390625 357.650390625 c 0
 447.349609375 347.299804688 460 333.5 471.5 317.400390625 c 0
 481.849609375 302.450195312 491.049804688 284.049804688 497.950195312 264.5 c 0
 504.849609375 244.950195312 508.299804688 223.099609375 508.299804688 198.950195312 c 0xe8
 508.299804688 165.599609375 502.549804688 135.700195312 492.200195312 108.099609375 c 0xf0
 481.849609375 81.650390625 465.75 58.650390625 443.900390625 39.099609375 c 0
 423.200195312 19.5498046875 397.900390625 4.599609375 365.700195312 -5.75 c 0
 335.799804688 -16.099609375 300.150390625 -21.849609375 259.900390625 -21.849609375 c 0
 219.650390625 -21.849609375 182.849609375 -13.7998046875 147.200195312 0 c 1
 112.700195312 16.099609375 81.650390625 40.25 54.0498046875 74.75 c 1
 144.900390625 185.150390625 l 1
 148.349609375 182.849609375 150.650390625 180.549804688 151.799804688 178.25 c 0
 152.950195312 175.950195312 154.099609375 173.650390625 156.400390625 170.200195312 c 1
 156.400390625 166.75 158.700195312 163.299804688 159.849609375 158.700195312 c 0
 161 155.25 163.299804688 149.5 165.599609375 143.75 c 0
 170.200195312 135.700195312 175.950195312 128.799804688 182.849609375 121.900390625 c 0
 189.75 116.150390625 197.799804688 110.400390625 207 105.799804688 c 0
 216.200195312 100.049804688 225.400390625 96.599609375 235.75 94.2998046875 c 0
 246.099609375 90.849609375 255.299804688 89.7001953125 265.650390625 89.7001953125 c 0
 281.75 89.7001953125 296.700195312 92 310.5 97.75 c 0
 323.150390625 103.5 335.799804688 110.400390625 345 121.900390625 c 1
 356.5 131.099609375 364.549804688 144.900390625 370.299804688 158.700195312 c 0
 376.049804688 174.799804688 379.5 190.900390625 379.5 210.450195312 c 0xe8
 379.5 227.700195312 376.049804688 242.650390625 369.150390625 256.450195312 c 0
 362.25 270.25 353.049804688 281.75 340.400390625 290.950195312 c 0
 327.75 300.150390625 313.950195312 307.049804688 296.700195312 312.799804688 c 0
 279.450195312 317.400390625 261.049804688 319.700195312 241.5 319.700195312 c 2
 234.599609375 319.700195312 l 1
 232.299804688 318.549804688 228.849609375 318.549804688 224.25 318.549804688 c 0
 219.650390625 318.549804688 213.900390625 318.549804688 207 317.400390625 c 1
 178.25 317.400390625 l 1
 178.25 420.900390625 l 1
 212.75 420.900390625 241.5 423.200195312 264.5 428.950195312 c 0
 288.650390625 434.700195312 307.049804688 441.599609375 322 450.799804688 c 0
 336.950195312 461.150390625 347.299804688 472.650390625 353.049804688 487.599609375 c 0
 358.799804688 501.400390625 362.25 517.5 362.25 534.75 c 0
 362.25 547.400390625 359.950195312 558.900390625 356.5 568.099609375 c 0
 351.900390625 579.599609375 346.150390625 588.799804688 338.099609375 595.700195312 c 1
 330.049804688 604.900390625 320.849609375 610.650390625 309.349609375 615.25 c 0
 297.849609375 619.849609375 285.200195312 622.150390625 270.25 622.150390625 c 0
 251.849609375 622.150390625 232.299804688 617.549804688 212.75 607.200195312 c 0
 193.200195312 596.849609375 172.5 579.599609375 150.650390625 553.150390625 c 1
 77.0498046875 635.950195312 l 1
 102.349609375 669.299804688 131.099609375 694.599609375 165.599609375 709.549804688 c 0
 197.799804688 724.5 234.599609375 732.549804688 273.700195312 732.549804688 c 0
 305.900390625 732.549804688 335.799804688 727.950195312 361.099609375 717.599609375 c 0
 388.700195312 707.25 411.700195312 693.450195312 430.099609375 676.200195312 c 1
 450.799804688 658.950195312 465.75 637.099609375 476.099609375 614.099609375 c 0
 486.450195312 588.799804688 492.200195312 562.349609375 492.200195312 533.599609375 c 0xf0
EndSplineSet
Validated: 524289
EndChar

StartChar: four
Encoding: 52 52 21
Width: 600
VWidth: 1150
GlyphClass: 2
Flags: W
HStem: 0 21G<323.15 453.1> 177.1 103.5<182.85 323.15 453.1 548.55>
VStem: 327.75 125.35<0 175.95 284.05 494.5>
LayerCount: 2
Fore
SplineSet
359.950195312 716.450195312 m 1
 453.099609375 716.450195312 l 1
 453.099609375 284.049804688 l 1
 548.549804688 284.049804688 l 1
 548.549804688 175.950195312 l 1
 453.099609375 175.950195312 l 1
 453.099609375 0 l 1
 323.150390625 0 l 1
 323.150390625 177.099609375 l 1
 49.4501953125 177.099609375 l 1
 49.4501953125 257.599609375 l 1
 359.950195312 716.450195312 l 1
327.75 494.5 m 1
 182.849609375 280.599609375 l 1
 327.75 280.599609375 l 1
 327.75 494.5 l 1
EndSplineSet
Validated: 524289
EndChar

StartChar: five
Encoding: 53 53 22
Width: 600
VWidth: 1150
GlyphClass: 2
Flags: W
HStem: -21.8496 113.85<214.727 355.928> 373.75 106.95<227.152 357.323> 607.2 109.25<235.75 508.3>
VStem: 402.5 127.65<143.102 324.37>
LayerCount: 2
Fore
SplineSet
123.049804688 716.450195312 m 1
 508.299804688 716.450195312 l 1
 508.299804688 607.200195312 l 1
 235.75 607.200195312 l 1
 226.549804688 468.049804688 l 1
 240.349609375 471.5 253 474.950195312 266.799804688 477.25 c 0
 278.299804688 479.549804688 292.099609375 480.700195312 305.900390625 480.700195312 c 0
 339.25 480.700195312 370.299804688 474.950195312 397.900390625 464.599609375 c 0
 426.650390625 453.099609375 450.799804688 437 469.200195312 415.150390625 c 1
 489.900390625 393.299804688 503.700195312 368 515.200195312 335.799804688 c 1
 524.400390625 305.900390625 530.150390625 270.25 530.150390625 231.150390625 c 0
 530.150390625 193.200195312 524.400390625 158.700195312 512.900390625 128.799804688 c 1
 502.549804688 96.599609375 486.450195312 70.150390625 465.75 48.2998046875 c 0
 445.049804688 26.4501953125 419.75 9.2001953125 391 -3.4501953125 c 0
 361.099609375 -16.099609375 327.75 -21.849609375 292.099609375 -21.849609375 c 0
 267.950195312 -21.849609375 244.950195312 -19.5498046875 223.099609375 -13.7998046875 c 0
 201.25 -9.2001953125 179.400390625 -1.150390625 161 9.2001953125 c 0
 140.299804688 19.5498046875 123.049804688 34.5 105.799804688 50.599609375 c 1
 88.5498046875 69 73.599609375 89.7001953125 60.9501953125 113.849609375 c 1
 163.299804688 190.900390625 l 1
 166.75 189.75 169.049804688 187.450195312 170.200195312 184 c 1
 172.5 181.700195312 174.799804688 179.400390625 174.799804688 174.799804688 c 1
 177.099609375 172.5 177.099609375 167.900390625 178.25 165.599609375 c 0
 179.400390625 161 179.400390625 158.700195312 180.549804688 155.25 c 0
 188.599609375 138 201.25 124.200195312 218.5 110.400390625 c 1
 236.900390625 98.900390625 259.900390625 92 287.5 92 c 0
 303.599609375 92 318.549804688 94.2998046875 333.5 101.200195312 c 1
 347.299804688 105.799804688 358.799804688 115 369.150390625 126.5 c 0
 379.5 139.150390625 387.549804688 154.099609375 393.299804688 171.349609375 c 0
 399.049804688 188.599609375 402.5 209.299804688 402.5 232.299804688 c 0
 402.5 254.150390625 400.200195312 274.849609375 394.450195312 292.099609375 c 0
 388.700195312 309.349609375 381.799804688 324.299804688 372.599609375 336.950195312 c 0
 362.25 349.599609375 350.75 358.799804688 336.950195312 364.549804688 c 0
 323.150390625 370.299804688 308.200195312 373.75 292.099609375 373.75 c 0
 269.099609375 373.75 248.400390625 368 231.150390625 356.5 c 0
 213.900390625 346.150390625 196.650390625 328.900390625 179.400390625 304.75 c 1
 96.599609375 340.400390625 l 1
 123.049804688 716.450195312 l 1
EndSplineSet
Validated: 524289
EndChar

StartChar: six
Encoding: 54 54 23
Width: 600
VWidth: 1150
GlyphClass: 2
Flags: W
HStem: -21.8496 118.449<247.565 355.027> 363.4 113.85<234.426 352.52> 621 110.4<264.395 386.189>
VStem: 58.6504 131.1<167.282 322.287> 394.45 127.649<140.181 318.545>
LayerCount: 2
Fore
SplineSet
325.450195312 731.400390625 m 0
 358.799804688 731.400390625 389.849609375 724.5 420.900390625 709.549804688 c 0
 450.799804688 694.599609375 479.549804688 673.900390625 506 647.450195312 c 1
 419.75 554.299804688 l 1
 416.299804688 555.450195312 412.849609375 556.599609375 410.549804688 558.900390625 c 0
 408.25 562.349609375 407.099609375 564.650390625 404.799804688 568.099609375 c 1
 404.799804688 571.549804688 402.5 575 402.5 578.450195312 c 1
 400.200195312 581.900390625 399.049804688 586.5 395.599609375 591.099609375 c 0
 387.549804688 599.150390625 377.200195312 607.200195312 365.700195312 611.799804688 c 0
 351.900390625 618.700195312 339.25 621 325.450195312 621 c 0
 311.650390625 621 297.849609375 617.549804688 282.900390625 610.650390625 c 0
 267.950195312 603.75 254.150390625 592.25 241.5 577.299804688 c 0
 228.849609375 562.349609375 217.349609375 541.650390625 207 517.5 c 1
 197.799804688 492.200195312 190.900390625 461.150390625 187.450195312 423.200195312 c 1
 195.5 431.25 203.549804688 438.150390625 212.75 443.900390625 c 0
 221.950195312 450.799804688 232.299804688 456.549804688 241.5 462.299804688 c 1
 253 466.900390625 263.349609375 470.349609375 273.700195312 473.799804688 c 0
 284.049804688 476.099609375 295.549804688 477.25 305.900390625 477.25 c 0
 335.799804688 477.25 363.400390625 471.5 391 460 c 1
 416.299804688 447.349609375 439.299804688 430.099609375 460 409.400390625 c 1
 478.400390625 386.400390625 494.5 361.099609375 506 331.200195312 c 0
 516.349609375 301.299804688 522.099609375 267.950195312 522.099609375 232.299804688 c 0
 522.099609375 196.650390625 516.349609375 163.299804688 503.700195312 131.099609375 c 0
 492.200195312 101.200195312 476.099609375 73.599609375 456.549804688 50.599609375 c 0
 437 28.75 412.849609375 10.349609375 385.25 -2.2998046875 c 0
 357.650390625 -14.9501953125 328.900390625 -21.849609375 297.849609375 -21.849609375 c 0
 259.900390625 -21.849609375 226.549804688 -13.7998046875 196.650390625 4.599609375 c 1
 166.75 20.7001953125 141.450195312 46 121.900390625 77.0498046875 c 0
 101.200195312 108.099609375 85.099609375 146.049804688 74.75 188.599609375 c 0
 64.400390625 231.150390625 58.650390625 278.299804688 58.650390625 330.049804688 c 0
 58.650390625 392.150390625 64.400390625 448.5 78.2001953125 497.950195312 c 1
 89.7001953125 547.400390625 108.099609375 589.950195312 132.25 624.450195312 c 0
 156.400390625 658.950195312 184 685.400390625 216.200195312 703.799804688 c 0
 249.549804688 722.200195312 285.200195312 731.400390625 325.450195312 731.400390625 c 0
299 363.400390625 m 0
 278.299804688 363.400390625 257.599609375 356.5 239.200195312 345 c 0
 218.5 331.200195312 202.400390625 315.099609375 189.75 294.400390625 c 1
 189.75 273.700195312 l 2
 189.75 250.700195312 192.049804688 228.849609375 197.799804688 207 c 0
 203.549804688 185.150390625 210.450195312 166.75 220.799804688 150.650390625 c 0
 231.150390625 134.549804688 242.650390625 121.900390625 255.299804688 111.549804688 c 0
 269.099609375 101.200195312 284.049804688 96.599609375 300.150390625 96.599609375 c 0
 312.799804688 96.599609375 325.450195312 100.049804688 336.950195312 105.799804688 c 0
 348.450195312 111.549804688 358.799804688 120.75 366.849609375 131.099609375 c 0
 374.900390625 142.599609375 381.799804688 156.400390625 386.400390625 173.650390625 c 0
 392.150390625 190.900390625 394.450195312 210.450195312 394.450195312 232.299804688 c 0
 394.450195312 254.150390625 391 273.700195312 386.400390625 289.799804688 c 1
 379.5 307.049804688 372.599609375 320.849609375 363.400390625 331.200195312 c 0
 354.200195312 341.549804688 343.849609375 349.599609375 333.5 355.349609375 c 0
 322 361.099609375 310.5 363.400390625 299 363.400390625 c 0
EndSplineSet
Validated: 524289
EndChar

StartChar: seven
Encoding: 55 55 24
Width: 600
VWidth: 1150
GlyphClass: 2
Flags: W
HStem: 0 21G<131.1 287.5> 603.75 112.7<75.9004 351.9>
LayerCount: 2
Fore
SplineSet
507.150390625 650.900390625 m 1
 462.299804688 548.549804688 420.900390625 443.900390625 381.799804688 333.5 c 1
 341.549804688 225.400390625 304.75 113.849609375 270.25 0 c 1
 131.099609375 0 l 1
 164.450195312 102.349609375 200.099609375 203.549804688 236.900390625 304.75 c 0
 272.549804688 405.950195312 311.650390625 506 351.900390625 603.75 c 1
 75.900390625 603.75 l 1
 75.900390625 716.450195312 l 1
 507.150390625 716.450195312 l 1
 507.150390625 650.900390625 l 1
EndSplineSet
Validated: 524289
EndChar

StartChar: eight
Encoding: 56 56 25
Width: 600
VWidth: 1150
GlyphClass: 2
Flags: W
HStem: -21.8496 116.149<225.428 355.804> 622.15 112.699<233.821 347.929>
VStem: 48.2998 135.7<134.95 263.045> 81.6504 129.949<491.338 599.844> 373.75 129.95<481.775 597.026> 392.15 135.699<129.583 254.493>
LayerCount: 2
Fore
SplineSet
503.700195312 548.549804688 m 0xd8
 503.700195312 532.450195312 501.400390625 516.349609375 495.650390625 501.400390625 c 0
 489.900390625 486.450195312 483 471.5 473.799804688 457.700195312 c 0
 463.450195312 442.75 453.099609375 430.099609375 439.299804688 416.299804688 c 0
 427.799804688 404.799804688 414 393.299804688 399.049804688 384.099609375 c 1
 417.450195312 373.75 434.700195312 361.099609375 450.799804688 347.299804688 c 0
 466.900390625 333.5 480.700195312 318.549804688 492.200195312 301.299804688 c 0
 502.549804688 284.049804688 511.75 266.799804688 517.5 248.400390625 c 0
 524.400390625 228.849609375 527.849609375 209.299804688 527.849609375 189.75 c 0
 527.849609375 159.849609375 522.099609375 132.25 509.450195312 105.799804688 c 0
 496.799804688 80.5 480.700195312 58.650390625 457.700195312 39.099609375 c 1
 437 19.5498046875 410.549804688 4.599609375 381.799804688 -5.75 c 0
 353.049804688 -16.099609375 320.849609375 -21.849609375 287.5 -21.849609375 c 0
 254.150390625 -21.849609375 221.950195312 -16.099609375 193.200195312 -5.75 c 0
 163.299804688 4.599609375 138 19.5498046875 117.299804688 39.099609375 c 1
 95.4501953125 57.5 79.349609375 79.349609375 66.7001953125 104.650390625 c 0
 54.0498046875 129.950195312 48.2998046875 157.549804688 48.2998046875 186.299804688 c 0xe4
 48.2998046875 205.849609375 51.75 224.25 57.5 242.650390625 c 0
 64.400390625 261.049804688 73.599609375 278.299804688 85.099609375 295.549804688 c 0
 96.599609375 312.799804688 110.400390625 327.75 126.5 342.700195312 c 0
 142.599609375 357.650390625 161 370.299804688 180.549804688 380.650390625 c 1
 165.599609375 389.849609375 152.950195312 400.200195312 140.299804688 412.849609375 c 0
 128.799804688 425.5 118.450195312 438.150390625 110.400390625 451.950195312 c 0
 101.200195312 465.75 94.2998046875 480.700195312 89.7001953125 495.650390625 c 0
 83.9501953125 510.599609375 81.650390625 526.700195312 81.650390625 541.650390625 c 0
 81.650390625 568.099609375 87.400390625 592.25 98.900390625 616.400390625 c 0
 109.25 640.549804688 124.200195312 660.099609375 143.75 678.5 c 1
 163.299804688 694.599609375 185.150390625 708.400390625 211.599609375 719.900390625 c 1
 238.049804688 729.099609375 265.650390625 734.849609375 294.400390625 734.849609375 c 0
 324.299804688 734.849609375 351.900390625 730.25 377.200195312 719.900390625 c 0
 402.5 709.549804688 424.349609375 696.900390625 443.900390625 679.650390625 c 0
 462.299804688 662.400390625 477.25 642.849609375 487.599609375 621 c 0
 497.950195312 598 503.700195312 573.849609375 503.700195312 548.549804688 c 0xd8
392.150390625 190.900390625 m 0
 392.150390625 204.700195312 388.700195312 218.5 384.099609375 231.150390625 c 1
 377.200195312 243.799804688 370.299804688 256.450195312 359.950195312 267.950195312 c 0
 349.599609375 279.450195312 338.099609375 289.799804688 323.150390625 299 c 0
 308.200195312 308.200195312 292.099609375 316.25 274.849609375 323.150390625 c 1
 262.200195312 316.25 249.549804688 308.200195312 239.200195312 299 c 0
 227.700195312 289.799804688 218.5 279.450195312 209.299804688 269.099609375 c 1
 202.400390625 257.599609375 195.5 246.099609375 190.900390625 233.450195312 c 0
 186.299804688 220.799804688 184 208.150390625 184 194.349609375 c 0
 184 180.549804688 186.299804688 167.900390625 193.200195312 156.400390625 c 1
 197.799804688 143.75 205.849609375 133.400390625 216.200195312 124.200195312 c 0
 225.400390625 115 236.900390625 108.099609375 248.400390625 102.349609375 c 0
 262.200195312 96.599609375 274.849609375 94.2998046875 289.799804688 94.2998046875 c 0
 304.75 94.2998046875 318.549804688 96.599609375 331.200195312 101.200195312 c 0
 343.849609375 106.950195312 354.200195312 113.849609375 363.400390625 121.900390625 c 0
 372.599609375 131.099609375 379.5 141.450195312 384.099609375 152.950195312 c 0
 389.849609375 164.450195312 392.150390625 177.099609375 392.150390625 190.900390625 c 0
211.599609375 547.400390625 m 0xd8
 211.599609375 534.75 213.900390625 524.400390625 218.5 512.900390625 c 1
 224.25 503.700195312 231.150390625 493.349609375 239.200195312 484.150390625 c 0
 248.400390625 474.950195312 258.75 466.900390625 270.25 458.849609375 c 0
 281.75 450.799804688 293.25 443.900390625 305.900390625 437 c 1
 325.450195312 449.650390625 341.549804688 465.75 354.200195312 485.299804688 c 0
 366.849609375 504.849609375 373.75 524.400390625 373.75 545.099609375 c 0
 373.75 555.450195312 371.450195312 564.650390625 368 575 c 1
 363.400390625 584.200195312 357.650390625 592.25 349.599609375 599.150390625 c 0
 341.549804688 606.049804688 333.5 611.799804688 323.150390625 616.400390625 c 0
 312.799804688 619.849609375 302.450195312 622.150390625 290.950195312 622.150390625 c 0
 279.450195312 622.150390625 269.099609375 619.849609375 258.75 616.400390625 c 0
 248.400390625 612.950195312 240.349609375 607.200195312 233.450195312 600.299804688 c 0
 226.549804688 593.400390625 220.799804688 585.349609375 217.349609375 576.150390625 c 0
 213.900390625 566.950195312 211.599609375 557.75 211.599609375 547.400390625 c 0xd8
EndSplineSet
Validated: 524289
EndChar

StartChar: nine
Encoding: 57 57 26
Width: 600
VWidth: 1150
GlyphClass: 2
Flags: W
HStem: -21.8496 111.55<184.211 307.298> 232.3 113.851<215.824 335.053> 612.95 118.45<214.737 323.055>
VStem: 48.2998 127.65<389.708 568.993> 380.65 131.1<386.975 541.435>
LayerCount: 2
Fore
SplineSet
244.950195312 -21.849609375 m 0
 211.599609375 -21.849609375 180.549804688 -13.7998046875 149.5 0 c 1
 119.599609375 16.099609375 90.849609375 36.7998046875 64.400390625 63.25 c 1
 150.650390625 156.400390625 l 1
 154.099609375 155.25 157.549804688 154.099609375 159.849609375 151.799804688 c 0
 162.150390625 148.349609375 163.299804688 146.049804688 165.599609375 142.599609375 c 1
 165.599609375 139.150390625 167.900390625 135.700195312 167.900390625 132.25 c 1
 170.200195312 128.799804688 171.349609375 124.200195312 174.799804688 119.599609375 c 0
 182.849609375 111.549804688 193.200195312 103.5 204.700195312 98.900390625 c 0
 218.5 92 231.150390625 89.7001953125 244.950195312 89.7001953125 c 0
 258.75 89.7001953125 272.549804688 93.150390625 287.5 98.900390625 c 0
 302.450195312 105.799804688 315.099609375 117.299804688 328.900390625 132.25 c 1
 340.400390625 147.200195312 351.900390625 167.900390625 362.25 193.200195312 c 0
 372.599609375 218.5 379.5 249.549804688 382.950195312 286.349609375 c 1
 374.900390625 278.299804688 366.849609375 271.400390625 357.650390625 264.5 c 0
 348.450195312 258.75 338.099609375 253 328.900390625 248.400390625 c 0
 317.400390625 242.650390625 307.049804688 239.200195312 296.700195312 236.900390625 c 0
 286.349609375 233.450195312 274.849609375 232.299804688 264.5 232.299804688 c 0
 234.599609375 232.299804688 207 238.049804688 180.549804688 250.700195312 c 0
 154.099609375 262.200195312 131.099609375 278.299804688 111.549804688 301.299804688 c 1
 92 322 75.900390625 348.450195312 64.400390625 378.349609375 c 0
 54.0498046875 408.25 48.2998046875 441.599609375 48.2998046875 477.25 c 0
 48.2998046875 512.900390625 54.0498046875 547.400390625 66.7001953125 577.299804688 c 1
 78.2001953125 609.5 94.2998046875 635.950195312 113.849609375 657.799804688 c 0
 133.400390625 680.799804688 157.549804688 699.200195312 184 711.849609375 c 0
 211.599609375 724.5 241.5 731.400390625 272.549804688 731.400390625 c 0
 310.5 731.400390625 343.849609375 722.200195312 372.599609375 704.950195312 c 0
 402.5 687.700195312 427.799804688 662.400390625 448.5 632.5 c 1
 469.200195312 600.299804688 485.299804688 563.5 495.650390625 519.799804688 c 0
 506 477.25 511.75 430.099609375 511.75 379.5 c 0
 511.75 316.25 504.849609375 259.900390625 492.200195312 211.599609375 c 0
 479.549804688 161 461.150390625 119.599609375 437 85.099609375 c 0
 414 50.599609375 386.400390625 24.150390625 354.200195312 5.75 c 0
 320.849609375 -12.650390625 285.200195312 -21.849609375 244.950195312 -21.849609375 c 0
271.400390625 346.150390625 m 0
 292.099609375 346.150390625 312.799804688 351.900390625 331.200195312 365.700195312 c 1
 351.900390625 377.200195312 368 394.450195312 380.650390625 415.150390625 c 1
 380.650390625 435.849609375 l 2
 380.650390625 458.849609375 378.349609375 480.700195312 372.599609375 502.549804688 c 0
 366.849609375 524.400390625 359.950195312 542.799804688 349.599609375 558.900390625 c 0
 340.400390625 575 328.900390625 587.650390625 315.099609375 598 c 0
 301.299804688 608.349609375 286.349609375 612.950195312 270.25 612.950195312 c 0
 257.599609375 612.950195312 244.950195312 609.5 233.450195312 604.900390625 c 1
 221.950195312 598 211.599609375 589.950195312 203.549804688 578.450195312 c 0
 195.5 566.950195312 188.599609375 552 184 535.900390625 c 0
 178.25 517.5 175.950195312 499.099609375 175.950195312 477.25 c 0
 175.950195312 454.25 179.400390625 434.700195312 184 418.599609375 c 1
 190.900390625 401.349609375 197.799804688 387.549804688 207 377.200195312 c 0
 215.049804688 366.849609375 225.400390625 358.799804688 236.900390625 354.200195312 c 0
 248.400390625 348.450195312 259.900390625 346.150390625 271.400390625 346.150390625 c 0
EndSplineSet
Validated: 524289
EndChar

StartChar: colon
Encoding: 58 58 27
Width: 600
VWidth: 1150
GlyphClass: 2
Flags: W
HStem: -14.9502 156.4<210.444 326.597> 343.85 156.4<210.444 326.221>
VStem: 182.85 171.351<11.3686 113.544 371.66 472.903>
LayerCount: 2
Fore
SplineSet
267.950195312 500.25 m 0
 278.299804688 500.25 288.650390625 497.950195312 299 494.5 c 0
 309.349609375 491.049804688 318.549804688 485.299804688 326.599609375 478.400390625 c 0
 334.650390625 471.5 341.549804688 463.450195312 347.299804688 453.099609375 c 0
 351.900390625 443.900390625 354.200195312 433.549804688 354.200195312 422.049804688 c 0
 354.200195312 411.700195312 351.900390625 401.349609375 347.299804688 392.150390625 c 0
 342.700195312 382.950195312 335.799804688 374.900390625 328.900390625 368 c 0
 319.700195312 359.950195312 310.5 354.200195312 301.299804688 349.599609375 c 1
 289.799804688 346.150390625 279.450195312 343.849609375 267.950195312 343.849609375 c 0
 256.450195312 343.849609375 246.099609375 346.150390625 234.599609375 349.599609375 c 1
 225.400390625 354.200195312 216.200195312 359.950195312 208.150390625 368 c 0
 200.099609375 374.900390625 194.349609375 382.950195312 189.75 392.150390625 c 0
 185.150390625 401.349609375 182.849609375 411.700195312 182.849609375 422.049804688 c 0
 182.849609375 432.400390625 185.150390625 442.75 189.75 453.099609375 c 0
 194.349609375 462.299804688 200.099609375 470.349609375 208.150390625 477.25 c 0
 216.200195312 484.150390625 225.400390625 489.900390625 234.599609375 494.5 c 1
 246.099609375 497.950195312 256.450195312 500.25 267.950195312 500.25 c 0
267.950195312 141.450195312 m 0
 278.299804688 141.450195312 288.650390625 139.150390625 299 135.700195312 c 0
 309.349609375 132.25 318.549804688 126.5 326.599609375 119.599609375 c 0
 334.650390625 111.549804688 341.549804688 103.5 347.299804688 94.2998046875 c 1
 351.900390625 83.9501953125 354.200195312 73.599609375 354.200195312 62.099609375 c 0
 354.200195312 51.75 351.900390625 41.400390625 347.299804688 32.2001953125 c 0
 342.700195312 23 336.950195312 14.9501953125 328.900390625 8.0498046875 c 0
 320.849609375 1.150390625 312.799804688 -4.599609375 301.299804688 -9.2001953125 c 0
 292.099609375 -12.650390625 280.599609375 -14.9501953125 267.950195312 -14.9501953125 c 0
 255.299804688 -14.9501953125 243.799804688 -12.650390625 234.599609375 -9.2001953125 c 0
 223.099609375 -4.599609375 215.049804688 1.150390625 207 8.0498046875 c 0
 200.099609375 14.9501953125 194.349609375 23 189.75 32.2001953125 c 0
 185.150390625 41.400390625 182.849609375 51.75 182.849609375 62.099609375 c 0
 182.849609375 72.4501953125 185.150390625 82.7998046875 189.75 92 c 0
 194.349609375 102.349609375 200.099609375 110.400390625 208.150390625 117.299804688 c 0
 216.200195312 125.349609375 225.400390625 131.099609375 234.599609375 135.700195312 c 1
 246.099609375 139.150390625 256.450195312 141.450195312 267.950195312 141.450195312 c 0
EndSplineSet
Validated: 524289
EndChar

StartChar: semicolon
Encoding: 59 59 28
Width: 600
VWidth: 1150
GlyphClass: 2
Flags: W
HStem: -194.35 21G<205.347 250.125> 343.85 156.4<210.444 326.221>
VStem: 182.85 171.351<371.66 472.903> 238.05 125.351<-45.2076 42.5498>
LayerCount: 2
Fore
SplineSet
363.400390625 34.5 m 0xd0
 363.400390625 3.4501953125 351.900390625 -29.900390625 328.900390625 -67.849609375 c 0
 307.049804688 -105.799804688 272.549804688 -147.200195312 227.700195312 -194.349609375 c 1
 162.150390625 -135.700195312 l 1
 193.200195312 -104.650390625 l 2
 202.400390625 -94.2998046875 210.450195312 -83.9501953125 216.200195312 -73.599609375 c 0
 223.099609375 -63.25 228.849609375 -54.0498046875 232.299804688 -46 c 0
 235.75 -36.7998046875 238.049804688 -28.75 238.049804688 -23 c 0xd0
 238.049804688 -19.5498046875 236.900390625 -14.9501953125 232.299804688 -11.5 c 1
 230 -8.0498046875 225.400390625 -3.4501953125 220.799804688 0 c 0
 210.450195312 8.0498046875 202.400390625 17.25 194.349609375 26.4501953125 c 0
 186.299804688 35.650390625 182.849609375 47.150390625 182.849609375 59.7998046875 c 0xe0
 182.849609375 71.2998046875 185.150390625 81.650390625 188.599609375 92 c 1
 193.200195312 101.200195312 198.950195312 109.25 207 117.299804688 c 0
 213.900390625 124.200195312 223.099609375 129.950195312 232.299804688 133.400390625 c 0
 243.799804688 138 255.299804688 140.299804688 267.950195312 140.299804688 c 0
 280.599609375 140.299804688 292.099609375 138 303.599609375 132.25 c 0
 315.099609375 126.5 325.450195312 119.599609375 333.5 110.400390625 c 0
 342.700195312 101.200195312 349.599609375 89.7001953125 355.349609375 78.2001953125 c 0
 361.099609375 64.400390625 363.400390625 50.599609375 363.400390625 34.5 c 0xd0
267.950195312 500.25 m 0
 278.299804688 500.25 288.650390625 497.950195312 299 494.5 c 0
 309.349609375 491.049804688 318.549804688 485.299804688 326.599609375 478.400390625 c 0
 334.650390625 471.5 341.549804688 463.450195312 347.299804688 453.099609375 c 0
 351.900390625 443.900390625 354.200195312 433.549804688 354.200195312 422.049804688 c 0
 354.200195312 411.700195312 351.900390625 401.349609375 347.299804688 392.150390625 c 0
 342.700195312 382.950195312 335.799804688 374.900390625 328.900390625 368 c 0
 319.700195312 359.950195312 310.5 354.200195312 301.299804688 349.599609375 c 1
 289.799804688 346.150390625 279.450195312 343.849609375 267.950195312 343.849609375 c 0
 256.450195312 343.849609375 246.099609375 346.150390625 234.599609375 349.599609375 c 1
 225.400390625 354.200195312 216.200195312 359.950195312 208.150390625 368 c 0
 200.099609375 374.900390625 194.349609375 382.950195312 189.75 392.150390625 c 0
 185.150390625 401.349609375 182.849609375 411.700195312 182.849609375 422.049804688 c 0xe0
 182.849609375 432.400390625 185.150390625 442.75 189.75 453.099609375 c 0
 194.349609375 462.299804688 200.099609375 470.349609375 208.150390625 477.25 c 0
 216.200195312 484.150390625 225.400390625 489.900390625 234.599609375 494.5 c 1
 246.099609375 497.950195312 256.450195312 500.25 267.950195312 500.25 c 0
EndSplineSet
Validated: 524289
EndChar

StartChar: less
Encoding: 60 60 29
Width: 600
VWidth: 1150
GlyphClass: 2
Flags: W
LayerCount: 2
Fore
SplineSet
535.900390625 555.450195312 m 1
 177.099609375 371.450195312 l 1
 539.349609375 167.900390625 l 1
 539.349609375 44.849609375 l 1
 36.7998046875 339.25 l 1
 36.7998046875 405.950195312 l 1
 535.900390625 669.299804688 l 1
 535.900390625 555.450195312 l 1
EndSplineSet
Validated: 524289
EndChar

StartChar: equal
Encoding: 61 61 30
Width: 600
VWidth: 1150
GlyphClass: 2
Flags: W
HStem: 195.5 97.75<47.1504 533.6> 430.1 97.75<47.1504 533.6>
LayerCount: 2
Fore
SplineSet
47.150390625 527.849609375 m 1
 533.599609375 527.849609375 l 1
 533.599609375 430.099609375 l 1
 47.150390625 430.099609375 l 1
 47.150390625 527.849609375 l 1
47.150390625 293.25 m 1
 533.599609375 293.25 l 1
 533.599609375 195.5 l 1
 47.150390625 195.5 l 1
 47.150390625 293.25 l 1
EndSplineSet
Validated: 524289
EndChar

StartChar: greater
Encoding: 62 62 31
Width: 600
VWidth: 1150
GlyphClass: 2
Flags: W
LayerCount: 2
Fore
SplineSet
43.7001953125 555.450195312 m 1
 43.7001953125 669.299804688 l 1
 545.099609375 405.950195312 l 1
 545.099609375 339.25 l 1
 42.5498046875 44.849609375 l 1
 42.5498046875 167.900390625 l 1
 403.650390625 371.450195312 l 1
 43.7001953125 555.450195312 l 1
EndSplineSet
Validated: 524289
EndChar

StartChar: question
Encoding: 63 63 32
Width: 600
VWidth: 1150
GlyphClass: 2
Flags: W
HStem: -17.25 156.4<243.767 358.397> 670.45 102.35<227.48 349.407>
VStem: 216.2 171.35<9.06875 110.643> 242.65 113.85<212.75 360.04> 382.95 128.8<499.182 636.195>
LayerCount: 2
Fore
SplineSet
302.450195312 139.150390625 m 0xe0
 312.799804688 139.150390625 322 136.849609375 332.349609375 133.400390625 c 0
 342.700195312 128.799804688 351.900390625 123.049804688 359.950195312 116.150390625 c 0
 368 109.25 374.900390625 101.200195312 379.5 90.849609375 c 0
 385.25 80.5 387.549804688 70.150390625 387.549804688 59.7998046875 c 0
 387.549804688 49.4501953125 385.25 40.25 380.650390625 29.900390625 c 0
 376.049804688 20.7001953125 370.299804688 12.650390625 362.25 5.75 c 0
 354.200195312 -1.150390625 345 -6.900390625 335.799804688 -11.5 c 1
 324.299804688 -14.9501953125 313.950195312 -17.25 302.450195312 -17.25 c 0
 289.799804688 -17.25 278.299804688 -14.9501953125 269.099609375 -11.5 c 0
 257.599609375 -6.900390625 249.549804688 -1.150390625 241.5 5.75 c 0
 233.450195312 12.650390625 227.700195312 20.7001953125 223.099609375 29.900390625 c 0
 218.5 40.25 216.200195312 49.4501953125 216.200195312 59.7998046875 c 0
 216.200195312 70.150390625 218.5 80.5 223.099609375 89.7001953125 c 0
 227.700195312 100.049804688 233.450195312 108.099609375 241.5 115 c 0
 249.549804688 123.049804688 257.599609375 128.799804688 269.099609375 133.400390625 c 0
 278.299804688 136.849609375 289.799804688 139.150390625 302.450195312 139.150390625 c 0xe0
63.25 640.549804688 m 1
 77.0498046875 660.099609375 92 678.5 109.25 694.599609375 c 0
 126.5 711.849609375 144.900390625 725.650390625 164.450195312 737.150390625 c 0
 184 748.650390625 205.849609375 757.849609375 227.700195312 763.599609375 c 0
 250.700195312 769.349609375 273.700195312 772.799804688 297.849609375 772.799804688 c 0
 331.200195312 772.799804688 361.099609375 767.049804688 386.400390625 756.700195312 c 0
 414 745.200195312 435.849609375 730.25 454.25 710.700195312 c 0
 472.650390625 691.150390625 486.450195312 669.299804688 496.799804688 644 c 0
 507.150390625 619.849609375 511.75 593.400390625 511.75 564.650390625 c 0
 511.75 542.799804688 508.299804688 524.400390625 503.700195312 506 c 1
 496.799804688 489.900390625 489.900390625 473.799804688 478.400390625 458.849609375 c 1
 469.200195312 443.900390625 456.549804688 430.099609375 441.599609375 416.299804688 c 0
 426.650390625 403.650390625 411.700195312 389.849609375 394.450195312 376.049804688 c 0
 386.400390625 369.150390625 379.5 362.25 373.75 354.200195312 c 0
 368 347.299804688 364.549804688 340.400390625 362.25 331.200195312 c 0
 359.950195312 324.299804688 358.799804688 315.099609375 357.650390625 305.900390625 c 0
 356.5 296.700195312 356.5 286.349609375 356.5 276 c 2
 356.5 212.75 l 1
 242.650390625 212.75 l 1
 242.650390625 276 l 2
 242.650390625 292.099609375 243.799804688 307.049804688 243.799804688 319.700195312 c 1
 246.099609375 332.349609375 248.400390625 346.150390625 253 358.799804688 c 0
 258.75 372.599609375 266.799804688 386.400390625 276 401.349609375 c 1
 287.5 416.299804688 301.299804688 432.400390625 320.849609375 450.799804688 c 0
 343.849609375 473.799804688 359.950195312 494.5 369.150390625 514.049804688 c 0
 378.349609375 533.599609375 382.950195312 552 382.950195312 570.400390625 c 0
 382.950195312 584.200195312 380.650390625 596.849609375 376.049804688 609.5 c 0
 371.450195312 622.150390625 365.700195312 632.5 356.5 641.700195312 c 0xd8
 349.599609375 649.75 339.25 656.650390625 328.900390625 662.400390625 c 0
 317.400390625 668.150390625 305.900390625 670.450195312 293.25 670.450195312 c 0
 278.299804688 670.450195312 264.5 668.150390625 253 662.400390625 c 0
 239.200195312 656.650390625 227.700195312 649.75 215.049804688 639.400390625 c 0
 202.400390625 629.049804688 190.900390625 617.549804688 180.549804688 604.900390625 c 0
 170.200195312 591.099609375 159.849609375 576.150390625 149.5 558.900390625 c 1
 63.25 640.549804688 l 1
EndSplineSet
Validated: 524289
EndChar

StartChar: at
Encoding: 64 64 33
Width: 600
VWidth: 1150
GlyphClass: 2
Flags: W
HStem: -16.0996 93.1494<259.882 432.804> 179.4 90.8496<315.276 409.016> 435.85 86.25<342.052 431.25> 644 90.8496<238.876 379.092>
VStem: 28.75 105.8<230.275 506.658> 187.45 110.399<288.788 398.066> 439.3 104.65<187.45 223.1 305.489 435.85>
LayerCount: 2
Fore
SplineSet
515.200195312 39.099609375 m 1
 487.599609375 18.400390625 460 4.599609375 431.25 -4.599609375 c 1
 402.5 -11.5 371.450195312 -16.099609375 338.099609375 -16.099609375 c 0
 295.549804688 -16.099609375 256.450195312 -8.0498046875 218.5 8.0498046875 c 0
 181.700195312 24.150390625 149.5 48.2998046875 120.75 80.5 c 0
 92 111.549804688 70.150390625 151.799804688 52.900390625 198.950195312 c 0
 36.7998046875 246.099609375 28.75 301.299804688 28.75 364.549804688 c 0
 28.75 427.799804688 36.7998046875 481.849609375 52.900390625 529 c 1
 70.150390625 575 92 612.950195312 118.450195312 644 c 0
 144.900390625 675.049804688 175.950195312 696.900390625 209.299804688 713 c 1
 242.650390625 726.799804688 277.150390625 734.849609375 312.799804688 734.849609375 c 0
 348.450195312 734.849609375 379.5 729.099609375 408.25 717.599609375 c 0
 437 704.950195312 461.150390625 686.549804688 480.700195312 662.400390625 c 0
 501.400390625 638.25 517.5 607.200195312 527.849609375 569.25 c 0
 538.200195312 531.299804688 543.950195312 487.599609375 543.950195312 435.849609375 c 2
 543.950195312 187.450195312 l 1
 439.299804688 187.450195312 l 1
 439.299804688 223.099609375 l 1
 428.950195312 210.450195312 416.299804688 200.099609375 399.049804688 192.049804688 c 0
 381.799804688 184 363.400390625 179.400390625 343.849609375 179.400390625 c 0
 322 179.400390625 301.299804688 184 282.900390625 190.900390625 c 1
 263.349609375 200.099609375 247.25 210.450195312 232.299804688 225.400390625 c 0
 218.5 239.200195312 207 255.299804688 200.099609375 274.849609375 c 1
 190.900390625 294.400390625 187.450195312 315.099609375 187.450195312 338.099609375 c 0
 187.450195312 366.849609375 192.049804688 392.150390625 202.400390625 414 c 1
 211.599609375 437 225.400390625 456.549804688 246.099609375 471.5 c 1
 264.5 487.599609375 289.799804688 500.25 320.849609375 508.299804688 c 0
 351.900390625 516.349609375 388.700195312 520.950195312 431.25 522.099609375 c 1
 430.099609375 539.349609375 425.5 556.599609375 418.599609375 571.549804688 c 0
 412.849609375 586.5 403.650390625 600.299804688 393.299804688 609.5 c 1
 382.950195312 621 370.299804688 629.049804688 356.5 634.799804688 c 0
 341.549804688 640.549804688 326.599609375 644 309.349609375 644 c 0
 287.5 644 266.799804688 638.25 246.099609375 626.75 c 0
 225.400390625 615.25 207 598 190.900390625 575 c 0
 173.650390625 552 161 523.25 149.5 487.599609375 c 1
 140.299804688 453.099609375 134.549804688 412.849609375 134.549804688 365.700195312 c 0
 134.549804688 319.700195312 140.299804688 278.299804688 151.799804688 242.650390625 c 0
 163.299804688 207 178.25 175.950195312 197.799804688 151.799804688 c 0
 217.349609375 127.650390625 239.200195312 108.099609375 264.5 96.599609375 c 1
 290.950195312 82.7998046875 317.400390625 77.0498046875 345 77.0498046875 c 0
 363.400390625 77.0498046875 382.950195312 80.5 404.799804688 87.400390625 c 0
 426.650390625 93.150390625 447.349609375 105.799804688 469.200195312 124.200195312 c 1
 515.200195312 39.099609375 l 1
435.849609375 435.849609375 m 1
 411.700195312 435.849609375 391 433.549804688 373.75 427.799804688 c 0
 356.5 422.049804688 341.549804688 416.299804688 331.200195312 407.099609375 c 1
 319.700195312 400.200195312 311.650390625 389.849609375 305.900390625 379.5 c 0
 300.150390625 369.150390625 297.849609375 357.650390625 297.849609375 346.150390625 c 0
 297.849609375 323.150390625 303.599609375 304.75 315.099609375 290.950195312 c 0
 325.450195312 277.150390625 340.400390625 270.25 357.650390625 270.25 c 0
 373.75 270.25 386.400390625 273.700195312 395.599609375 280.599609375 c 1
 405.950195312 286.349609375 414 296.700195312 419.75 310.5 c 0
 425.5 324.299804688 430.099609375 341.549804688 432.400390625 362.25 c 0
 434.700195312 382.950195312 435.849609375 407.099609375 435.849609375 435.849609375 c 1
EndSplineSet
Validated: 524289
EndChar

StartChar: A
Encoding: 65 65 34
Width: 600
VWidth: 1150
GlyphClass: 2
Flags: W
HStem: 0 21G<0 138.337 434.519 576.15> 185.15 89.6992<208.15 353.05> 709.1 20G<232.639 321.143>
LayerCount: 2
Fore
SplineSet
0 0 m 1
 239.200195312 729.099609375 l 1
 313.950195312 729.099609375 l 1
 576.150390625 0 l 1
 441.599609375 0 l 1
 376.049804688 185.150390625 l 1
 188.599609375 185.150390625 l 1
 132.25 0 l 1
 0 0 l 1
353.049804688 274.849609375 m 1
 278.299804688 512.900390625 l 1
 208.150390625 274.849609375 l 1
 353.049804688 274.849609375 l 1
EndSplineSet
Validated: 524289
EndChar

StartChar: B
Encoding: 66 66 35
Width: 600
VWidth: 1150
GlyphClass: 2
Flags: W
HStem: 0 109.25<174.8 371.436> 332.35 104.65<174.8 349.559> 609.5 106.95<174.8 349.639>
VStem: 46 128.8<109.25 332.35 437 609.5> 384.1 129.95<469.054 576.863> 407.1 134.551<144.2 285.509>
LayerCount: 2
Fore
SplineSet
46 716.450195312 m 1xf4
 263.349609375 716.450195312 l 2
 307.049804688 716.450195312 345 711.849609375 376.049804688 703.799804688 c 0
 407.099609375 694.599609375 433.549804688 681.950195312 453.099609375 664.700195312 c 1
 473.799804688 648.599609375 488.75 629.049804688 499.099609375 607.200195312 c 0
 509.450195312 584.200195312 514.049804688 558.900390625 514.049804688 531.299804688 c 0xf8
 514.049804688 516.349609375 511.75 502.549804688 508.299804688 487.599609375 c 0
 504.849609375 473.799804688 499.099609375 460 491.049804688 448.5 c 1
 483 434.700195312 473.799804688 423.200195312 463.450195312 411.700195312 c 0
 453.099609375 401.349609375 440.450195312 392.150390625 426.650390625 384.099609375 c 1
 443.900390625 376.049804688 458.849609375 365.700195312 473.799804688 354.200195312 c 1
 487.599609375 340.400390625 499.099609375 326.599609375 509.450195312 310.5 c 0
 519.799804688 295.549804688 526.700195312 279.450195312 533.599609375 262.200195312 c 1
 538.200195312 244.950195312 541.650390625 227.700195312 541.650390625 210.450195312 c 0
 541.650390625 179.400390625 535.900390625 150.650390625 524.400390625 124.200195312 c 0
 514.049804688 97.75 496.799804688 75.900390625 473.799804688 57.5 c 0
 450.799804688 39.099609375 422.049804688 25.2998046875 386.400390625 14.9501953125 c 0
 351.900390625 4.599609375 310.5 0 262.200195312 0 c 2
 46 0 l 1
 46 716.450195312 l 1xf4
174.799804688 609.5 m 1
 174.799804688 437 l 1
 253 437 l 2
 277.150390625 437 297.849609375 439.299804688 315.099609375 443.900390625 c 0
 331.200195312 448.5 345 454.25 354.200195312 462.299804688 c 1
 365.700195312 470.349609375 372.599609375 479.549804688 377.200195312 489.900390625 c 0
 381.799804688 500.25 384.099609375 511.75 384.099609375 524.400390625 c 0
 384.099609375 535.900390625 381.799804688 547.400390625 377.200195312 556.599609375 c 0
 371.450195312 568.099609375 364.549804688 576.150390625 354.200195312 584.200195312 c 0
 345 592.25 332.349609375 598 317.400390625 602.599609375 c 0
 302.450195312 607.200195312 284.049804688 609.5 264.5 609.5 c 2
 174.799804688 609.5 l 1
174.799804688 332.349609375 m 1
 174.799804688 109.25 l 1
 274.849609375 109.25 l 2
 294.400390625 109.25 312.799804688 110.400390625 328.900390625 115 c 1
 346.150390625 117.299804688 359.950195312 124.200195312 371.450195312 131.099609375 c 1
 382.950195312 140.299804688 392.150390625 150.650390625 397.900390625 163.299804688 c 0
 403.650390625 177.099609375 407.099609375 194.349609375 407.099609375 213.900390625 c 0xf4
 407.099609375 231.150390625 404.799804688 246.099609375 399.049804688 261.049804688 c 0
 393.299804688 276 385.25 287.5 372.599609375 299 c 0
 361.099609375 308.200195312 346.150390625 317.400390625 326.599609375 323.150390625 c 0
 307.049804688 328.900390625 284.049804688 332.349609375 256.450195312 332.349609375 c 2
 174.799804688 332.349609375 l 1
EndSplineSet
Validated: 524289
EndChar

StartChar: C
Encoding: 67 67 36
Width: 600
VWidth: 1150
GlyphClass: 2
Flags: W
HStem: -20.7002 108.101<259.13 392.874> 630.2 104.649<251.9 388.579>
VStem: 33.3496 133.4<215.829 510.504>
LayerCount: 2
Fore
SplineSet
443.900390625 514.049804688 m 1
 440.450195312 515.200195312 439.299804688 516.349609375 437 518.650390625 c 1
 437 520.950195312 435.849609375 523.25 434.700195312 526.700195312 c 1
 434.700195312 538.200195312 l 1
 433.549804688 541.650390625 432.400390625 546.25 431.25 550.849609375 c 0
 420.900390625 575 405.950195312 594.549804688 387.549804688 609.5 c 0
 369.150390625 623.299804688 346.150390625 630.200195312 317.400390625 630.200195312 c 0
 294.400390625 630.200195312 273.700195312 623.299804688 255.299804688 610.650390625 c 0
 236.900390625 598 220.799804688 579.599609375 208.150390625 556.599609375 c 0
 195.5 532.450195312 185.150390625 503.700195312 177.099609375 471.5 c 1
 170.200195312 437 166.75 400.200195312 166.75 359.950195312 c 0
 166.75 320.849609375 170.200195312 285.200195312 178.25 250.700195312 c 0
 186.299804688 218.5 196.650390625 188.599609375 210.450195312 165.599609375 c 0
 224.25 140.299804688 241.5 121.900390625 259.900390625 108.099609375 c 1
 280.599609375 94.2998046875 301.299804688 87.400390625 324.299804688 87.400390625 c 0
 351.900390625 87.400390625 376.049804688 96.599609375 397.900390625 112.700195312 c 1
 418.599609375 131.099609375 437 154.099609375 454.25 182.849609375 c 1
 552 119.599609375 l 1
 525.549804688 72.4501953125 492.200195312 37.9501953125 453.099609375 13.7998046875 c 0
 415.150390625 -9.2001953125 372.599609375 -20.7001953125 327.75 -20.7001953125 c 0
 285.200195312 -20.7001953125 246.099609375 -13.7998046875 210.450195312 2.2998046875 c 1
 174.799804688 16.099609375 142.599609375 40.25 117.299804688 71.2998046875 c 1
 89.7001953125 102.349609375 70.150390625 141.450195312 55.2001953125 188.599609375 c 0
 40.25 235.75 33.349609375 290.950195312 33.349609375 354.200195312 c 0
 33.349609375 401.349609375 36.7998046875 442.75 46 480.700195312 c 1
 52.900390625 517.5 64.400390625 549.700195312 78.2001953125 578.450195312 c 0
 92 607.200195312 108.099609375 630.200195312 126.5 650.900390625 c 1
 146.049804688 669.299804688 165.599609375 685.400390625 186.299804688 699.200195312 c 1
 208.150390625 710.700195312 230 719.900390625 253 726.799804688 c 1
 274.849609375 731.400390625 296.700195312 734.849609375 318.549804688 734.849609375 c 0
 345 734.849609375 371.450195312 731.400390625 395.599609375 723.349609375 c 0
 419.75 715.299804688 442.75 704.950195312 464.599609375 690 c 0
 485.299804688 675.049804688 503.700195312 657.799804688 519.799804688 638.25 c 0
 535.900390625 618.700195312 549.700195312 595.700195312 560.049804688 571.549804688 c 1
 443.900390625 514.049804688 l 1
EndSplineSet
Validated: 524289
EndChar

StartChar: D
Encoding: 68 68 37
Width: 600
VWidth: 1150
GlyphClass: 2
Flags: W
HStem: 0 101.2<175.95 318.1> 609.5 106.95<175.95 323.228>
VStem: 50.5996 125.351<101.2 609.5> 418.6 128.801<214.388 497.252>
LayerCount: 2
Fore
SplineSet
50.599609375 716.450195312 m 1
 235.75 716.450195312 l 2
 267.950195312 716.450195312 296.700195312 714.150390625 319.700195312 709.549804688 c 0
 345 704.950195312 365.700195312 698.049804688 384.099609375 690 c 0
 403.650390625 681.950195312 419.75 671.599609375 434.700195312 658.950195312 c 0
 448.5 646.299804688 461.150390625 632.5 473.799804688 616.400390625 c 0
 497.950195312 583.049804688 516.349609375 545.099609375 529 501.400390625 c 0
 541.650390625 456.549804688 547.400390625 407.099609375 547.400390625 353.049804688 c 0
 547.400390625 299 541.650390625 249.549804688 529 207 c 0
 516.349609375 163.299804688 496.799804688 126.5 471.5 95.4501953125 c 1
 443.900390625 64.400390625 410.549804688 41.400390625 370.299804688 25.2998046875 c 0
 328.900390625 8.0498046875 279.450195312 0 221.950195312 0 c 2
 50.599609375 0 l 1
 50.599609375 716.450195312 l 1
175.950195312 609.5 m 1
 175.950195312 101.200195312 l 1
 219.650390625 101.200195312 l 2
 287.5 101.200195312 336.950195312 123.049804688 370.299804688 165.599609375 c 0
 402.5 208.150390625 418.599609375 270.25 418.599609375 349.599609375 c 0
 418.599609375 389.849609375 415.150390625 426.650390625 408.25 457.700195312 c 0
 401.349609375 489.900390625 389.849609375 517.5 374.900390625 540.5 c 0
 359.950195312 562.349609375 340.400390625 579.599609375 317.400390625 591.099609375 c 0
 293.25 603.75 264.5 609.5 231.150390625 609.5 c 2
 175.950195312 609.5 l 1
EndSplineSet
Validated: 524289
EndChar

StartChar: E
Encoding: 69 69 38
Width: 600
VWidth: 1150
GlyphClass: 2
Flags: W
HStem: 0 110.4<189.75 529> 316.25 112.7<189.75 472.65> 606.05 110.4<189.75 531.3>
VStem: 64.4004 125.35<110.4 316.25 428.95 606.05>
LayerCount: 2
Fore
SplineSet
64.400390625 716.450195312 m 1
 531.299804688 716.450195312 l 1
 531.299804688 606.049804688 l 1
 189.75 606.049804688 l 1
 189.75 428.950195312 l 1
 472.650390625 428.950195312 l 1
 472.650390625 316.25 l 1
 189.75 316.25 l 1
 189.75 110.400390625 l 1
 529 110.400390625 l 1
 529 0 l 1
 64.400390625 0 l 1
 64.400390625 716.450195312 l 1
EndSplineSet
Validated: 524289
EndChar

StartChar: F
Encoding: 70 70 39
Width: 600
VWidth: 1150
GlyphClass: 2
Flags: W
HStem: 0 21G<78.2002 207> 331.2 108.1<207 462.3> 607.2 109.25<207 523.25>
VStem: 78.2002 128.8<0 331.2 439.3 607.2>
LayerCount: 2
Fore
SplineSet
78.2001953125 716.450195312 m 1
 523.25 716.450195312 l 1
 523.25 607.200195312 l 1
 207 607.200195312 l 1
 207 439.299804688 l 1
 462.299804688 439.299804688 l 1
 462.299804688 331.200195312 l 1
 207 331.200195312 l 1
 207 0 l 1
 78.2001953125 0 l 1
 78.2001953125 716.450195312 l 1
EndSplineSet
Validated: 524289
EndChar

StartChar: G
Encoding: 71 71 40
Width: 600
VWidth: 1150
GlyphClass: 2
Flags: W
HStem: -20.7002 109.25<243.375 400.829> 253 109.25<290.95 412.85> 625.6 109.25<237.483 375.374>
VStem: 18.4004 133.399<213.342 511.977> 412.85 121.9<104.942 253>
LayerCount: 2
Fore
SplineSet
456.549804688 512.900390625 m 1
 449.650390625 516.349609375 443.900390625 518.650390625 439.299804688 522.099609375 c 0
 435.849609375 524.400390625 432.400390625 526.700195312 430.099609375 530.150390625 c 0
 428.950195312 533.599609375 426.650390625 535.900390625 425.5 539.349609375 c 2
 420.900390625 548.549804688 l 2
 416.299804688 558.900390625 410.549804688 569.25 402.5 578.450195312 c 0
 394.450195312 587.650390625 386.400390625 595.700195312 377.200195312 602.599609375 c 0
 366.849609375 609.5 356.5 615.25 345 618.700195312 c 0
 333.5 623.299804688 320.849609375 625.599609375 308.200195312 625.599609375 c 0
 288.650390625 625.599609375 270.25 621 250.700195312 611.799804688 c 0
 232.299804688 602.599609375 216.200195312 587.650390625 201.25 566.950195312 c 0
 186.299804688 546.25 174.799804688 519.799804688 165.599609375 487.599609375 c 0
 156.400390625 454.25 151.799804688 414 151.799804688 366.849609375 c 0
 151.799804688 323.150390625 155.25 284.049804688 163.299804688 249.549804688 c 0
 171.349609375 215.049804688 181.700195312 186.299804688 195.5 162.150390625 c 0
 210.450195312 138 227.700195312 119.599609375 246.099609375 108.099609375 c 0
 266.799804688 94.2998046875 287.5 88.5498046875 310.5 88.5498046875 c 0
 327.75 88.5498046875 345 90.849609375 363.400390625 94.2998046875 c 1
 380.650390625 98.900390625 397.900390625 106.950195312 412.849609375 118.450195312 c 1
 412.849609375 253 l 1
 290.950195312 253 l 1
 290.950195312 362.25 l 1
 534.75 362.25 l 1
 534.75 60.9501953125 l 1
 500.25 32.2001953125 464.599609375 11.5 427.799804688 -2.2998046875 c 1
 392.150390625 -13.7998046875 353.049804688 -20.7001953125 310.5 -20.7001953125 c 0
 263.349609375 -20.7001953125 221.950195312 -11.5 186.299804688 6.900390625 c 0
 149.5 25.2998046875 118.450195312 51.75 94.2998046875 85.099609375 c 0
 70.150390625 118.450195312 50.599609375 158.700195312 37.9501953125 204.700195312 c 0
 25.2998046875 251.849609375 18.400390625 302.450195312 18.400390625 358.799804688 c 0
 18.400390625 408.25 23 453.099609375 32.2001953125 491.049804688 c 0
 42.5498046875 529 55.2001953125 562.349609375 71.2998046875 591.099609375 c 0
 86.25 618.700195312 104.650390625 641.700195312 124.200195312 660.099609375 c 0
 144.900390625 678.5 165.599609375 693.450195312 187.450195312 703.799804688 c 0
 209.299804688 715.299804688 230 723.349609375 251.849609375 727.950195312 c 0
 273.700195312 732.549804688 293.25 734.849609375 310.5 734.849609375 c 0
 334.650390625 734.849609375 358.799804688 731.400390625 380.650390625 724.5 c 0
 402.5 718.75 423.200195312 708.400390625 443.900390625 696.900390625 c 1
 462.299804688 683.099609375 480.700195312 669.299804688 496.799804688 650.900390625 c 0
 511.75 634.799804688 525.549804688 615.25 537.049804688 594.549804688 c 1
 456.549804688 512.900390625 l 1
EndSplineSet
Validated: 524289
EndChar

StartChar: H
Encoding: 72 72 41
Width: 600
VWidth: 1150
GlyphClass: 2
Flags: W
HStem: 0 21G<49.4502 181.7 393.3 525.55> 320.85 106.95<181.7 393.3>
VStem: 49.4502 132.25<0 320.85 427.8 710.645> 393.3 132.25<0 320.85 427.8 706.045>
LayerCount: 2
Fore
SplineSet
525.549804688 0 m 1
 393.299804688 0 l 1
 393.299804688 320.849609375 l 1
 181.700195312 320.849609375 l 1
 181.700195312 0 l 1
 49.4501953125 0 l 1
 49.4501953125 716.450195312 l 1
 189.75 716.450195312 l 1
 190.900390625 715.299804688 192.049804688 713 192.049804688 710.700195312 c 0
 192.049804688 709.549804688 192.049804688 707.25 190.900390625 706.099609375 c 0
 189.75 704.950195312 188.599609375 702.650390625 188.599609375 699.200195312 c 1
 186.299804688 696.900390625 186.299804688 693.450195312 184 690 c 1
 184 686.549804688 182.849609375 681.950195312 181.700195312 676.200195312 c 1
 181.700195312 427.799804688 l 1
 393.299804688 427.799804688 l 1
 393.299804688 716.450195312 l 1
 533.599609375 716.450195312 l 1
 534.75 715.299804688 535.900390625 713 535.900390625 710.700195312 c 0
 535.900390625 709.549804688 535.900390625 707.25 533.599609375 706.099609375 c 0
 533.599609375 704.950195312 531.299804688 702.650390625 531.299804688 699.200195312 c 1
 529 696.900390625 529 693.450195312 527.849609375 690 c 0
 526.700195312 686.549804688 526.700195312 681.950195312 525.549804688 676.200195312 c 1
 525.549804688 0 l 1
EndSplineSet
Validated: 524289
EndChar

StartChar: I
Encoding: 73 73 42
Width: 600
VWidth: 1150
GlyphClass: 2
Flags: W
HStem: 0 105.8<83.9502 223.1 351.9 496.8> 609.5 106.95<90.8496 223.1 351.9 491.05>
VStem: 223.1 128.801<106.95 609.5>
LayerCount: 2
Fore
SplineSet
90.849609375 716.450195312 m 1
 491.049804688 716.450195312 l 1
 491.049804688 609.5 l 1
 351.900390625 609.5 l 1
 351.900390625 105.799804688 l 1
 496.799804688 105.799804688 l 1
 496.799804688 0 l 1
 83.9501953125 0 l 1
 83.9501953125 106.950195312 l 1
 223.099609375 106.950195312 l 1
 223.099609375 609.5 l 1
 90.849609375 609.5 l 1
 90.849609375 716.450195312 l 1
EndSplineSet
Validated: 524289
EndChar

StartChar: J
Encoding: 74 74 43
Width: 600
VWidth: 1150
GlyphClass: 2
Flags: W
HStem: -19.5498 110.399<155.363 267.031> 609.5 106.95<163.3 296.7 425.5 533.6>
VStem: 296.7 128.8<123.334 609.5>
LayerCount: 2
Fore
SplineSet
163.299804688 716.450195312 m 1
 533.599609375 716.450195312 l 1
 533.599609375 609.5 l 1
 425.5 609.5 l 1
 425.5 231.150390625 l 2
 425.5 187.450195312 419.75 149.5 409.400390625 118.450195312 c 0
 399.049804688 87.400390625 384.099609375 60.9501953125 365.700195312 40.25 c 0
 346.150390625 19.5498046875 324.299804688 4.599609375 300.150390625 -4.599609375 c 0
 276 -14.9501953125 249.549804688 -19.5498046875 220.799804688 -19.5498046875 c 0
 182.849609375 -19.5498046875 147.200195312 -11.5 115 5.75 c 0
 81.650390625 23 52.900390625 47.150390625 28.75 80.5 c 1
 110.400390625 179.400390625 l 1
 113.849609375 178.25 117.299804688 177.099609375 119.599609375 173.650390625 c 0
 120.75 170.200195312 123.049804688 166.75 124.200195312 163.299804688 c 0
 125.349609375 159.849609375 127.650390625 155.25 128.799804688 150.650390625 c 0
 131.099609375 146.049804688 133.400390625 141.450195312 135.700195312 135.700195312 c 1
 149.5 118.450195312 l 2
 154.099609375 112.700195312 159.849609375 108.099609375 165.599609375 103.5 c 0
 171.349609375 100.049804688 179.400390625 96.599609375 186.299804688 94.2998046875 c 0
 195.5 92 204.700195312 90.849609375 215.049804688 90.849609375 c 0
 243.799804688 90.849609375 264.5 103.5 277.150390625 126.5 c 0
 289.799804688 151.799804688 296.700195312 190.900390625 296.700195312 246.099609375 c 2
 296.700195312 609.5 l 1
 163.299804688 609.5 l 1
 163.299804688 716.450195312 l 1
EndSplineSet
Validated: 524289
EndChar

StartChar: K
Encoding: 75 75 44
Width: 600
VWidth: 1150
GlyphClass: 2
Flags: W
HStem: 0 21G<49.4502 181.7 412.697 581.9> 705.65 20G<408.264 431.825>
VStem: 49.4502 132.25<0 293.25 442.75 710.645>
LayerCount: 2
Fore
SplineSet
181.700195312 0 m 1
 49.4501953125 0 l 1
 49.4501953125 716.450195312 l 1
 189.75 716.450195312 l 1
 190.900390625 715.299804688 192.049804688 713 192.049804688 710.700195312 c 0
 192.049804688 709.549804688 192.049804688 707.25 190.900390625 706.099609375 c 0
 189.75 704.950195312 188.599609375 702.650390625 188.599609375 699.200195312 c 1
 186.299804688 696.900390625 186.299804688 693.450195312 184 690 c 1
 184 686.549804688 182.849609375 681.950195312 181.700195312 676.200195312 c 1
 181.700195312 442.75 l 1
 425.5 725.650390625 l 1
 438.150390625 722.200195312 450.799804688 719.900390625 462.299804688 718.75 c 0
 473.799804688 717.599609375 484.150390625 716.450195312 492.200195312 716.450195312 c 2
 571.549804688 716.450195312 l 1
 304.75 411.700195312 l 1
 581.900390625 1.150390625 l 1
 425.5 -5.75 l 1
 212.75 326.599609375 l 1
 181.700195312 293.25 l 1
 181.700195312 0 l 1
EndSplineSet
Validated: 524289
EndChar

StartChar: L
Encoding: 76 76 45
Width: 600
VWidth: 1150
GlyphClass: 2
Flags: W
HStem: 0 108.1<202.4 527.85>
VStem: 70.1504 142.6<409.903 716.395> 70.1504 132.25<108.1 710.538>
LayerCount: 2
Fore
SplineSet
527.849609375 108.099609375 m 1xa0
 527.849609375 0 l 1
 70.150390625 0 l 1
 70.150390625 716.450195312 l 1xa0
 210.450195312 716.450195312 l 1
 211.599609375 715.299804688 212.75 713 212.75 710.700195312 c 0xc0
 212.75 707.25 211.599609375 703.799804688 209.299804688 699.200195312 c 1
 205.849609375 695.75 203.549804688 687.700195312 202.400390625 676.200195312 c 1
 202.400390625 108.099609375 l 1
 527.849609375 108.099609375 l 1xa0
EndSplineSet
Validated: 524289
EndChar

StartChar: M
Encoding: 77 77 46
Width: 600
VWidth: 1150
GlyphClass: 2
Flags: W
HStem: 0 21G<34.5 149.5 431.25 547.4>
VStem: 34.5 115<0 519.8> 431.25 116.15<0 519.8>
LayerCount: 2
Fore
SplineSet
34.5 716.450195312 m 1
 170.200195312 716.450195312 l 1
 290.950195312 379.5 l 1
 410.549804688 717.599609375 l 1
 547.400390625 717.599609375 l 1
 547.400390625 0 l 1
 431.25 0 l 1
 431.25 519.799804688 l 1
 331.200195312 249.549804688 l 1
 246.099609375 249.549804688 l 1
 149.5 519.799804688 l 1
 149.5 0 l 1
 34.5 0 l 1
 34.5 716.450195312 l 1
EndSplineSet
Validated: 524289
EndChar

StartChar: N
Encoding: 78 78 47
Width: 600
VWidth: 1150
GlyphClass: 2
Flags: W
HStem: 0 21G<36.7998 152.95 386.64 538.2>
VStem: 36.7998 116.15<0 541.65> 422.05 126.5<422.625 716.395> 422.05 116.15<203.55 710.538>
LayerCount: 2
Fore
SplineSet
538.200195312 0 m 1xd0
 395.599609375 0 l 1
 152.950195312 541.650390625 l 1
 152.950195312 0 l 1
 36.7998046875 0 l 1
 36.7998046875 716.450195312 l 1
 194.349609375 716.450195312 l 1
 422.049804688 203.549804688 l 1
 422.049804688 716.450195312 l 1xd0
 546.25 716.450195312 l 1
 547.400390625 715.299804688 548.549804688 713 548.549804688 710.700195312 c 0xe0
 548.549804688 707.25 547.400390625 703.799804688 545.099609375 699.200195312 c 1
 541.650390625 695.75 539.349609375 687.700195312 538.200195312 676.200195312 c 1
 538.200195312 0 l 1xd0
EndSplineSet
Validated: 524289
EndChar

StartChar: O
Encoding: 79 79 48
Width: 600
VWidth: 1150
GlyphClass: 2
Flags: W
HStem: -20.7002 117.3<228.497 353.093> 619.85 115<223.428 348.99>
VStem: 19.5498 133.4<203.893 520.562> 420.9 134.55<194.683 517.853>
LayerCount: 2
Fore
SplineSet
288.650390625 -20.7001953125 m 0
 246.099609375 -20.7001953125 209.299804688 -11.5 174.799804688 6.900390625 c 1
 142.599609375 26.4501953125 113.849609375 52.900390625 90.849609375 87.400390625 c 0
 67.849609375 120.75 50.599609375 161 37.9501953125 207 c 0
 25.2998046875 254.150390625 19.5498046875 304.75 19.5498046875 359.950195312 c 0
 19.5498046875 415.150390625 25.2998046875 465.75 39.099609375 511.75 c 1
 50.599609375 557.75 69 596.849609375 92 630.200195312 c 0
 116.150390625 663.549804688 144.900390625 688.849609375 177.099609375 707.25 c 0
 211.599609375 725.650390625 248.400390625 734.849609375 289.799804688 734.849609375 c 0
 325.450195312 734.849609375 359.950195312 726.799804688 392.150390625 711.849609375 c 0
 424.349609375 696.900390625 453.099609375 673.900390625 476.099609375 641.700195312 c 1
 501.400390625 611.799804688 519.799804688 572.700195312 533.599609375 524.400390625 c 1
 548.549804688 478.400390625 555.450195312 422.049804688 555.450195312 358.799804688 c 0
 555.450195312 312.799804688 552 271.400390625 545.099609375 234.599609375 c 0
 537.049804688 197.799804688 527.849609375 165.599609375 515.200195312 138 c 0
 502.549804688 109.25 488.75 85.099609375 471.5 65.5498046875 c 0
 454.25 46 435.849609375 29.900390625 416.299804688 16.099609375 c 1
 396.75 4.599609375 376.049804688 -5.75 354.200195312 -11.5 c 0
 332.349609375 -17.25 310.5 -20.7001953125 288.650390625 -20.7001953125 c 0
152.950195312 366.849609375 m 0
 152.950195312 323.150390625 156.400390625 284.049804688 163.299804688 250.700195312 c 0
 169.049804688 217.349609375 178.25 188.599609375 190.900390625 165.599609375 c 0
 203.549804688 142.599609375 217.349609375 125.349609375 234.599609375 113.849609375 c 0
 251.849609375 102.349609375 270.25 96.599609375 289.799804688 96.599609375 c 0
 307.049804688 96.599609375 323.150390625 101.200195312 339.25 109.25 c 0
 355.349609375 117.299804688 369.150390625 132.25 381.799804688 152.950195312 c 0
 393.299804688 173.650390625 402.5 201.25 409.400390625 234.599609375 c 0
 417.450195312 269.099609375 420.900390625 311.650390625 420.900390625 361.099609375 c 0
 420.900390625 408.25 417.450195312 448.5 409.400390625 481.849609375 c 0
 401.349609375 515.200195312 391 541.650390625 379.5 562.349609375 c 1
 365.700195312 583.049804688 351.900390625 598 336.950195312 607.200195312 c 0
 322 615.25 305.900390625 619.849609375 290.950195312 619.849609375 c 0
 272.549804688 619.849609375 255.299804688 616.400390625 239.200195312 607.200195312 c 1
 221.950195312 600.299804688 207 586.5 194.349609375 565.799804688 c 1
 181.700195312 547.400390625 171.349609375 520.950195312 163.299804688 487.599609375 c 0
 156.400390625 455.400390625 152.950195312 415.150390625 152.950195312 366.849609375 c 0
EndSplineSet
Validated: 524289
EndChar

StartChar: P
Encoding: 80 80 49
Width: 600
VWidth: 1150
GlyphClass: 2
Flags: W
HStem: 0 21G<57.5 188.6> 289.8 109.25<188.6 375.11> 602.6 113.851<188.6 371.271>
VStem: 57.5 131.1<0 289.8 399.05 602.6> 409.4 132.25<432.247 565.885>
LayerCount: 2
Fore
SplineSet
57.5 716.450195312 m 1
 300.150390625 716.450195312 l 2
 342.700195312 716.450195312 379.5 710.700195312 409.400390625 699.200195312 c 0
 440.450195312 687.700195312 464.599609375 671.599609375 485.299804688 653.200195312 c 1
 503.700195312 632.5 518.650390625 610.650390625 527.849609375 584.200195312 c 0
 537.049804688 557.75 541.650390625 530.150390625 541.650390625 501.400390625 c 0
 541.650390625 472.650390625 537.049804688 445.049804688 529 418.599609375 c 1
 519.799804688 393.299804688 506 371.450195312 486.450195312 351.900390625 c 0
 466.900390625 332.349609375 442.75 317.400390625 412.849609375 305.900390625 c 0
 382.950195312 295.549804688 347.299804688 289.799804688 305.900390625 289.799804688 c 2
 188.599609375 289.799804688 l 1
 188.599609375 0 l 1
 57.5 0 l 1
 57.5 716.450195312 l 1
188.599609375 602.599609375 m 1
 188.599609375 399.049804688 l 1
 296.700195312 399.049804688 l 2
 316.25 399.049804688 333.5 401.349609375 347.299804688 407.099609375 c 1
 362.25 411.700195312 373.75 418.599609375 382.950195312 427.799804688 c 0
 392.150390625 435.849609375 399.049804688 446.200195312 402.5 458.849609375 c 0
 407.099609375 471.5 409.400390625 484.150390625 409.400390625 497.950195312 c 0
 409.400390625 512.900390625 407.099609375 526.700195312 402.5 540.5 c 0
 397.900390625 552 391 563.5 381.799804688 572.700195312 c 0
 372.599609375 581.900390625 361.099609375 588.799804688 347.299804688 594.549804688 c 0
 333.5 600.299804688 317.400390625 602.599609375 297.849609375 602.599609375 c 2
 188.599609375 602.599609375 l 1
EndSplineSet
Validated: 524289
EndChar

StartChar: Q
Encoding: 81 81 50
Width: 600
VWidth: 1150
GlyphClass: 2
Flags: W
HStem: -167.9 111.551<362.631 509.45> 619.85 115<223.428 348.99>
VStem: 19.5498 133.4<203.7 520.562> 420.9 134.55<194.53 517.853>
LayerCount: 2
Fore
SplineSet
225.400390625 -12.650390625 m 1
 193.200195312 -4.599609375 164.450195312 11.5 138 32.2001953125 c 1
 111.549804688 55.2001953125 89.7001953125 81.650390625 73.599609375 115 c 1
 55.2001953125 147.200195312 42.5498046875 184 33.349609375 225.400390625 c 0
 24.150390625 266.799804688 19.5498046875 311.650390625 19.5498046875 359.950195312 c 0
 19.5498046875 415.150390625 25.2998046875 465.75 39.099609375 511.75 c 1
 50.599609375 557.75 69 596.849609375 92 630.200195312 c 0
 116.150390625 663.549804688 144.900390625 688.849609375 177.099609375 707.25 c 0
 211.599609375 725.650390625 248.400390625 734.849609375 289.799804688 734.849609375 c 0
 325.450195312 734.849609375 359.950195312 726.799804688 392.150390625 711.849609375 c 0
 424.349609375 696.900390625 453.099609375 673.900390625 476.099609375 641.700195312 c 1
 501.400390625 611.799804688 519.799804688 572.700195312 533.599609375 524.400390625 c 1
 548.549804688 478.400390625 555.450195312 422.049804688 555.450195312 358.799804688 c 0
 555.450195312 300.150390625 549.700195312 248.400390625 538.200195312 204.700195312 c 0
 527.849609375 162.150390625 512.900390625 125.349609375 493.349609375 95.4501953125 c 0
 473.799804688 65.5498046875 451.950195312 41.400390625 427.799804688 24.150390625 c 0
 402.5 6.900390625 376.049804688 -5.75 348.450195312 -12.650390625 c 1
 349.599609375 -25.2998046875 354.200195312 -36.7998046875 362.25 -44.849609375 c 0
 370.299804688 -52.900390625 382.950195312 -57.5 399.049804688 -56.349609375 c 2
 512.900390625 -51.75 l 1
 509.450195312 -167.900390625 l 1
 417.450195312 -167.900390625 l 2
 353.049804688 -167.900390625 305.900390625 -156.400390625 273.700195312 -131.099609375 c 0
 243.799804688 -108.099609375 226.549804688 -67.849609375 225.400390625 -12.650390625 c 1
152.950195312 366.849609375 m 0
 152.950195312 323.150390625 156.400390625 284.049804688 163.299804688 250.700195312 c 0
 169.049804688 217.349609375 178.25 188.599609375 190.900390625 165.599609375 c 0
 203.549804688 142.599609375 217.349609375 125.349609375 234.599609375 113.849609375 c 0
 251.849609375 102.349609375 270.25 96.599609375 289.799804688 96.599609375 c 0
 307.049804688 96.599609375 323.150390625 101.200195312 339.25 109.25 c 0
 355.349609375 117.299804688 369.150390625 132.25 381.799804688 152.950195312 c 0
 393.299804688 173.650390625 402.5 201.25 409.400390625 234.599609375 c 0
 417.450195312 269.099609375 420.900390625 311.650390625 420.900390625 361.099609375 c 0
 420.900390625 408.25 417.450195312 448.5 409.400390625 481.849609375 c 0
 401.349609375 515.200195312 391 541.650390625 379.5 562.349609375 c 1
 365.700195312 583.049804688 351.900390625 598 336.950195312 607.200195312 c 0
 322 615.25 305.900390625 619.849609375 290.950195312 619.849609375 c 0
 272.549804688 619.849609375 255.299804688 616.400390625 239.200195312 607.200195312 c 1
 221.950195312 600.299804688 207 586.5 194.349609375 565.799804688 c 1
 181.700195312 547.400390625 171.349609375 520.950195312 163.299804688 487.599609375 c 0
 156.400390625 455.400390625 152.950195312 415.150390625 152.950195312 366.849609375 c 0
EndSplineSet
Validated: 524321
EndChar

StartChar: R
Encoding: 82 82 51
Width: 600
VWidth: 1150
GlyphClass: 2
Flags: W
HStem: 0 21G<54.0498 185.15 407.45 562.35> 296.7 109.25<185.15 269.1> 602.6 113.851<185.15 368.347>
VStem: 54.0498 131.101<0 296.7 405.95 602.6> 399.05 132.25<437.119 572.39>
LayerCount: 2
Fore
SplineSet
54.0498046875 716.450195312 m 1
 280.599609375 716.450195312 l 2
 325.450195312 716.450195312 363.400390625 710.700195312 395.599609375 701.5 c 1
 426.650390625 690 453.099609375 676.200195312 473.799804688 657.799804688 c 1
 493.349609375 638.25 508.299804688 616.400390625 517.5 589.950195312 c 0
 526.700195312 563.5 531.299804688 534.75 531.299804688 502.549804688 c 0
 531.299804688 483 527.849609375 463.450195312 522.099609375 443.900390625 c 0
 515.200195312 424.349609375 506 404.799804688 494.5 387.549804688 c 0
 481.849609375 370.299804688 468.049804688 354.200195312 450.799804688 341.549804688 c 0
 433.549804688 328.900390625 415.150390625 318.549804688 394.450195312 311.650390625 c 1
 562.349609375 0 l 1
 417.450195312 0 l 1
 269.099609375 296.700195312 l 1
 185.150390625 296.700195312 l 1
 185.150390625 0 l 1
 54.0498046875 0 l 1
 54.0498046875 716.450195312 l 1
185.150390625 602.599609375 m 1
 185.150390625 405.950195312 l 1
 288.650390625 405.950195312 l 2
 308.200195312 405.950195312 324.299804688 408.25 338.099609375 412.849609375 c 0
 351.900390625 417.450195312 363.400390625 424.349609375 372.599609375 432.400390625 c 0
 381.799804688 440.450195312 388.700195312 450.799804688 393.299804688 462.299804688 c 1
 396.75 474.950195312 399.049804688 487.599609375 399.049804688 502.549804688 c 0
 399.049804688 535.900390625 389.849609375 561.200195312 372.599609375 577.299804688 c 0
 355.349609375 594.549804688 326.599609375 602.599609375 288.650390625 602.599609375 c 2
 185.150390625 602.599609375 l 1
EndSplineSet
Validated: 524289
EndChar

StartChar: S
Encoding: 83 83 52
Width: 600
VWidth: 1150
GlyphClass: 2
Flags: W
HStem: -20.7002 110.4<192.547 363.307> 531.3 21G<435.275 453.15> 629.05 105.8<216.469 362.443>
VStem: 56.3496 133.4<489.807 602.412> 397.9 131.1<123.484 243.29>
LayerCount: 2
Fore
SplineSet
438.150390625 531.299804688 m 1
 432.400390625 531.299804688 428.950195312 532.450195312 425.5 533.599609375 c 1
 423.200195312 535.900390625 420.900390625 538.200195312 420.900390625 541.650390625 c 1
 418.599609375 545.099609375 418.599609375 547.400390625 417.450195312 552 c 0
 416.299804688 554.299804688 415.150390625 558.900390625 412.849609375 562.349609375 c 0
 400.200195312 581.900390625 381.799804688 598 358.799804688 609.5 c 1
 336.950195312 623.299804688 309.349609375 629.049804688 278.299804688 629.049804688 c 0
 264.5 629.049804688 251.849609375 626.75 241.5 623.299804688 c 0
 231.150390625 618.700195312 221.950195312 612.950195312 213.900390625 604.900390625 c 0
 205.849609375 598 200.099609375 589.950195312 195.5 579.599609375 c 0
 192.049804688 570.400390625 189.75 560.049804688 189.75 549.700195312 c 0
 189.75 537.049804688 192.049804688 525.549804688 195.5 515.200195312 c 0
 200.099609375 503.700195312 208.150390625 492.200195312 219.650390625 481.849609375 c 0
 231.150390625 471.5 246.099609375 460 266.799804688 449.650390625 c 0
 285.200195312 439.299804688 310.5 427.799804688 341.549804688 415.150390625 c 0
 377.200195312 400.200195312 407.099609375 385.25 432.400390625 369.150390625 c 1
 455.400390625 353.049804688 474.950195312 335.799804688 489.900390625 318.549804688 c 0
 504.849609375 301.299804688 515.200195312 281.75 519.799804688 262.200195312 c 1
 526.700195312 242.650390625 529 220.799804688 529 197.799804688 c 0
 529 171.349609375 524.400390625 144.900390625 515.200195312 117.299804688 c 0
 506 92 491.049804688 67.849609375 471.5 48.2998046875 c 0
 450.799804688 27.599609375 424.349609375 11.5 392.150390625 -2.2998046875 c 1
 359.950195312 -13.7998046875 320.849609375 -20.7001953125 274.849609375 -20.7001953125 c 0
 226.549804688 -20.7001953125 181.700195312 -11.5 142.599609375 6.900390625 c 0
 101.200195312 25.2998046875 65.5498046875 51.75 32.2001953125 87.400390625 c 1
 97.75 202.400390625 l 1
 102.349609375 201.25 105.799804688 200.099609375 108.099609375 197.799804688 c 0
 110.400390625 194.349609375 112.700195312 192.049804688 115 188.599609375 c 0
 116.150390625 186.299804688 118.450195312 182.849609375 119.599609375 179.400390625 c 0
 121.900390625 175.950195312 124.200195312 171.349609375 127.650390625 166.75 c 0
 135.700195312 156.400390625 144.900390625 147.200195312 154.099609375 138 c 1
 165.599609375 128.799804688 177.099609375 120.75 189.75 112.700195312 c 0
 202.400390625 105.799804688 217.349609375 100.049804688 232.299804688 96.599609375 c 0
 248.400390625 92 265.650390625 89.7001953125 285.200195312 89.7001953125 c 0
 320.849609375 89.7001953125 348.450195312 97.75 368 115 c 0
 387.549804688 131.099609375 397.900390625 156.400390625 397.900390625 190.900390625 c 0
 397.900390625 201.25 395.599609375 211.599609375 391 221.950195312 c 0
 386.400390625 232.299804688 379.5 241.5 368 250.700195312 c 1
 358.799804688 261.049804688 343.849609375 270.25 326.599609375 280.599609375 c 0
 308.200195312 290.950195312 285.200195312 301.299804688 257.599609375 311.650390625 c 0
 221.950195312 326.599609375 190.900390625 341.549804688 165.599609375 357.650390625 c 0
 140.299804688 373.75 119.599609375 391 103.5 409.400390625 c 0
 86.25 427.799804688 74.75 447.349609375 66.7001953125 468.049804688 c 0
 59.7998046875 488.75 56.349609375 510.599609375 56.349609375 533.599609375 c 0
 56.349609375 562.349609375 62.099609375 588.799804688 73.599609375 611.799804688 c 0
 85.099609375 637.099609375 101.200195312 657.799804688 121.900390625 676.200195312 c 0
 142.599609375 694.599609375 167.900390625 708.400390625 195.5 719.900390625 c 1
 225.400390625 729.099609375 256.450195312 734.849609375 290.950195312 734.849609375 c 0
 334.650390625 734.849609375 374.900390625 725.650390625 414 707.25 c 0
 450.799804688 688.849609375 484.150390625 662.400390625 510.599609375 627.900390625 c 1
 438.150390625 531.299804688 l 1
EndSplineSet
Validated: 524289
EndChar

StartChar: T
Encoding: 84 84 53
Width: 600
VWidth: 1150
GlyphClass: 2
Flags: W
HStem: 0 21G<217.35 348.45> 604.9 111.55<23 217.35 348.45 550.85>
VStem: 217.35 131.101<0 604.9>
LayerCount: 2
Fore
SplineSet
23 716.450195312 m 1
 550.849609375 716.450195312 l 1
 550.849609375 604.900390625 l 1
 348.450195312 604.900390625 l 1
 348.450195312 0 l 1
 217.349609375 0 l 1
 217.349609375 604.900390625 l 1
 23 604.900390625 l 1
 23 716.450195312 l 1
EndSplineSet
Validated: 524289
EndChar

StartChar: U
Encoding: 85 85 54
Width: 600
VWidth: 1150
GlyphClass: 2
Flags: W
HStem: -16.0996 106.949<215.889 359.383>
VStem: 42.5498 139.15<397.72 716.397> 42.5498 128.8<138.793 699.092> 405.95 126.5<142.034 716.45>
LayerCount: 2
Fore
SplineSet
42.5498046875 716.450195312 m 1xb0
 179.400390625 716.450195312 l 1
 180.549804688 715.299804688 181.700195312 715.299804688 181.700195312 714.150390625 c 2
 181.700195312 710.700195312 l 2xd0
 181.700195312 709.549804688 181.700195312 707.25 180.549804688 706.099609375 c 0
 179.400390625 704.950195312 179.400390625 702.650390625 177.099609375 699.200195312 c 1
 177.099609375 696.900390625 174.799804688 693.450195312 173.650390625 690 c 0
 172.5 686.549804688 171.349609375 681.950195312 171.349609375 676.200195312 c 2
 171.349609375 251.849609375 l 2xb0
 171.349609375 227.700195312 173.650390625 204.700195312 177.099609375 185.150390625 c 0
 180.549804688 165.599609375 187.450195312 148.349609375 195.5 134.549804688 c 0
 204.700195312 120.75 216.200195312 110.400390625 232.299804688 102.349609375 c 0
 246.099609375 94.2998046875 265.650390625 90.849609375 287.5 90.849609375 c 0
 310.5 90.849609375 328.900390625 94.2998046875 345 102.349609375 c 0
 358.799804688 110.400390625 371.450195312 120.75 380.650390625 135.700195312 c 0
 389.849609375 149.5 396.75 166.75 400.200195312 186.299804688 c 0
 403.650390625 207 405.950195312 230 405.950195312 255.299804688 c 2
 405.950195312 716.450195312 l 1
 532.450195312 716.450195312 l 1
 532.450195312 256.450195312 l 2
 532.450195312 209.299804688 526.700195312 169.049804688 515.200195312 135.700195312 c 0
 503.700195312 101.200195312 487.599609375 72.4501953125 465.75 50.599609375 c 0
 443.900390625 27.599609375 418.599609375 10.349609375 388.700195312 0 c 0
 357.650390625 -10.349609375 324.299804688 -16.099609375 286.349609375 -16.099609375 c 0
 246.099609375 -16.099609375 211.599609375 -10.349609375 181.700195312 2.2998046875 c 0xd0
 150.650390625 14.9501953125 125.349609375 32.2001953125 104.650390625 55.2001953125 c 0
 83.9501953125 79.349609375 69 108.099609375 57.5 140.299804688 c 1
 48.2998046875 174.799804688 42.5498046875 211.599609375 42.5498046875 253 c 2
 42.5498046875 716.450195312 l 1xb0
EndSplineSet
Validated: 524289
EndChar

StartChar: V
Encoding: 86 86 55
Width: 600
VWidth: 1150
GlyphClass: 2
Flags: W
HStem: 0 21G<237.315 349.121>
LayerCount: 2
Fore
SplineSet
11.5 716.450195312 m 1
 147.200195312 716.450195312 l 1
 297.849609375 208.150390625 l 1
 440.450195312 716.450195312 l 1
 572.700195312 716.450195312 l 1
 342.700195312 0 l 1
 243.799804688 0 l 1
 11.5 716.450195312 l 1
EndSplineSet
Validated: 524289
EndChar

StartChar: W
Encoding: 87 87 56
Width: 600
VWidth: 1150
GlyphClass: 2
Flags: W
HStem: 0 21G<91.86 202.18 383.223 491.126>
VStem: 6.90039 125.35<659.068 716.45> 257.6 82.8008<623.567 657.8> 454.25 119.6<657.517 716.45>
LayerCount: 2
Fore
SplineSet
6.900390625 716.450195312 m 1
 132.25 716.450195312 l 1
 173.650390625 243.799804688 l 1
 257.599609375 657.799804688 l 1
 340.400390625 657.799804688 l 1
 424.349609375 247.25 l 1
 454.25 716.450195312 l 1
 573.849609375 716.450195312 l 1
 488.75 0 l 1
 387.549804688 0 l 1
 293.25 435.849609375 l 1
 197.799804688 0 l 1
 94.2998046875 0 l 1
 6.900390625 716.450195312 l 1
EndSplineSet
Validated: 524289
EndChar

StartChar: X
Encoding: 88 88 57
Width: 600
VWidth: 1150
GlyphClass: 2
Flags: W
HStem: 0 21G<24.1504 174.824 412.546 568.1>
LayerCount: 2
Fore
SplineSet
411.700195312 716.450195312 m 1
 545.099609375 716.450195312 l 1
 366.849609375 366.849609375 l 1
 568.099609375 0 l 1
 423.200195312 0 l 1
 292.099609375 246.099609375 l 1
 164.450195312 0 l 1
 24.150390625 0 l 1
 217.349609375 365.700195312 l 1
 26.4501953125 716.450195312 l 1
 166.75 716.450195312 l 1
 290.950195312 481.849609375 l 1
 411.700195312 716.450195312 l 1
EndSplineSet
Validated: 524289
EndChar

StartChar: Y
Encoding: 89 89 58
Width: 600
VWidth: 1150
GlyphClass: 2
Flags: W
HStem: 0 21G<231.15 366.85>
VStem: 231.15 135.699<0 281.75>
LayerCount: 2
Fore
SplineSet
10.349609375 716.450195312 m 1
 154.099609375 716.450195312 l 1
 301.299804688 426.650390625 l 1
 432.400390625 716.450195312 l 1
 571.549804688 716.450195312 l 1
 366.849609375 281.75 l 1
 366.849609375 0 l 1
 231.150390625 0 l 1
 231.150390625 282.900390625 l 1
 10.349609375 716.450195312 l 1
EndSplineSet
Validated: 524289
EndChar

StartChar: Z
Encoding: 90 90 59
Width: 600
VWidth: 1150
GlyphClass: 2
Flags: W
HStem: 0 127.65<254.725 547.4> 0 110.4<211.6 547.131> 604.9 111.55<59.7998 371.45>
LayerCount: 2
Fore
SplineSet
59.7998046875 716.450195312 m 1x60
 530.150390625 716.450195312 l 1
 530.150390625 638.25 l 1
 211.599609375 110.400390625 l 1
 487.599609375 110.400390625 l 1x60
 495.650390625 111.549804688 502.549804688 112.700195312 508.299804688 115 c 0
 512.900390625 117.299804688 517.5 119.599609375 520.950195312 120.75 c 2
 532.450195312 125.349609375 l 2
 535.900390625 126.5 541.650390625 127.650390625 547.400390625 127.650390625 c 1
 547.400390625 0 l 1xa0
 47.150390625 0 l 1
 47.150390625 78.2001953125 l 1
 371.450195312 604.900390625 l 1
 59.7998046875 604.900390625 l 1
 59.7998046875 716.450195312 l 1x60
EndSplineSet
Validated: 524289
EndChar

StartChar: bracketleft
Encoding: 91 91 60
Width: 600
VWidth: 1150
GlyphClass: 2
Flags: W
HStem: -103.5 103.5<256.45 492.2> 662.4 106.949<256.45 492.2>
VStem: 135.7 120.75<0 662.4>
LayerCount: 2
Fore
SplineSet
135.700195312 769.349609375 m 1
 492.200195312 769.349609375 l 1
 492.200195312 662.400390625 l 1
 256.450195312 662.400390625 l 1
 256.450195312 0 l 1
 492.200195312 0 l 1
 492.200195312 -103.5 l 1
 135.700195312 -103.5 l 1
 135.700195312 769.349609375 l 1
EndSplineSet
Validated: 524289
EndChar

StartChar: backslash
Encoding: 92 92 61
Width: 600
VWidth: 1150
GlyphClass: 2
Flags: W
HStem: 751.65 20G<120.874 167.931>
LayerCount: 2
Fore
SplineSet
517.5 -5.75 m 1
 417.450195312 -54.0498046875 l 1
 58.650390625 718.75 l 1
 158.700195312 771.650390625 l 1
 517.5 -5.75 l 1
EndSplineSet
Validated: 524289
EndChar

StartChar: bracketright
Encoding: 93 93 62
Width: 600
VWidth: 1150
GlyphClass: 2
Flags: W
HStem: -103.5 103.5<82.7998 317.4> 662.4 106.949<83.9502 317.4>
VStem: 317.4 120.75<0 662.4>
LayerCount: 2
Fore
SplineSet
438.150390625 769.349609375 m 1
 438.150390625 -103.5 l 1
 82.7998046875 -103.5 l 1
 82.7998046875 0 l 1
 317.400390625 0 l 1
 317.400390625 662.400390625 l 1
 83.9501953125 662.400390625 l 1
 83.9501953125 769.349609375 l 1
 438.150390625 769.349609375 l 1
EndSplineSet
Validated: 524289
EndChar

StartChar: asciicircum
Encoding: 94 94 63
Width: 600
VWidth: 1150
GlyphClass: 2
Flags: W
LayerCount: 2
Fore
SplineSet
88.5498046875 426.650390625 m 1
 274.849609375 718.75 l 1
 316.25 718.75 l 1
 480.700195312 426.650390625 l 1
 386.400390625 381.799804688 l 1
 290.950195312 580.75 l 1
 182.849609375 381.799804688 l 1
 88.5498046875 426.650390625 l 1
EndSplineSet
Validated: 524289
EndChar

StartChar: underscore
Encoding: 95 95 64
Width: 600
VWidth: 1150
GlyphClass: 2
Flags: W
HStem: -116.15 106.95<33.3496 541.65>
LayerCount: 2
Fore
SplineSet
33.349609375 -9.2001953125 m 1
 541.650390625 -9.2001953125 l 1
 541.650390625 -116.150390625 l 1
 33.349609375 -116.150390625 l 1
 33.349609375 -9.2001953125 l 1
EndSplineSet
Validated: 524289
EndChar

StartChar: grave
Encoding: 96 96 65
Width: 600
VWidth: 1150
GlyphClass: 2
Flags: W
HStem: 495.65 300.149
VStem: 136.85 234.601
LayerCount: 2
Fore
SplineSet
136.849609375 748.650390625 m 1
 238.049804688 795.799804688 l 1
 274.849609375 702.650390625 l 2
 282.900390625 683.099609375 292.099609375 668.150390625 301.299804688 656.650390625 c 0
 310.5 645.150390625 320.849609375 633.650390625 331.200195312 623.299804688 c 0
 342.700195312 611.799804688 351.900390625 600.299804688 359.950195312 591.099609375 c 1
 368 579.599609375 371.450195312 566.950195312 371.450195312 552 c 0
 371.450195312 541.650390625 369.150390625 532.450195312 364.549804688 524.400390625 c 0
 359.950195312 516.349609375 354.200195312 510.599609375 347.299804688 506 c 0
 340.400390625 501.400390625 333.5 497.950195312 326.599609375 495.650390625 c 0
 318.549804688 493.349609375 311.650390625 492.200195312 304.75 492.200195312 c 0
 295.549804688 492.200195312 286.349609375 493.349609375 277.150390625 495.650390625 c 0
 267.950195312 497.950195312 257.599609375 504.849609375 247.25 515.200195312 c 0
 236.900390625 525.549804688 225.400390625 542.799804688 211.599609375 565.799804688 c 1
 200.099609375 587.650390625 185.150390625 618.700195312 170.200195312 658.950195312 c 2
 136.849609375 748.650390625 l 1
EndSplineSet
Validated: 524289
EndChar

StartChar: a
Encoding: 97 97 66
Width: 600
VWidth: 1150
GlyphClass: 2
Flags: W
HStem: -13.7998 97.75<194.931 323.437> 0 21G<385.25 508.3> 234.6 96.6006<212.873 384.1> 447.35 101.2<213.652 353.542>
VStem: 46 127.65<104.818 201.002> 385.25 123.05<0 48.2998 142.602 233.45 331.2 413.301>
LayerCount: 2
Fore
SplineSet
86.25 461.150390625 m 1xbc
 141.450195312 519.799804688 209.299804688 548.549804688 289.799804688 548.549804688 c 0
 323.150390625 548.549804688 354.200195312 543.950195312 381.799804688 535.900390625 c 0
 408.25 527.849609375 431.25 514.049804688 450.799804688 495.650390625 c 0
 469.200195312 477.25 483 454.25 493.349609375 425.5 c 0
 503.700195312 397.900390625 508.299804688 364.549804688 508.299804688 326.599609375 c 2
 508.299804688 0 l 1
 385.25 0 l 1x7c
 385.25 48.2998046875 l 1
 365.700195312 28.75 341.549804688 13.7998046875 312.799804688 2.2998046875 c 0
 285.200195312 -8.0498046875 257.599609375 -13.7998046875 228.849609375 -13.7998046875 c 0
 197.799804688 -13.7998046875 170.200195312 -9.2001953125 147.200195312 -1.150390625 c 0
 124.200195312 6.900390625 105.799804688 18.400390625 89.7001953125 32.2001953125 c 1
 75.900390625 47.150390625 64.400390625 63.25 57.5 82.7998046875 c 0
 49.4501953125 102.349609375 46 121.900390625 46 142.599609375 c 0
 46 170.200195312 51.75 195.5 64.400390625 218.5 c 0
 75.900390625 241.5 93.150390625 261.049804688 115 278.299804688 c 0
 138 295.549804688 166.75 308.200195312 200.099609375 317.400390625 c 0
 233.450195312 326.599609375 272.549804688 331.200195312 316.25 331.200195312 c 2
 384.099609375 331.200195312 l 1
 382.950195312 371.450195312 374.900390625 401.349609375 358.799804688 419.75 c 0
 343.849609375 438.150390625 318.549804688 447.349609375 285.200195312 447.349609375 c 0
 241.5 447.349609375 196.650390625 423.200195312 151.799804688 376.049804688 c 1
 86.25 461.150390625 l 1xbc
340.400390625 234.599609375 m 2
 307.049804688 235.75 278.299804688 233.450195312 257.599609375 228.849609375 c 0
 234.599609375 224.25 218.5 217.349609375 205.849609375 209.299804688 c 0
 193.200195312 201.25 185.150390625 190.900390625 180.549804688 181.700195312 c 0
 175.950195312 170.200195312 173.650390625 159.849609375 173.650390625 149.5 c 0
 173.650390625 140.299804688 175.950195312 132.25 179.400390625 124.200195312 c 0
 184 116.150390625 189.75 110.400390625 196.650390625 103.5 c 1
 203.549804688 98.900390625 211.599609375 93.150390625 220.799804688 89.7001953125 c 0
 231.150390625 86.25 241.5 83.9501953125 251.849609375 83.9501953125 c 0xbc
 269.099609375 83.9501953125 285.200195312 87.400390625 299 93.150390625 c 0
 313.950195312 98.900390625 326.599609375 106.950195312 335.799804688 115 c 0
 347.299804688 124.200195312 355.349609375 133.400390625 363.400390625 142.599609375 c 0
 370.299804688 151.799804688 374.900390625 159.849609375 378.349609375 166.75 c 0
 381.799804688 172.5 384.099609375 180.549804688 385.25 190.900390625 c 0
 386.400390625 202.400390625 387.549804688 216.200195312 387.549804688 233.450195312 c 1
 340.400390625 234.599609375 l 2
EndSplineSet
Validated: 524321
EndChar

StartChar: b
Encoding: 98 98 67
Width: 600
VWidth: 1150
GlyphClass: 2
Flags: W
HStem: -17.25 106.95<229.905 350.699> 0 21G<57.5 153.867> 443.9 104.649<231.226 351.421>
VStem: 57.5 128.8<142.58 399.467 491.05 776.035> 407.1 129.95<154.793 376.734>
LayerCount: 2
Fore
SplineSet
57.5 776.25 m 1x78
 202.400390625 776.25 l 1
 202.400390625 771.650390625 201.25 768.200195312 200.099609375 765.900390625 c 0
 198.950195312 762.450195312 196.650390625 760.150390625 195.5 759 c 0
 193.200195312 756.700195312 190.900390625 754.400390625 189.75 752.099609375 c 0
 188.599609375 749.799804688 187.450195312 746.349609375 186.299804688 742.900390625 c 1
 186.299804688 491.049804688 l 1
 203.549804688 509.450195312 223.099609375 523.25 243.799804688 533.599609375 c 0
 266.799804688 543.950195312 288.650390625 548.549804688 310.5 548.549804688 c 0
 341.549804688 548.549804688 370.299804688 542.799804688 397.900390625 531.299804688 c 0
 424.349609375 520.950195312 448.5 503.700195312 469.200195312 480.700195312 c 0
 489.900390625 458.849609375 506 430.099609375 518.650390625 397.900390625 c 0
 531.299804688 363.400390625 537.049804688 324.299804688 537.049804688 279.450195312 c 0
 537.049804688 230 530.150390625 187.450195312 517.5 149.5 c 1
 503.700195312 112.700195312 485.299804688 81.650390625 464.599609375 57.5 c 0
 441.599609375 32.2001953125 417.450195312 13.7998046875 389.849609375 1.150390625 c 0
 362.25 -11.5 334.650390625 -17.25 305.900390625 -17.25 c 0xb8
 279.450195312 -17.25 253 -11.5 228.849609375 0 c 0
 204.700195312 12.650390625 182.849609375 29.900390625 164.450195312 51.75 c 1
 147.200195312 0 l 1
 57.5 0 l 1
 57.5 776.25 l 1x78
185.150390625 274.849609375 m 0
 185.150390625 241.5 187.450195312 213.900390625 193.200195312 189.75 c 0
 197.799804688 165.599609375 204.700195312 147.200195312 213.900390625 132.25 c 0
 221.950195312 117.299804688 233.450195312 106.950195312 246.099609375 100.049804688 c 0
 258.75 93.150390625 273.700195312 89.7001953125 289.799804688 89.7001953125 c 0
 302.450195312 89.7001953125 316.25 93.150390625 330.049804688 98.900390625 c 0
 343.849609375 104.650390625 356.5 115 368 128.799804688 c 0
 379.5 141.450195312 388.700195312 158.700195312 395.599609375 181.700195312 c 1
 403.650390625 202.400390625 407.099609375 230 407.099609375 262.200195312 c 0
 407.099609375 295.549804688 403.650390625 325.450195312 395.599609375 349.599609375 c 0
 388.700195312 373.75 378.349609375 394.450195312 364.549804688 409.400390625 c 0
 354.200195312 420.900390625 342.700195312 430.099609375 331.200195312 434.700195312 c 1
 318.549804688 441.599609375 303.599609375 443.900390625 286.349609375 443.900390625 c 0
 265.650390625 443.900390625 248.400390625 439.299804688 235.75 430.099609375 c 0
 223.099609375 420.900390625 212.75 408.25 204.700195312 393.299804688 c 0
 196.650390625 377.200195312 192.049804688 358.799804688 188.599609375 338.099609375 c 0
 186.299804688 318.549804688 185.150390625 296.700195312 185.150390625 274.849609375 c 0
EndSplineSet
Validated: 524289
EndChar

StartChar: c
Encoding: 99 99 68
Width: 600
VWidth: 1150
GlyphClass: 2
Flags: W
HStem: -18.4004 110.4<246.599 396.27> 441.6 106.95<245.706 393.146>
VStem: 43.7002 131.1<172.253 363.815>
LayerCount: 2
Fore
SplineSet
448.5 348.450195312 m 1
 445.049804688 349.599609375 442.75 350.75 441.599609375 353.049804688 c 2
 438.150390625 359.950195312 l 2
 437 362.25 437 365.700195312 435.849609375 368 c 0
 434.700195312 372.599609375 434.700195312 374.900390625 433.549804688 378.349609375 c 0
 423.200195312 395.599609375 407.099609375 410.549804688 388.700195312 423.200195312 c 1
 368 435.849609375 345 441.599609375 316.25 441.599609375 c 0
 296.700195312 441.599609375 278.299804688 437 262.200195312 428.950195312 c 0
 243.799804688 420.900390625 228.849609375 408.25 216.200195312 393.299804688 c 0
 203.549804688 378.349609375 193.200195312 359.950195312 186.299804688 339.25 c 0
 178.25 318.549804688 174.799804688 295.549804688 174.799804688 270.25 c 0
 174.799804688 244.950195312 178.25 221.950195312 185.150390625 200.099609375 c 0
 192.049804688 178.25 202.400390625 159.849609375 213.900390625 143.75 c 1
 227.700195312 127.650390625 241.5 115 259.900390625 105.799804688 c 0
 276 96.599609375 295.549804688 92 317.400390625 92 c 0
 327.75 92 339.25 93.150390625 349.599609375 95.4501953125 c 0
 361.099609375 97.75 372.599609375 101.200195312 384.099609375 108.099609375 c 1
 396.75 112.700195312 408.25 120.75 418.599609375 129.950195312 c 0
 430.099609375 139.150390625 441.599609375 150.650390625 451.950195312 163.299804688 c 1
 526.700195312 77.0498046875 l 1
 495.650390625 43.7001953125 462.299804688 18.400390625 426.650390625 4.599609375 c 1
 391 -11.5 351.900390625 -18.400390625 311.650390625 -18.400390625 c 0
 272.549804688 -18.400390625 236.900390625 -11.5 203.549804688 2.2998046875 c 0
 170.200195312 17.25 142.599609375 36.7998046875 119.599609375 62.099609375 c 1
 95.4501953125 86.25 77.0498046875 116.150390625 64.400390625 150.650390625 c 0
 50.599609375 185.150390625 43.7001953125 223.099609375 43.7001953125 263.349609375 c 0
 43.7001953125 303.599609375 50.599609375 340.400390625 63.25 374.900390625 c 0
 75.900390625 410.549804688 94.2998046875 440.450195312 119.599609375 465.75 c 1
 142.599609375 491.049804688 172.5 510.599609375 204.700195312 526.700195312 c 1
 239.200195312 540.5 276 548.549804688 316.25 548.549804688 c 0
 338.099609375 548.549804688 359.950195312 546.25 381.799804688 541.650390625 c 0
 402.5 537.049804688 422.049804688 530.150390625 440.450195312 522.099609375 c 0
 458.849609375 514.049804688 476.099609375 502.549804688 491.049804688 489.900390625 c 0
 506 477.25 519.799804688 462.299804688 531.299804688 445.049804688 c 1
 448.5 348.450195312 l 1
EndSplineSet
Validated: 524289
EndChar

StartChar: d
Encoding: 100 100 69
Width: 600
VWidth: 1150
GlyphClass: 2
Flags: W
HStem: -17.25 106.95<221.514 341.732> 0 21G<401.35 525.55> 443.9 104.649<220.059 342.792>
VStem: 34.5 129.95<154.658 378.698> 386.4 128.8<0.539062 49.4502 142.58 399.467 494.5 776.088>
LayerCount: 2
Fore
SplineSet
515.200195312 64.400390625 m 2x78
 515.200195312 55.2001953125 516.349609375 44.849609375 517.5 34.5 c 0
 519.799804688 23 522.099609375 11.5 525.549804688 0 c 1
 403.650390625 0 l 1
 399.049804688 3.4501953125 395.599609375 8.0498046875 394.450195312 14.9501953125 c 0
 393.299804688 21.849609375 392.150390625 27.599609375 392.150390625 33.349609375 c 2
 392.150390625 49.4501953125 l 1
 386.400390625 39.099609375 378.349609375 28.75 368 20.7001953125 c 0
 357.650390625 12.650390625 347.299804688 5.75 335.799804688 0 c 0x78
 324.299804688 -5.75 312.799804688 -9.2001953125 299 -12.650390625 c 0
 287.5 -16.099609375 274.849609375 -17.25 263.349609375 -17.25 c 0xb8
 232.299804688 -17.25 202.400390625 -11.5 174.799804688 0 c 0
 147.200195312 11.5 123.049804688 28.75 102.349609375 51.75 c 0
 81.650390625 74.75 65.5498046875 103.5 52.900390625 138 c 0
 40.25 172.5 34.5 212.75 34.5 259.900390625 c 0
 34.5 304.75 40.25 345 52.900390625 381.799804688 c 0
 65.5498046875 416.299804688 81.650390625 447.349609375 103.5 471.5 c 1
 124.200195312 496.799804688 148.349609375 516.349609375 174.799804688 529 c 0
 202.400390625 541.650390625 231.150390625 548.549804688 262.200195312 548.549804688 c 0
 272.549804688 548.549804688 284.049804688 547.400390625 294.400390625 545.099609375 c 0
 305.900390625 541.650390625 317.400390625 538.200195312 328.900390625 533.599609375 c 0
 339.25 529 349.599609375 523.25 359.950195312 516.349609375 c 0
 370.299804688 509.450195312 378.349609375 502.549804688 386.400390625 494.5 c 1
 386.400390625 776.25 l 1
 531.299804688 776.25 l 1
 531.299804688 772.799804688 530.150390625 769.349609375 529 765.900390625 c 0
 527.849609375 763.599609375 525.549804688 761.299804688 524.400390625 759 c 0
 523.25 756.700195312 520.950195312 754.400390625 519.799804688 752.099609375 c 0
 517.5 748.650390625 516.349609375 746.349609375 515.200195312 742.900390625 c 1
 515.200195312 64.400390625 l 2x78
387.549804688 274.849609375 m 0
 387.549804688 296.700195312 386.400390625 318.549804688 382.950195312 338.099609375 c 0
 379.5 358.799804688 374.900390625 377.200195312 368 393.299804688 c 1
 359.950195312 408.25 349.599609375 420.900390625 335.799804688 430.099609375 c 0
 323.150390625 439.299804688 305.900390625 443.900390625 285.200195312 443.900390625 c 0
 267.950195312 443.900390625 253 441.599609375 241.5 434.700195312 c 1
 228.849609375 430.099609375 217.349609375 420.900390625 207 409.400390625 c 0
 178.25 378.349609375 164.450195312 330.049804688 164.450195312 262.200195312 c 0
 164.450195312 230 167.900390625 202.400390625 174.799804688 181.700195312 c 0
 182.849609375 158.700195312 192.049804688 141.450195312 203.549804688 128.799804688 c 0
 215.049804688 115 227.700195312 104.650390625 241.5 98.900390625 c 0
 255.299804688 93.150390625 269.099609375 89.7001953125 281.75 89.7001953125 c 0xb8
 297.849609375 89.7001953125 312.799804688 93.150390625 325.450195312 100.049804688 c 0
 338.099609375 106.950195312 349.599609375 117.299804688 358.799804688 132.25 c 0
 368 147.200195312 374.900390625 165.599609375 379.5 189.75 c 0
 385.25 213.900390625 387.549804688 241.5 387.549804688 274.849609375 c 0
EndSplineSet
Validated: 524289
EndChar

StartChar: e
Encoding: 101 101 70
Width: 600
VWidth: 1150
GlyphClass: 2
Flags: W
HStem: -18.4004 102.351<237.03 390.766> 232.3 94.2998<174.8 396.75> 451.95 96.5996<226.091 351.779>
VStem: 42.5498 127.65<158.578 232.3 326.6 388.227> 396.75 128.8<326.6 404.845>
LayerCount: 2
Fore
SplineSet
296.700195312 548.549804688 m 0
 328.900390625 548.549804688 358.799804688 542.799804688 386.400390625 531.299804688 c 0
 414 520.950195312 438.150390625 503.700195312 458.849609375 483 c 1
 479.549804688 460 495.650390625 433.549804688 508.299804688 400.200195312 c 0
 519.799804688 366.849609375 525.549804688 328.900390625 525.549804688 286.349609375 c 0
 525.549804688 277.150390625 525.549804688 267.950195312 524.400390625 258.75 c 0
 523.25 249.549804688 523.25 240.349609375 522.099609375 232.299804688 c 1
 170.200195312 232.299804688 l 1
 173.650390625 205.849609375 179.400390625 184 188.599609375 165.599609375 c 0
 196.650390625 147.200195312 207 132.25 220.799804688 119.599609375 c 1
 232.299804688 106.950195312 247.25 98.900390625 262.200195312 92 c 1
 278.299804688 87.400390625 294.400390625 83.9501953125 310.5 83.9501953125 c 0
 334.650390625 83.9501953125 358.799804688 89.7001953125 381.799804688 101.200195312 c 1
 405.950195312 111.549804688 425.5 127.650390625 442.75 149.5 c 1
 514.049804688 78.2001953125 l 1
 460 13.7998046875 392.150390625 -18.400390625 310.5 -18.400390625 c 0
 272.549804688 -18.400390625 236.900390625 -11.5 203.549804688 0 c 1
 170.200195312 13.7998046875 142.599609375 32.2001953125 118.450195312 55.2001953125 c 1
 94.2998046875 80.5 75.900390625 109.25 62.099609375 143.75 c 0
 49.4501953125 178.25 42.5498046875 217.349609375 42.5498046875 261.049804688 c 0
 42.5498046875 305.900390625 48.2998046875 345 62.099609375 381.799804688 c 1
 73.599609375 416.299804688 92 447.349609375 115 471.5 c 0
 136.849609375 495.650390625 163.299804688 515.200195312 195.5 529 c 0
 225.400390625 541.650390625 259.900390625 548.549804688 296.700195312 548.549804688 c 0
396.75 326.599609375 m 1
 396.75 343.849609375 394.450195312 359.950195312 388.700195312 374.900390625 c 0
 384.099609375 389.849609375 377.200195312 403.650390625 368 414 c 0
 358.799804688 425.5 347.299804688 434.700195312 333.5 441.599609375 c 0
 320.849609375 448.5 305.900390625 451.950195312 289.799804688 451.950195312 c 0
 273.700195312 451.950195312 258.75 448.5 246.099609375 442.75 c 0
 233.450195312 437 221.950195312 427.799804688 211.599609375 417.450195312 c 0
 201.25 407.099609375 193.200195312 393.299804688 187.450195312 378.349609375 c 0
 181.700195312 363.400390625 177.099609375 346.150390625 174.799804688 326.599609375 c 1
 396.75 326.599609375 l 1
EndSplineSet
Validated: 524289
EndChar

StartChar: f
Encoding: 102 102 71
Width: 600
VWidth: 1150
GlyphClass: 2
Flags: W
HStem: 0 21G<192.05 317.4> 405.95 102.35<75.9004 192.05 317.4 481.85> 683.1 102.351<352.018 477.625>
VStem: 192.05 125.351<0 405.95 508.3 645.149>
LayerCount: 2
Fore
SplineSet
414 785.450195312 m 0
 485.299804688 785.450195312 545.099609375 756.700195312 592.25 698.049804688 c 1
 539.349609375 594.549804688 l 1
 533.599609375 594.549804688 529 596.849609375 526.700195312 600.299804688 c 0
 525.549804688 603.75 523.25 610.650390625 520.950195312 618.700195312 c 1
 516.349609375 625.599609375 510.599609375 632.5 503.700195312 639.400390625 c 0
 496.799804688 647.450195312 488.75 654.349609375 479.549804688 660.099609375 c 0
 470.349609375 667 460 672.75 448.5 676.200195312 c 0
 437 680.799804688 425.5 683.099609375 412.849609375 683.099609375 c 0
 380.650390625 683.099609375 356.5 671.599609375 340.400390625 647.450195312 c 0
 325.450195312 623.299804688 317.400390625 586.5 317.400390625 535.900390625 c 2
 317.400390625 508.299804688 l 1
 481.849609375 508.299804688 l 1
 481.849609375 405.950195312 l 1
 317.400390625 405.950195312 l 1
 317.400390625 0 l 1
 192.049804688 0 l 1
 192.049804688 405.950195312 l 1
 75.900390625 405.950195312 l 1
 75.900390625 508.299804688 l 1
 192.049804688 508.299804688 l 1
 192.049804688 546.25 l 2
 192.049804688 586.5 197.799804688 621 209.299804688 650.900390625 c 0
 221.950195312 680.799804688 238.049804688 706.099609375 257.599609375 725.650390625 c 0
 277.150390625 745.200195312 301.299804688 760.150390625 327.75 770.5 c 0
 354.200195312 780.849609375 382.950195312 785.450195312 414 785.450195312 c 0
EndSplineSet
Validated: 524289
EndChar

StartChar: g
Encoding: 103 103 72
Width: 600
VWidth: 1150
GlyphClass: 2
Flags: W
HStem: -198.95 95.4502<177.539 381.035> 11.5 102.35<186.951 403.625> 178.25 98.9004<215.921 324.704> 446.2 103.5<501.454 543.95> 454.25 98.9004<210.393 323.157 452.769 543.95>
VStem: 36.7998 118.45<-81.3761 0.0266402> 64.4004 119.6<304.712 427.272> 72.4502 113.85<110.975 174.865> 350.75 119.6<303.602 427.698>
LayerCount: 2
Fore
SplineSet
266.799804688 454.25 m 0xea80
 255.299804688 454.25 244.950195312 451.950195312 234.599609375 448.5 c 0
 224.25 443.900390625 216.200195312 438.150390625 208.150390625 430.099609375 c 0
 200.099609375 422.049804688 194.349609375 412.849609375 190.900390625 402.5 c 0
 186.299804688 391 184 378.349609375 184 364.549804688 c 0
 184 351.900390625 186.299804688 340.400390625 189.75 331.200195312 c 0
 193.200195312 319.700195312 198.950195312 310.5 207 303.599609375 c 1
 213.900390625 294.400390625 221.950195312 288.650390625 232.299804688 284.049804688 c 0
 242.650390625 279.450195312 254.150390625 277.150390625 266.799804688 277.150390625 c 0
 279.450195312 277.150390625 292.099609375 279.450195312 301.299804688 284.049804688 c 0
 312.799804688 288.650390625 320.849609375 294.400390625 328.900390625 303.599609375 c 0
 335.799804688 310.5 341.549804688 319.700195312 345 331.200195312 c 0
 348.450195312 340.400390625 350.75 351.900390625 350.75 364.549804688 c 0
 350.75 377.200195312 348.450195312 388.700195312 345 399.049804688 c 0
 341.549804688 409.400390625 335.799804688 418.599609375 328.900390625 427.799804688 c 1
 320.849609375 434.700195312 312.799804688 441.599609375 301.299804688 446.200195312 c 1xf280
 292.099609375 451.950195312 279.450195312 454.25 266.799804688 454.25 c 0xea80
269.099609375 553.150390625 m 0xea80
 316.25 553.150390625 355.349609375 540.5 388.700195312 515.200195312 c 1
 405.950195312 526.700195312 423.200195312 535.900390625 443.900390625 540.5 c 1
 462.299804688 547.400390625 484.150390625 549.700195312 507.150390625 549.700195312 c 2
 543.950195312 549.700195312 l 1
 561.200195312 440.450195312 l 1
 554.299804688 441.599609375 547.400390625 441.599609375 540.5 442.75 c 0
 532.450195312 443.900390625 526.700195312 443.900390625 520.950195312 445.049804688 c 0
 515.200195312 446.200195312 510.599609375 446.200195312 508.299804688 446.200195312 c 0
 503.700195312 447.349609375 502.549804688 447.349609375 501.400390625 447.349609375 c 0
 485.299804688 447.349609375 469.200195312 443.900390625 451.950195312 438.150390625 c 1
 457.700195312 425.5 462.299804688 414 464.599609375 401.349609375 c 1
 469.200195312 388.700195312 470.349609375 376.049804688 470.349609375 363.400390625 c 0
 470.349609375 338.099609375 464.599609375 313.950195312 454.25 292.099609375 c 0
 443.900390625 269.099609375 428.950195312 249.549804688 410.549804688 232.299804688 c 0
 392.150390625 215.049804688 370.299804688 202.400390625 347.299804688 193.200195312 c 0
 322 182.849609375 296.700195312 178.25 267.950195312 178.25 c 0
 259.900390625 178.25 253 178.25 244.950195312 179.400390625 c 0
 236.900390625 180.549804688 228.849609375 181.700195312 220.799804688 184 c 1
 210.450195312 177.099609375 201.25 170.200195312 195.5 163.299804688 c 0
 189.75 156.400390625 186.299804688 148.349609375 186.299804688 140.299804688 c 0xf180
 186.299804688 129.950195312 192.049804688 121.900390625 202.400390625 119.599609375 c 1
 212.75 115 227.700195312 113.849609375 244.950195312 113.849609375 c 0
 257.599609375 113.849609375 271.400390625 115 285.200195312 115 c 1
 300.150390625 117.299804688 312.799804688 117.299804688 324.299804688 117.299804688 c 0
 362.25 117.299804688 393.299804688 113.849609375 420.900390625 105.799804688 c 0
 446.200195312 98.900390625 468.049804688 89.7001953125 485.299804688 75.900390625 c 0
 501.400390625 64.400390625 512.900390625 48.2998046875 519.799804688 31.0498046875 c 0
 527.849609375 13.7998046875 531.299804688 -5.75 531.299804688 -27.599609375 c 0
 531.299804688 -49.4501953125 526.700195312 -71.2998046875 515.200195312 -92 c 1
 506 -111.549804688 489.900390625 -129.950195312 469.200195312 -146.049804688 c 0
 448.5 -162.150390625 423.200195312 -174.799804688 391 -184 c 1
 361.099609375 -194.349609375 324.299804688 -198.950195312 282.900390625 -198.950195312 c 0
 239.200195312 -198.950195312 202.400390625 -195.5 170.200195312 -188.599609375 c 1
 140.299804688 -180.549804688 115 -170.200195312 94.2998046875 -158.700195312 c 1
 75.900390625 -144.900390625 60.9501953125 -131.099609375 50.599609375 -115 c 1
 41.400390625 -97.75 36.7998046875 -80.5 36.7998046875 -60.9501953125 c 0xf480
 36.7998046875 -51.75 39.099609375 -42.5498046875 41.400390625 -32.2001953125 c 1
 46 -21.849609375 50.599609375 -12.650390625 56.349609375 -3.4501953125 c 0
 62.099609375 5.75 70.150390625 14.9501953125 78.2001953125 23 c 0
 87.400390625 31.0498046875 96.599609375 39.099609375 106.950195312 44.849609375 c 1
 94.2998046875 54.0498046875 85.099609375 65.5498046875 80.5 78.2001953125 c 0
 74.75 90.849609375 72.4501953125 104.650390625 72.4501953125 117.299804688 c 0xf180
 72.4501953125 134.549804688 78.2001953125 152.950195312 90.849609375 171.349609375 c 0
 103.5 189.75 118.450195312 207 138 223.099609375 c 1
 126.5 230 116.150390625 239.200195312 108.099609375 248.400390625 c 0
 98.900390625 259.900390625 90.849609375 270.25 85.099609375 282.900390625 c 0
 78.2001953125 295.549804688 73.599609375 308.200195312 69 320.849609375 c 1
 66.7001953125 333.5 64.400390625 347.299804688 64.400390625 359.950195312 c 0
 64.400390625 386.400390625 70.150390625 411.700195312 81.650390625 435.849609375 c 0
 93.150390625 460 108.099609375 480.700195312 127.650390625 496.799804688 c 1
 147.200195312 515.200195312 169.049804688 527.849609375 193.200195312 538.200195312 c 0
 217.349609375 548.549804688 242.650390625 553.150390625 269.099609375 553.150390625 c 0xea80
346.150390625 11.5 m 2
 269.099609375 11.5 l 1
 244.950195312 12.650390625 220.799804688 13.7998046875 195.5 14.9501953125 c 1
 181.700195312 6.900390625 171.349609375 -3.4501953125 165.599609375 -13.7998046875 c 0
 158.700195312 -24.150390625 155.25 -34.5 155.25 -44.849609375 c 0xe480
 155.25 -55.2001953125 158.700195312 -64.400390625 165.599609375 -71.2998046875 c 0
 172.5 -79.349609375 181.700195312 -85.099609375 193.200195312 -89.7001953125 c 0
 205.849609375 -94.2998046875 219.650390625 -97.75 234.599609375 -100.049804688 c 0
 250.700195312 -102.349609375 267.950195312 -103.5 285.200195312 -103.5 c 0
 303.599609375 -103.5 320.849609375 -102.349609375 335.799804688 -98.900390625 c 0
 350.75 -95.4501953125 364.549804688 -90.849609375 374.900390625 -85.099609375 c 0
 386.400390625 -79.349609375 395.599609375 -71.2998046875 402.5 -64.400390625 c 1
 408.25 -55.2001953125 411.700195312 -47.150390625 412.849609375 -36.7998046875 c 1
 411.700195312 -21.849609375 407.099609375 -10.349609375 395.599609375 -2.2998046875 c 1
 386.400390625 6.900390625 369.150390625 11.5 346.150390625 11.5 c 2
EndSplineSet
Validated: 524289
EndChar

StartChar: h
Encoding: 104 104 73
Width: 600
VWidth: 1150
GlyphClass: 2
Flags: W
HStem: 0 21G<69 198.95 391 517.5> 442.75 105.8<258.164 363.369>
VStem: 69 129.95<0 391.352 481.85 758.892> 391 126.5<0 413.978>
LayerCount: 2
Fore
SplineSet
69 0 m 1
 69 776.25 l 1
 215.049804688 776.25 l 1
 215.049804688 771.650390625 213.900390625 768.200195312 212.75 765.900390625 c 0
 211.599609375 762.450195312 209.299804688 760.150390625 207 759 c 1
 205.849609375 756.700195312 203.549804688 754.400390625 202.400390625 752.099609375 c 0
 200.099609375 749.799804688 198.950195312 746.349609375 198.950195312 742.900390625 c 2
 198.950195312 481.849609375 l 1
 217.349609375 501.400390625 239.200195312 517.5 264.5 530.150390625 c 0
 288.650390625 542.799804688 313.950195312 548.549804688 339.25 548.549804688 c 0
 366.849609375 548.549804688 391 545.099609375 414 535.900390625 c 1
 434.700195312 529 454.25 515.200195312 469.200195312 496.799804688 c 0
 484.150390625 479.549804688 496.799804688 456.549804688 504.849609375 427.799804688 c 0
 512.900390625 399.049804688 517.5 365.700195312 517.5 325.450195312 c 2
 517.5 0 l 1
 391 0 l 1
 391 324.299804688 l 2
 391 345 388.700195312 363.400390625 385.25 377.200195312 c 0
 381.799804688 393.299804688 376.049804688 404.799804688 369.150390625 414 c 0
 362.25 424.349609375 354.200195312 431.25 345 435.849609375 c 0
 335.799804688 440.450195312 325.450195312 442.75 313.950195312 442.75 c 0
 297.849609375 442.75 282.900390625 439.299804688 269.099609375 432.400390625 c 1
 254.150390625 426.650390625 241.5 417.450195312 232.299804688 405.950195312 c 1
 220.799804688 394.450195312 213.900390625 380.650390625 207 363.400390625 c 1
 202.400390625 347.299804688 198.950195312 330.049804688 198.950195312 310.5 c 2
 198.950195312 0 l 1
 69 0 l 1
EndSplineSet
Validated: 524289
EndChar

StartChar: i
Encoding: 105 105 74
Width: 600
VWidth: 1150
GlyphClass: 2
Flags: W
HStem: 0 100.05<110.4 240.35 368 486.45> 437 100.05<116.15 240.35> 630.2 147.2<247.438 363.398>
VStem: 225.4 161<652.208 754.243> 240.35 127.65<100.05 437>
LayerCount: 2
Fore
SplineSet
305.900390625 777.400390625 m 0xf0
 316.25 777.400390625 326.599609375 775.099609375 336.950195312 771.650390625 c 0
 347.299804688 768.200195312 355.349609375 762.450195312 363.400390625 755.549804688 c 0
 370.299804688 748.650390625 376.049804688 740.599609375 379.5 731.400390625 c 1
 384.099609375 723.349609375 386.400390625 714.150390625 386.400390625 703.799804688 c 0
 386.400390625 693.450195312 384.099609375 684.25 379.5 675.049804688 c 0
 376.049804688 665.849609375 370.299804688 657.799804688 363.400390625 650.900390625 c 1
 355.349609375 645.150390625 347.299804688 639.400390625 336.950195312 635.950195312 c 0
 326.599609375 632.5 316.25 630.200195312 305.900390625 630.200195312 c 0
 295.549804688 630.200195312 285.200195312 632.5 274.849609375 635.950195312 c 0
 264.5 639.400390625 256.450195312 645.150390625 248.400390625 650.900390625 c 1
 241.5 657.799804688 235.75 665.849609375 232.299804688 675.049804688 c 0
 227.700195312 684.25 225.400390625 693.450195312 225.400390625 703.799804688 c 0
 225.400390625 713 227.700195312 722.200195312 230 730.25 c 1
 234.599609375 738.299804688 239.200195312 746.349609375 246.099609375 754.400390625 c 0
 251.849609375 761.299804688 259.900390625 767.049804688 270.25 770.5 c 0
 280.599609375 775.099609375 292.099609375 777.400390625 305.900390625 777.400390625 c 0xf0
116.150390625 537.049804688 m 1
 368 537.049804688 l 1
 368 100.049804688 l 1
 486.450195312 100.049804688 l 1
 486.450195312 0 l 1
 110.400390625 0 l 1
 110.400390625 100.049804688 l 1
 240.349609375 100.049804688 l 1
 240.349609375 437 l 1xe8
 116.150390625 437 l 1
 116.150390625 537.049804688 l 1
EndSplineSet
Validated: 524289
EndChar

StartChar: j
Encoding: 106 106 75
Width: 600
VWidth: 1150
GlyphClass: 2
Flags: W
HStem: -203.55 109.25<159.891 269.914> -29.2002 20G<97.5352 114.425> 432.4 104.649<113.85 300.15> 630.2 151.8<309.71 421.69>
VStem: 284.05 163.3<655.505 757.845> 300.15 129.949<-62.3693 432.4>
LayerCount: 2
Fore
SplineSet
113.849609375 537.049804688 m 1xf4
 430.099609375 537.049804688 l 1
 430.099609375 26.4501953125 l 2
 430.099609375 -13.7998046875 424.349609375 -48.2998046875 412.849609375 -78.2001953125 c 0
 401.349609375 -105.799804688 386.400390625 -129.950195312 365.700195312 -149.5 c 0
 347.299804688 -167.900390625 324.299804688 -181.700195312 296.700195312 -190.900390625 c 0
 271.400390625 -198.950195312 242.650390625 -203.549804688 211.599609375 -203.549804688 c 0
 175.950195312 -203.549804688 142.599609375 -195.5 113.849609375 -180.549804688 c 0
 85.099609375 -165.599609375 57.5 -142.599609375 33.349609375 -113.849609375 c 1
 112.700195312 -9.2001953125 l 1
 116.150390625 -10.349609375 119.599609375 -12.650390625 119.599609375 -13.7998046875 c 0
 121.900390625 -16.099609375 121.900390625 -18.400390625 124.200195312 -20.7001953125 c 1
 124.200195312 -24.150390625 126.5 -27.599609375 126.5 -32.2001953125 c 1
 128.799804688 -35.650390625 131.099609375 -40.25 134.549804688 -46 c 0
 138 -51.75 142.599609375 -57.5 149.5 -62.099609375 c 1
 154.099609375 -69 161 -73.599609375 167.900390625 -78.2001953125 c 0
 174.799804688 -82.7998046875 181.700195312 -86.25 190.900390625 -89.7001953125 c 0
 197.799804688 -93.150390625 207 -94.2998046875 215.049804688 -94.2998046875 c 0
 226.549804688 -94.2998046875 236.900390625 -92 248.400390625 -87.400390625 c 0
 257.599609375 -83.9501953125 266.799804688 -77.0498046875 276 -66.7001953125 c 0
 282.900390625 -57.5 289.799804688 -46 294.400390625 -31.0498046875 c 0
 297.849609375 -16.099609375 300.150390625 1.150390625 300.150390625 21.849609375 c 2
 300.150390625 432.400390625 l 1
 113.849609375 432.400390625 l 1
 113.849609375 537.049804688 l 1xf4
365.700195312 782 m 0
 376.049804688 782 386.400390625 779.700195312 396.75 776.25 c 0
 407.099609375 772.799804688 415.150390625 767.049804688 423.200195312 760.150390625 c 0
 430.099609375 753.25 435.849609375 745.200195312 440.450195312 736 c 0
 445.049804688 725.650390625 447.349609375 716.450195312 447.349609375 706.099609375 c 0
 447.349609375 695.75 445.049804688 686.549804688 440.450195312 677.349609375 c 0
 435.849609375 668.150390625 430.099609375 660.099609375 423.200195312 653.200195312 c 0
 415.150390625 646.299804688 407.099609375 640.549804688 396.75 637.099609375 c 0
 386.400390625 632.5 376.049804688 630.200195312 365.700195312 630.200195312 c 0
 355.349609375 630.200195312 345 632.5 334.650390625 637.099609375 c 0
 324.299804688 640.549804688 316.25 646.299804688 308.200195312 653.200195312 c 0
 300.150390625 660.099609375 294.400390625 668.150390625 289.799804688 677.349609375 c 0
 286.349609375 686.549804688 284.049804688 695.75 284.049804688 706.099609375 c 0xf8
 284.049804688 715.299804688 285.200195312 724.5 289.799804688 733.700195312 c 1
 292.099609375 742.900390625 297.849609375 750.950195312 305.900390625 759 c 0
 312.799804688 765.900390625 320.849609375 771.650390625 331.200195312 775.099609375 c 0
 341.549804688 779.700195312 353.049804688 782 365.700195312 782 c 0
EndSplineSet
Validated: 524289
EndChar

StartChar: k
Encoding: 107 107 76
Width: 600
VWidth: 1150
GlyphClass: 2
Flags: W
HStem: 0 16.4004G<69 198.95 405.424 577.3>
VStem: 69 129.95<0 201.25 339.25 758.892>
LayerCount: 2
Fore
SplineSet
69 776.25 m 1
 215.049804688 776.25 l 1
 215.049804688 771.650390625 213.900390625 768.200195312 212.75 765.900390625 c 0
 211.599609375 762.450195312 209.299804688 760.150390625 207 759 c 1
 205.849609375 756.700195312 203.549804688 754.400390625 202.400390625 752.099609375 c 0
 200.099609375 749.799804688 198.950195312 747.5 198.950195312 744.049804688 c 2
 198.950195312 339.25 l 1
 404.799804688 542.799804688 l 1
 432.400390625 537.049804688 454.25 533.599609375 470.349609375 533.599609375 c 2
 554.299804688 533.599609375 l 1
 334.650390625 322 l 1
 354.200195312 299 373.75 273.700195312 395.599609375 244.950195312 c 0
 416.299804688 216.200195312 437 188.599609375 457.700195312 158.700195312 c 1
 479.549804688 131.099609375 500.25 102.349609375 519.799804688 74.75 c 0
 540.5 47.150390625 560.049804688 23 577.299804688 1.150390625 c 1
 419.75 -4.599609375 l 1
 242.650390625 242.650390625 l 1
 198.950195312 201.25 l 1
 198.950195312 0 l 1
 69 0 l 1
 69 776.25 l 1
EndSplineSet
Validated: 524289
EndChar

StartChar: l
Encoding: 108 108 77
Width: 600
VWidth: 1150
GlyphClass: 2
Flags: W
HStem: 0 100.05<77.0498 224.25 353.05 500.25> 676.2 100.05<83.9502 224.25>
VStem: 224.25 128.8<100.05 676.2>
LayerCount: 2
Fore
SplineSet
83.9501953125 776.25 m 1
 353.049804688 776.25 l 1
 353.049804688 100.049804688 l 1
 500.25 100.049804688 l 1
 500.25 0 l 1
 77.0498046875 0 l 1
 77.0498046875 100.049804688 l 1
 224.25 100.049804688 l 1
 224.25 676.200195312 l 1
 83.9501953125 676.200195312 l 1
 83.9501953125 776.25 l 1
EndSplineSet
Validated: 524289
EndChar

StartChar: m
Encoding: 109 109 78
Width: 600
VWidth: 1150
GlyphClass: 2
Flags: W
HStem: 0 21G<36.7998 152.95 233.45 351.9 430.1 549.7> 458.85 101.2<180.831 249.55 375.239 453.1>
VStem: 36.7998 116.15<0 450.191 509.45 542.8> 233.45 118.45<0 449.454> 430.1 119.601<0 438.7>
LayerCount: 2
Fore
SplineSet
36.7998046875 0 m 1
 36.7998046875 542.799804688 l 1
 147.200195312 542.799804688 l 1
 147.200195312 509.450195312 l 1
 164.450195312 526.700195312 180.549804688 540.5 197.799804688 547.400390625 c 1
 215.049804688 556.599609375 231.150390625 560.049804688 246.099609375 560.049804688 c 0
 253 560.049804688 259.900390625 558.900390625 269.099609375 556.599609375 c 0
 276 554.299804688 284.049804688 550.849609375 292.099609375 545.099609375 c 0
 300.150390625 540.5 307.049804688 533.599609375 315.099609375 526.700195312 c 1
 322 517.5 327.75 508.299804688 333.5 495.650390625 c 1
 346.150390625 516.349609375 363.400390625 532.450195312 382.950195312 542.799804688 c 0
 402.5 554.299804688 423.200195312 560.049804688 442.75 560.049804688 c 0
 463.450195312 560.049804688 480.700195312 556.599609375 494.5 549.700195312 c 0
 507.150390625 542.799804688 518.650390625 532.450195312 526.700195312 518.650390625 c 0
 534.75 504.849609375 540.5 487.599609375 545.099609375 466.900390625 c 1
 547.400390625 447.349609375 549.700195312 423.200195312 549.700195312 396.75 c 2
 549.700195312 0 l 1
 430.099609375 0 l 1
 430.099609375 374.900390625 l 2
 430.099609375 404.799804688 427.799804688 426.650390625 423.200195312 439.299804688 c 0
 417.450195312 451.950195312 408.25 458.849609375 395.599609375 458.849609375 c 0
 366.849609375 458.849609375 351.900390625 423.200195312 351.900390625 353.049804688 c 2
 351.900390625 0 l 1
 233.450195312 0 l 1
 233.450195312 369.150390625 l 2
 233.450195312 388.700195312 232.299804688 403.650390625 230 415.150390625 c 0
 228.849609375 426.650390625 225.400390625 435.849609375 223.099609375 441.599609375 c 1
 218.5 448.5 215.049804688 453.099609375 211.599609375 455.400390625 c 0
 208.150390625 457.700195312 203.549804688 458.849609375 200.099609375 458.849609375 c 0
 193.200195312 458.849609375 186.299804688 457.700195312 180.549804688 454.25 c 0
 174.799804688 450.799804688 169.049804688 446.200195312 165.599609375 438.150390625 c 0
 162.150390625 430.099609375 158.700195312 419.75 156.400390625 407.099609375 c 0
 154.099609375 393.299804688 152.950195312 376.049804688 152.950195312 356.5 c 2
 152.950195312 0 l 1
 36.7998046875 0 l 1
EndSplineSet
Validated: 524289
EndChar

StartChar: n
Encoding: 110 110 79
Width: 600
VWidth: 1150
GlyphClass: 2
Flags: W
HStem: 0 21G<69 198.95 391 517.5> 442.75 105.8<258.164 363.7> 517.05 20G<69 198.95>
VStem: 69 129.95<0 391.352 481.85 537.05> 391 126.5<0 413.978>
LayerCount: 2
Fore
SplineSet
69 0 m 1xd8
 69 537.049804688 l 1
 198.950195312 537.049804688 l 1xb8
 198.950195312 481.849609375 l 1
 217.349609375 501.400390625 239.200195312 517.5 264.5 530.150390625 c 0
 288.650390625 542.799804688 313.950195312 548.549804688 339.25 548.549804688 c 0
 365.700195312 548.549804688 391 545.099609375 412.849609375 535.900390625 c 1
 434.700195312 529 454.25 515.200195312 469.200195312 496.799804688 c 0
 484.150390625 479.549804688 496.799804688 456.549804688 504.849609375 427.799804688 c 0
 512.900390625 399.049804688 517.5 365.700195312 517.5 325.450195312 c 2
 517.5 0 l 1
 391 0 l 1
 391 324.299804688 l 2
 391 345 388.700195312 363.400390625 385.25 377.200195312 c 0
 381.799804688 393.299804688 376.049804688 404.799804688 369.150390625 414 c 0
 362.25 424.349609375 354.200195312 431.25 345 435.849609375 c 0
 335.799804688 440.450195312 325.450195312 442.75 313.950195312 442.75 c 0
 297.849609375 442.75 282.900390625 439.299804688 269.099609375 432.400390625 c 1
 254.150390625 426.650390625 241.5 417.450195312 232.299804688 405.950195312 c 1
 220.799804688 394.450195312 213.900390625 380.650390625 207 363.400390625 c 1
 202.400390625 347.299804688 198.950195312 330.049804688 198.950195312 310.5 c 2
 198.950195312 0 l 1
 69 0 l 1xd8
EndSplineSet
Validated: 524289
EndChar

StartChar: o
Encoding: 111 111 80
Width: 600
VWidth: 1150
GlyphClass: 2
Flags: W
HStem: -18.4004 104.65<226.273 357.986> 445.05 103.5<223.565 352.835>
VStem: 33.3496 132.25<157.301 375.727> 414 127.65<151.341 375.432>
LayerCount: 2
Fore
SplineSet
292.099609375 548.549804688 m 0
 326.599609375 548.549804688 358.799804688 542.799804688 388.700195312 529 c 1
 419.75 517.5 446.200195312 499.099609375 469.200195312 473.799804688 c 1
 492.200195312 450.799804688 510.599609375 420.900390625 522.099609375 385.25 c 1
 535.900390625 349.599609375 541.650390625 310.5 541.650390625 265.650390625 c 0
 541.650390625 220.799804688 535.900390625 181.700195312 522.099609375 146.049804688 c 1
 510.599609375 110.400390625 492.200195312 80.5 470.349609375 57.5 c 1
 448.5 32.2001953125 422.049804688 13.7998046875 391 1.150390625 c 0
 359.950195312 -11.5 326.599609375 -18.400390625 290.950195312 -18.400390625 c 0
 255.299804688 -18.400390625 220.799804688 -11.5 190.900390625 2.2998046875 c 0
 158.700195312 16.099609375 132.25 35.650390625 108.099609375 59.7998046875 c 0
 83.9501953125 85.099609375 65.5498046875 115 52.900390625 149.5 c 0
 40.25 184 33.349609375 221.950195312 33.349609375 263.349609375 c 0
 33.349609375 303.599609375 40.25 341.549804688 52.900390625 377.200195312 c 1
 66.7001953125 411.700195312 85.099609375 441.599609375 109.25 466.900390625 c 0
 133.400390625 492.200195312 161 511.75 192.049804688 526.700195312 c 0
 223.099609375 541.650390625 256.450195312 548.549804688 292.099609375 548.549804688 c 0
414 263.349609375 m 0
 414 292.099609375 410.549804688 318.549804688 404.799804688 340.400390625 c 0
 399.049804688 363.400390625 389.849609375 382.950195312 378.349609375 397.900390625 c 0
 366.849609375 412.849609375 353.049804688 425.5 338.099609375 432.400390625 c 1
 323.150390625 441.599609375 305.900390625 445.049804688 288.650390625 445.049804688 c 0
 270.25 445.049804688 253 441.599609375 239.200195312 432.400390625 c 1
 223.099609375 425.5 210.450195312 412.849609375 200.099609375 397.900390625 c 0
 189.75 382.950195312 180.549804688 363.400390625 174.799804688 342.700195312 c 0
 169.049804688 319.700195312 165.599609375 295.549804688 165.599609375 267.950195312 c 0
 165.599609375 240.349609375 167.900390625 215.049804688 174.799804688 193.200195312 c 1
 179.400390625 171.349609375 188.599609375 151.799804688 200.099609375 135.700195312 c 0
 210.450195312 120.75 224.25 108.099609375 239.200195312 98.900390625 c 0
 254.150390625 90.849609375 271.400390625 86.25 290.950195312 86.25 c 0
 328.900390625 86.25 358.799804688 101.200195312 380.650390625 131.099609375 c 0
 402.5 162.150390625 414 205.849609375 414 263.349609375 c 0
EndSplineSet
Validated: 524289
EndChar

StartChar: p
Encoding: 112 112 81
Width: 600
VWidth: 1150
GlyphClass: 2
Flags: W
HStem: -192.05 21G<63.2184 192.05> -17.25 105.8<237.038 357.755> 442.75 105.8<235.65 359.441> 517.05 20G<62.0996 186.3>
VStem: 63.25 128.8<-192.05 35.6504 143.786 395.437 481.85 537.05> 414 128.8<153.62 378.623>
LayerCount: 2
Fore
SplineSet
192.049804688 273.700195312 m 0xec
 192.049804688 240.349609375 194.349609375 212.75 200.099609375 188.599609375 c 0
 204.700195312 164.450195312 211.599609375 146.049804688 220.799804688 131.099609375 c 0
 228.849609375 116.150390625 240.349609375 105.799804688 253 98.900390625 c 0
 265.650390625 92 280.599609375 88.5498046875 296.700195312 88.5498046875 c 0
 309.349609375 88.5498046875 323.150390625 92 336.950195312 97.75 c 0
 350.75 103.5 363.400390625 113.849609375 374.900390625 126.5 c 0
 386.400390625 140.299804688 395.599609375 158.700195312 402.5 179.400390625 c 0
 410.549804688 202.400390625 414 228.849609375 414 261.049804688 c 0
 414 319.700195312 403.650390625 364.549804688 382.950195312 395.599609375 c 0
 362.25 426.650390625 332.349609375 442.75 293.25 442.75 c 0
 272.549804688 442.75 255.299804688 438.150390625 242.650390625 428.950195312 c 0
 230 419.75 219.650390625 407.099609375 211.599609375 391 c 0
 203.549804688 376.049804688 198.950195312 357.650390625 195.5 338.099609375 c 1
 193.200195312 317.400390625 192.049804688 295.549804688 192.049804688 273.700195312 c 0xec
62.099609375 537.049804688 m 1xdc
 186.299804688 537.049804688 l 1xdc
 186.299804688 481.849609375 l 1
 194.349609375 494.5 204.700195312 504.849609375 215.049804688 512.900390625 c 0
 225.400390625 520.950195312 236.900390625 527.849609375 248.400390625 533.599609375 c 0
 258.75 539.349609375 270.25 542.799804688 281.75 545.099609375 c 0
 293.25 547.400390625 304.75 548.549804688 315.099609375 548.549804688 c 0xec
 346.150390625 548.549804688 376.049804688 542.799804688 403.650390625 530.150390625 c 0
 431.25 517.5 455.400390625 499.099609375 476.099609375 476.099609375 c 1
 496.799804688 450.799804688 512.900390625 420.900390625 524.400390625 384.099609375 c 0
 537.049804688 347.299804688 542.799804688 303.599609375 542.799804688 254.150390625 c 0
 542.799804688 209.299804688 537.049804688 169.049804688 524.400390625 135.700195312 c 0
 511.75 102.349609375 495.650390625 73.599609375 474.950195312 50.599609375 c 0
 454.25 28.75 430.099609375 11.5 402.5 0 c 0
 374.900390625 -11.5 346.150390625 -17.25 316.25 -17.25 c 0
 294.400390625 -17.25 271.400390625 -12.650390625 248.400390625 -2.2998046875 c 0
 226.549804688 6.900390625 207 19.5498046875 192.049804688 35.650390625 c 1
 192.049804688 -192.049804688 l 1
 63.25 -192.049804688 l 1
 62.099609375 537.049804688 l 1xdc
EndSplineSet
Validated: 524289
EndChar

StartChar: q
Encoding: 113 113 82
Width: 600
VWidth: 1150
GlyphClass: 2
Flags: W
HStem: -192.05 21G<385.25 514.05> -18.4004 109.25<222.314 336.263> 443.9 104.649<217.255 337.463> 517.05 20G<389.85 514.05>
VStem: 33.3496 129.95<163.311 380.598> 385.25 128.8<-192.05 36.7998 150.356 386.245 493.35 537.05>
LayerCount: 2
Fore
SplineSet
261.049804688 548.549804688 m 0xec
 271.400390625 548.549804688 282.900390625 547.400390625 295.549804688 545.099609375 c 0
 308.200195312 541.650390625 319.700195312 538.200195312 331.200195312 533.599609375 c 0
 342.700195312 529 354.200195312 523.25 363.400390625 516.349609375 c 1
 374.900390625 509.450195312 382.950195312 501.400390625 389.849609375 493.349609375 c 1
 389.849609375 537.049804688 l 1
 514.049804688 537.049804688 l 1xdc
 514.049804688 -192.049804688 l 1
 385.25 -192.049804688 l 1
 385.25 36.7998046875 l 1
 377.200195312 28.75 369.150390625 20.7001953125 358.799804688 13.7998046875 c 0
 348.450195312 6.900390625 338.099609375 1.150390625 327.75 -4.599609375 c 0
 317.400390625 -9.2001953125 305.900390625 -12.650390625 294.400390625 -14.9501953125 c 0
 281.75 -17.25 270.25 -18.400390625 259.900390625 -18.400390625 c 0
 228.849609375 -18.400390625 198.950195312 -11.5 171.349609375 2.2998046875 c 0
 143.75 17.25 119.599609375 36.7998046875 98.900390625 62.099609375 c 0
 79.349609375 87.400390625 63.25 117.299804688 50.599609375 152.950195312 c 0
 39.099609375 188.599609375 33.349609375 226.549804688 33.349609375 269.099609375 c 0
 33.349609375 311.650390625 39.099609375 349.599609375 50.599609375 384.099609375 c 0
 62.099609375 418.599609375 78.2001953125 448.5 98.900390625 471.5 c 1
 118.450195312 496.799804688 142.599609375 515.200195312 170.200195312 529 c 1
 198.950195312 541.650390625 228.849609375 548.549804688 261.049804688 548.549804688 c 0xec
273.700195312 443.900390625 m 0xec
 258.75 443.900390625 243.799804688 440.450195312 231.150390625 432.400390625 c 0
 218.5 424.349609375 207 414 195.5 399.049804688 c 1
 186.299804688 384.099609375 177.099609375 366.849609375 172.5 345 c 1
 165.599609375 324.299804688 163.299804688 300.150390625 163.299804688 273.700195312 c 0
 163.299804688 246.099609375 166.75 220.799804688 172.5 198.950195312 c 0
 178.25 177.099609375 186.299804688 157.549804688 197.799804688 141.450195312 c 1
 207 125.349609375 219.650390625 112.700195312 234.599609375 103.5 c 0
 248.400390625 95.4501953125 263.349609375 90.849609375 278.299804688 90.849609375 c 0
 311.650390625 90.849609375 336.950195312 105.799804688 355.349609375 135.700195312 c 0
 373.75 164.450195312 382.950195312 209.299804688 382.950195312 270.25 c 0
 382.950195312 301.299804688 380.650390625 327.75 374.900390625 349.599609375 c 0
 370.299804688 371.450195312 363.400390625 389.849609375 354.200195312 403.650390625 c 0
 343.849609375 417.450195312 332.349609375 427.799804688 319.700195312 434.700195312 c 1
 305.900390625 440.450195312 290.950195312 443.900390625 273.700195312 443.900390625 c 0xec
EndSplineSet
Validated: 524289
EndChar

StartChar: r
Encoding: 114 114 83
Width: 600
VWidth: 1150
GlyphClass: 2
Flags: W
HStem: 0 21G<102.35 232.3> 439.3 109.25<302.139 430.282> 517.05 20G<102.35 234.6>
VStem: 102.35 129.95<0 364.623 478.4 537.05>
LayerCount: 2
Fore
SplineSet
102.349609375 537.049804688 m 1xb0
 234.599609375 537.049804688 l 1xb0
 234.599609375 478.400390625 l 1
 242.650390625 488.75 253 497.950195312 264.5 506 c 0
 274.849609375 514.049804688 286.349609375 522.099609375 299 529 c 0
 311.650390625 534.75 324.299804688 540.5 338.099609375 542.799804688 c 1
 351.900390625 547.400390625 365.700195312 548.549804688 379.5 548.549804688 c 0
 410.549804688 548.549804688 439.299804688 543.950195312 466.900390625 533.599609375 c 0
 493.349609375 524.400390625 517.5 509.450195312 539.349609375 489.900390625 c 1
 479.549804688 364.549804688 l 1
 461.150390625 391 443.900390625 409.400390625 425.5 420.900390625 c 1
 409.400390625 433.549804688 391 439.299804688 373.75 439.299804688 c 0xd0
 354.200195312 439.299804688 335.799804688 434.700195312 318.549804688 426.650390625 c 0
 301.299804688 418.599609375 286.349609375 407.099609375 273.700195312 392.150390625 c 0
 261.049804688 377.200195312 250.700195312 361.099609375 243.799804688 341.549804688 c 0
 235.75 322 232.299804688 302.450195312 232.299804688 280.599609375 c 2
 232.299804688 0 l 1
 102.349609375 0 l 1
 102.349609375 537.049804688 l 1xb0
EndSplineSet
Validated: 524289
EndChar

StartChar: s
Encoding: 115 115 84
Width: 600
VWidth: 1150
GlyphClass: 2
Flags: W
HStem: -18.4004 105.801<208.77 372.889> 448.5 100.05<217.251 380.549>
VStem: 87.4004 119.6<364.245 436.195> 386.4 129.949<103.334 181.799>
LayerCount: 2
Fore
SplineSet
448.5 362.25 m 1
 445.049804688 362.25 442.75 363.400390625 441.599609375 364.549804688 c 0
 440.450195312 365.700195312 439.299804688 368 437 370.299804688 c 1
 437 373.75 435.849609375 376.049804688 434.700195312 379.5 c 0
 433.549804688 381.799804688 433.549804688 384.099609375 432.400390625 386.400390625 c 0
 425.5 394.450195312 417.450195312 402.5 407.099609375 410.549804688 c 0
 396.75 418.599609375 386.400390625 424.349609375 373.75 430.099609375 c 0
 361.099609375 435.849609375 348.450195312 439.299804688 334.650390625 443.900390625 c 1
 320.849609375 446.200195312 307.049804688 448.5 294.400390625 448.5 c 0
 282.900390625 448.5 271.400390625 447.349609375 261.049804688 446.200195312 c 0
 250.700195312 445.049804688 241.5 441.599609375 232.299804688 438.150390625 c 0
 225.400390625 434.700195312 218.5 428.950195312 213.900390625 423.200195312 c 0
 209.299804688 417.450195312 207 409.400390625 207 401.349609375 c 0
 207 391 209.299804688 382.950195312 213.900390625 377.200195312 c 0
 219.650390625 370.299804688 227.700195312 364.549804688 236.900390625 358.799804688 c 0
 248.400390625 353.049804688 261.049804688 348.450195312 276 342.700195312 c 0
 290.950195312 338.099609375 309.349609375 333.5 330.049804688 327.75 c 0
 393.299804688 310.5 440.450195312 287.5 471.5 258.75 c 0
 501.400390625 230 516.349609375 197.799804688 516.349609375 162.150390625 c 0
 516.349609375 138 510.599609375 115 500.25 93.150390625 c 0
 489.900390625 71.2998046875 473.799804688 52.900390625 454.25 35.650390625 c 0
 434.700195312 18.400390625 410.549804688 5.75 381.799804688 -4.599609375 c 0
 353.049804688 -13.7998046875 322 -18.400390625 287.5 -18.400390625 c 0
 242.650390625 -18.400390625 200.099609375 -11.5 162.150390625 2.2998046875 c 0
 124.200195312 17.25 87.400390625 40.25 54.0498046875 72.4501953125 c 1
 120.75 193.200195312 l 1
 125.349609375 192.049804688 128.799804688 189.75 131.099609375 185.150390625 c 0
 133.400390625 180.549804688 135.700195312 173.650390625 139.150390625 165.599609375 c 0
 144.900390625 155.25 154.099609375 146.049804688 165.599609375 136.849609375 c 0
 175.950195312 127.650390625 188.599609375 119.599609375 202.400390625 112.700195312 c 0
 216.200195312 104.650390625 231.150390625 98.900390625 246.099609375 94.2998046875 c 0
 261.049804688 89.7001953125 276 87.400390625 289.799804688 87.400390625 c 0
 320.849609375 87.400390625 343.849609375 92 361.099609375 101.200195312 c 0
 378.349609375 109.25 386.400390625 123.049804688 386.400390625 140.299804688 c 0
 386.400390625 149.5 384.099609375 157.549804688 380.650390625 163.299804688 c 0
 377.200195312 170.200195312 370.299804688 177.099609375 363.400390625 182.849609375 c 1
 354.200195312 188.599609375 343.849609375 194.349609375 331.200195312 200.099609375 c 0
 318.549804688 204.700195312 302.450195312 209.299804688 282.900390625 215.049804688 c 0
 272.549804688 218.5 262.200195312 220.799804688 251.849609375 224.25 c 2
 220.799804688 234.599609375 l 2
 200.099609375 242.650390625 181.700195312 250.700195312 165.599609375 261.049804688 c 0
 148.349609375 271.400390625 134.549804688 281.75 123.049804688 294.400390625 c 0
 111.549804688 307.049804688 102.349609375 320.849609375 96.599609375 335.799804688 c 0
 90.849609375 351.900390625 87.400390625 369.150390625 87.400390625 388.700195312 c 0
 87.400390625 408.25 93.150390625 426.650390625 103.5 446.200195312 c 0
 113.849609375 465.75 128.799804688 483 147.200195312 496.799804688 c 0
 166.75 512.900390625 188.599609375 524.400390625 215.049804688 533.599609375 c 0
 241.5 543.950195312 269.099609375 548.549804688 300.150390625 548.549804688 c 0
 340.400390625 548.549804688 378.349609375 541.650390625 414 526.700195312 c 0
 449.650390625 511.75 481.849609375 488.75 510.599609375 455.400390625 c 1
 448.5 362.25 l 1
EndSplineSet
Validated: 524289
EndChar

StartChar: t
Encoding: 116 116 85
Width: 600
VWidth: 1150
GlyphClass: 2
Flags: W
HStem: -18.4004 112.7<324.004 421.671> 432.4 104.649<64.4004 180.55 313.95 476.1>
VStem: 170.2 132.25<108.023 429.98>
LayerCount: 2
Fore
SplineSet
195.5 662.400390625 m 1
 338.099609375 686.549804688 l 1
 338.099609375 676.200195312 336.950195312 668.150390625 333.5 662.400390625 c 0
 330.049804688 656.650390625 327.75 648.599609375 325.450195312 640.549804688 c 1
 313.950195312 537.049804688 l 1
 476.099609375 537.049804688 l 1
 476.099609375 432.400390625 l 1
 309.349609375 432.400390625 l 1
 308.200195312 404.799804688 307.049804688 376.049804688 303.599609375 347.299804688 c 1
 301.299804688 317.400390625 300.150390625 287.5 300.150390625 258.75 c 0
 300.150390625 230 301.299804688 204.700195312 302.450195312 184 c 0
 303.599609375 162.150390625 307.049804688 144.900390625 310.5 132.25 c 0
 315.099609375 119.599609375 322 109.25 328.900390625 103.5 c 1
 338.099609375 97.75 348.450195312 94.2998046875 361.099609375 94.2998046875 c 0
 373.75 94.2998046875 391 100.049804688 411.700195312 110.400390625 c 0
 432.400390625 121.900390625 456.549804688 138 483 157.549804688 c 1
 523.25 51.75 l 1
 492.200195312 29.900390625 461.150390625 12.650390625 430.099609375 0 c 0
 400.200195312 -12.650390625 370.299804688 -18.400390625 341.549804688 -18.400390625 c 0
 311.650390625 -18.400390625 286.349609375 -13.7998046875 264.5 -5.75 c 0
 242.650390625 2.2998046875 225.400390625 16.099609375 211.599609375 33.349609375 c 0
 196.650390625 50.599609375 186.299804688 73.599609375 179.400390625 101.200195312 c 1
 173.650390625 129.950195312 170.200195312 163.299804688 170.200195312 201.25 c 0
 170.200195312 227.700195312 171.349609375 259.900390625 172.5 296.700195312 c 0
 173.650390625 335.799804688 177.099609375 380.650390625 180.549804688 432.400390625 c 1
 64.400390625 432.400390625 l 1
 64.400390625 537.049804688 l 1
 187.450195312 537.049804688 l 1
 195.5 662.400390625 l 1
EndSplineSet
Validated: 524289
EndChar

StartChar: u
Encoding: 117 117 86
Width: 600
VWidth: 1150
GlyphClass: 2
Flags: W
HStem: -23 105.8<212.057 321.037> 0 21G<391 517.5> 517.05 20G<58.6504 185.15 377.2 507.15>
VStem: 58.6504 126.5<111.324 537.05> 377.2 129.95<0.539058 50.5996 134.754 537.05>
LayerCount: 2
Fore
SplineSet
507.150390625 537.049804688 m 1xb8
 507.150390625 64.400390625 l 2
 507.150390625 54.0498046875 508.299804688 43.7001953125 510.599609375 33.349609375 c 0
 511.75 23 514.049804688 11.5 517.5 0 c 1
 393.299804688 0 l 1x78
 388.700195312 3.4501953125 385.25 8.0498046875 384.099609375 14.9501953125 c 0
 382.950195312 21.849609375 381.799804688 27.599609375 381.799804688 33.349609375 c 2
 381.799804688 50.599609375 l 1
 373.75 39.099609375 364.549804688 28.75 353.049804688 19.5498046875 c 0
 341.549804688 10.349609375 328.900390625 2.2998046875 316.25 -3.4501953125 c 0
 303.599609375 -9.2001953125 289.799804688 -13.7998046875 276 -18.400390625 c 1
 263.349609375 -20.7001953125 249.549804688 -23 236.900390625 -23 c 0
 208.150390625 -23 184 -18.400390625 161 -11.5 c 1
 140.299804688 -2.2998046875 120.75 10.349609375 105.799804688 27.599609375 c 0
 90.849609375 46 78.2001953125 69 71.2998046875 98.900390625 c 1
 62.099609375 126.5 58.650390625 161 58.650390625 201.25 c 2
 58.650390625 537.049804688 l 1
 185.150390625 537.049804688 l 1
 185.150390625 201.25 l 2
 185.150390625 159.849609375 192.049804688 129.950195312 207 110.400390625 c 0
 220.799804688 92 239.200195312 82.7998046875 262.200195312 82.7998046875 c 0
 278.299804688 82.7998046875 293.25 86.25 308.200195312 92 c 1
 322 98.900390625 333.5 108.099609375 343.849609375 119.599609375 c 0
 354.200195312 131.099609375 362.25 144.900390625 368 161 c 0
 373.75 178.25 377.200195312 195.5 377.200195312 215.049804688 c 2
 377.200195312 537.049804688 l 1
 507.150390625 537.049804688 l 1xb8
EndSplineSet
Validated: 524289
EndChar

StartChar: v
Encoding: 118 118 87
Width: 600
VWidth: 1150
GlyphClass: 2
Flags: W
HStem: 0 21G<224.72 346.321> 517.05 20G<28.75 184 411.7 538.2>
VStem: 415.15 123.05<457.442 537.05>
LayerCount: 2
Fore
SplineSet
28.75 537.049804688 m 1
 184 537.049804688 l 1
 184 533.599609375 184 530.150390625 182.849609375 526.700195312 c 0
 181.700195312 523.25 181.700195312 520.950195312 179.400390625 517.5 c 1
 179.400390625 515.200195312 178.25 512.900390625 177.099609375 510.599609375 c 0
 175.950195312 507.150390625 175.950195312 503.700195312 175.950195312 500.25 c 1
 297.849609375 156.400390625 l 1
 349.599609375 308.200195312 l 2
 363.400390625 347.299804688 376.049804688 386.400390625 387.549804688 427.799804688 c 0
 399.049804688 466.900390625 408.25 503.700195312 415.150390625 537.049804688 c 1
 538.200195312 537.049804688 l 1
 529 499.099609375 517.5 458.849609375 503.700195312 416.299804688 c 0
 491.049804688 374.900390625 474.950195312 333.5 457.700195312 290.950195312 c 2
 338.099609375 0 l 1
 232.299804688 0 l 1
 28.75 537.049804688 l 1
EndSplineSet
Validated: 524289
EndChar

StartChar: w
Encoding: 119 119 88
Width: 600
VWidth: 1150
GlyphClass: 2
Flags: W
HStem: 0 21G<106.632 232.162 359.858 482.425> 517.05 20G<9.2002 151.8 439.3 561.2>
VStem: 256.45 79.3496<445.784 474.95> 439.3 121.9<362.79 537.05>
LayerCount: 2
Fore
SplineSet
9.2001953125 537.049804688 m 1
 151.799804688 537.049804688 l 1
 151.799804688 533.599609375 150.650390625 530.150390625 149.5 526.700195312 c 0
 148.349609375 524.400390625 147.200195312 522.099609375 144.900390625 519.799804688 c 0
 144.900390625 518.650390625 142.599609375 516.349609375 141.450195312 515.200195312 c 0
 140.299804688 512.900390625 139.150390625 509.450195312 139.150390625 506 c 2
 139.150390625 500.25 l 2
 139.150390625 497.950195312 139.150390625 495.650390625 140.299804688 493.349609375 c 2
 189.75 157.549804688 l 1
 256.450195312 474.950195312 l 1
 335.799804688 474.950195312 l 1
 411.700195312 158.700195312 l 1
 417.450195312 197.799804688 423.200195312 234.599609375 425.5 270.25 c 1
 430.099609375 305.900390625 432.400390625 338.099609375 434.700195312 368 c 0
 435.849609375 397.900390625 437 424.349609375 438.150390625 446.200195312 c 0
 439.299804688 469.200195312 439.299804688 487.599609375 439.299804688 501.400390625 c 2
 439.299804688 537.049804688 l 1
 561.200195312 537.049804688 l 1
 556.599609375 495.650390625 550.849609375 451.950195312 545.099609375 405.950195312 c 0
 539.349609375 359.950195312 532.450195312 313.950195312 524.400390625 266.799804688 c 0
 517.5 220.799804688 510.599609375 174.799804688 502.549804688 128.799804688 c 0
 494.5 83.9501953125 486.450195312 40.25 478.400390625 0 c 1
 364.549804688 0 l 1
 294.400390625 299 l 1
 227.700195312 0 l 1
 110.400390625 0 l 1
 9.2001953125 537.049804688 l 1
EndSplineSet
Validated: 524289
EndChar

StartChar: x
Encoding: 120 120 89
Width: 600
VWidth: 1150
GlyphClass: 2
Flags: W
HStem: 0 21G<28.75 188.102 390.739 550.85> 517.05 20G<31.0498 188.533 377.797 529>
LayerCount: 2
Fore
SplineSet
389.849609375 537.049804688 m 1
 529 537.049804688 l 1
 357.650390625 276 l 1
 404.799804688 208.150390625 446.200195312 149.5 478.400390625 101.200195312 c 1
 512.900390625 54.0498046875 535.900390625 19.5498046875 550.849609375 0 c 1
 403.650390625 0 l 1
 286.349609375 181.700195312 l 1
 175.950195312 0 l 1
 28.75 0 l 1
 213.900390625 272.549804688 l 1
 104.650390625 430.099609375 43.7001953125 517.5 31.0498046875 537.049804688 c 1
 175.950195312 537.049804688 l 1
 285.200195312 363.400390625 l 1
 389.849609375 537.049804688 l 1
EndSplineSet
Validated: 524289
EndChar

StartChar: y
Encoding: 121 121 90
Width: 600
VWidth: 1150
GlyphClass: 2
Flags: W
HStem: -203.55 104.649<104.42 182.033> 517.05 20G<35.6504 193.2 420.325 545.1>
LayerCount: 2
Fore
SplineSet
331.200195312 -58.650390625 m 2
 320.849609375 -85.099609375 310.5 -106.950195312 296.700195312 -124.200195312 c 1
 285.200195312 -142.599609375 271.400390625 -157.549804688 255.299804688 -170.200195312 c 0
 241.5 -181.700195312 225.400390625 -189.75 208.150390625 -195.5 c 0
 190.900390625 -201.25 173.650390625 -203.549804688 155.25 -203.549804688 c 0
 102.349609375 -203.549804688 55.2001953125 -182.849609375 12.650390625 -142.599609375 c 1
 77.0498046875 -32.2001953125 l 1
 81.650390625 -34.5 85.099609375 -36.7998046875 87.400390625 -39.099609375 c 1
 88.5498046875 -42.5498046875 89.7001953125 -44.849609375 92 -48.2998046875 c 1
 92 -51.75 93.150390625 -55.2001953125 94.2998046875 -58.650390625 c 0
 95.4501953125 -62.099609375 96.599609375 -66.7001953125 100.049804688 -71.2998046875 c 0
 105.799804688 -80.5 111.549804688 -87.400390625 119.599609375 -92 c 0
 127.650390625 -96.599609375 136.849609375 -98.900390625 148.349609375 -98.900390625 c 0
 156.400390625 -98.900390625 164.450195312 -96.599609375 172.5 -94.2998046875 c 1
 179.400390625 -89.7001953125 186.299804688 -85.099609375 193.200195312 -75.900390625 c 1
 201.25 -69 208.150390625 -57.5 216.200195312 -43.7001953125 c 0
 223.099609375 -31.0498046875 230 -13.7998046875 236.900390625 6.900390625 c 1
 35.650390625 537.049804688 l 1
 193.200195312 537.049804688 l 1
 193.200195312 533.599609375 193.200195312 530.150390625 192.049804688 526.700195312 c 0
 190.900390625 523.25 190.900390625 520.950195312 188.599609375 517.5 c 1
 188.599609375 515.200195312 187.450195312 512.900390625 186.299804688 510.599609375 c 0
 185.150390625 507.150390625 185.150390625 503.700195312 185.150390625 500.25 c 1
 304.75 166.75 l 1
 356.5 308.200195312 l 2
 363.400390625 327.75 370.299804688 347.299804688 377.200195312 368 c 0
 382.950195312 387.549804688 388.700195312 407.099609375 395.599609375 427.799804688 c 1
 400.200195312 446.200195312 405.950195312 465.75 410.549804688 485.299804688 c 0
 415.150390625 503.700195312 418.599609375 520.950195312 422.049804688 537.049804688 c 1
 545.099609375 537.049804688 l 1
 535.900390625 499.099609375 524.400390625 458.849609375 510.599609375 417.450195312 c 0
 496.799804688 376.049804688 481.849609375 333.5 464.599609375 290.950195312 c 2
 331.200195312 -58.650390625 l 2
EndSplineSet
Validated: 524289
EndChar

StartChar: z
Encoding: 122 122 91
Width: 600
VWidth: 1150
GlyphClass: 2
Flags: W
HStem: 0 125.35<236.829 525.55> 0 108.1<225.4 525.281> 416.3 109.25<71.2998 327.75>
LayerCount: 2
Fore
SplineSet
71.2998046875 525.549804688 m 1x60
 500.25 525.549804688 l 1
 500.25 445.049804688 l 1
 225.400390625 108.099609375 l 1
 469.200195312 108.099609375 l 2x60
 474.950195312 108.099609375 480.700195312 109.25 485.299804688 111.549804688 c 0
 489.900390625 113.849609375 494.5 116.150390625 499.099609375 117.299804688 c 1
 502.549804688 119.599609375 507.150390625 121.900390625 510.599609375 123.049804688 c 0
 515.200195312 124.200195312 519.799804688 125.349609375 525.549804688 125.349609375 c 1
 525.549804688 0 l 1xa0
 49.4501953125 0 l 1
 49.4501953125 80.5 l 1
 327.75 416.299804688 l 1
 71.2998046875 416.299804688 l 1
 71.2998046875 525.549804688 l 1x60
EndSplineSet
Validated: 524289
EndChar

StartChar: braceleft
Encoding: 123 123 92
Width: 600
VWidth: 1150
GlyphClass: 2
Flags: W
HStem: -182.85 101.199<322.429 478.4> 240.35 102.351<51.75 150.705> 629.05 103.5<315.027 479.55>
VStem: 165.6 126.5<-50.6833 226.546 364.107 605.343>
LayerCount: 2
Fore
SplineSet
163.299804688 29.900390625 m 2
 163.299804688 54.0498046875 l 1
 164.450195312 64.400390625 164.450195312 74.75 165.599609375 85.099609375 c 1
 165.599609375 117.299804688 l 1
 166.75 126.5 166.75 135.700195312 166.75 143.75 c 0
 166.75 163.299804688 165.599609375 178.25 162.150390625 190.900390625 c 0
 158.700195312 203.549804688 155.25 212.75 149.5 220.799804688 c 0
 143.75 227.700195312 136.849609375 232.299804688 128.799804688 235.75 c 0
 120.75 239.200195312 110.400390625 240.349609375 100.049804688 240.349609375 c 2
 51.75 240.349609375 l 1
 51.75 342.700195312 l 1
 98.900390625 342.700195312 l 2
 123.049804688 342.700195312 140.299804688 349.599609375 151.799804688 363.400390625 c 0
 163.299804688 378.349609375 169.049804688 401.349609375 169.049804688 434.700195312 c 0
 169.049804688 439.299804688 169.049804688 446.200195312 167.900390625 455.400390625 c 1
 167.900390625 483 l 1
 167.900390625 508.299804688 l 1
 166.75 517.5 166.75 522.099609375 166.75 525.549804688 c 0
 166.75 593.400390625 185.150390625 645.150390625 221.950195312 680.799804688 c 0
 258.75 715.299804688 313.950195312 732.549804688 386.400390625 732.549804688 c 2
 479.549804688 732.549804688 l 1
 479.549804688 629.049804688 l 1
 366.849609375 629.049804688 l 2
 342.700195312 629.049804688 324.299804688 621 312.799804688 606.049804688 c 0
 300.150390625 591.099609375 294.400390625 568.099609375 294.400390625 537.049804688 c 2
 294.400390625 516.349609375 l 1
 294.400390625 489.900390625 l 1
 295.549804688 481.849609375 295.549804688 473.799804688 296.700195312 464.599609375 c 1
 296.700195312 447.349609375 l 2
 296.700195312 414 289.799804688 382.950195312 274.849609375 356.5 c 0
 259.900390625 330.049804688 240.349609375 308.200195312 215.049804688 292.099609375 c 1
 226.549804688 284.049804688 236.900390625 274.849609375 246.099609375 264.5 c 0
 256.450195312 253 264.5 240.349609375 271.400390625 226.549804688 c 0
 279.450195312 212.75 285.200195312 197.799804688 288.650390625 180.549804688 c 0
 292.099609375 163.299804688 294.400390625 146.049804688 294.400390625 127.650390625 c 2
 294.400390625 105.799804688 l 1
 293.25 96.599609375 293.25 85.099609375 292.099609375 74.75 c 1
 292.099609375 46 l 1
 292.099609375 29.900390625 l 2
 292.099609375 -9.2001953125 300.150390625 -37.9501953125 317.400390625 -55.2001953125 c 0
 333.5 -72.4501953125 359.950195312 -81.650390625 397.900390625 -81.650390625 c 2
 478.400390625 -81.650390625 l 1
 478.400390625 -182.849609375 l 1
 414 -182.849609375 l 2
 405.950195312 -182.849609375 394.450195312 -182.849609375 379.5 -181.700195312 c 0
 363.400390625 -180.549804688 346.150390625 -179.400390625 328.900390625 -175.950195312 c 0
 311.650390625 -172.5 294.400390625 -169.049804688 276 -163.299804688 c 0
 259.900390625 -158.700195312 244.950195312 -151.799804688 233.450195312 -143.75 c 0
 209.299804688 -126.5 192.049804688 -102.349609375 180.549804688 -72.4501953125 c 0
 169.049804688 -42.5498046875 163.299804688 -8.0498046875 163.299804688 29.900390625 c 2
EndSplineSet
Validated: 524289
EndChar

StartChar: bar
Encoding: 124 124 93
Width: 600
VWidth: 1150
GlyphClass: 2
Flags: W
VStem: 226.55 123.05<-173.65 749.8>
LayerCount: 2
Fore
SplineSet
226.549804688 749.799804688 m 1
 349.599609375 749.799804688 l 1
 349.599609375 -173.650390625 l 1
 226.549804688 -173.650390625 l 1
 226.549804688 749.799804688 l 1
EndSplineSet
Validated: 524289
EndChar

StartChar: braceright
Encoding: 125 125 94
Width: 600
VWidth: 1150
GlyphClass: 2
Flags: W
HStem: -182.85 101.199<97.75 254.586> 240.35 102.351<425.445 524.4> 629.05 103.5<96.5996 261.123>
VStem: 279.45 127.649<-56.631 221.979 365.256 605.343>
LayerCount: 2
Fore
SplineSet
412.849609375 29.900390625 m 0
 412.849609375 -8.0498046875 407.099609375 -42.5498046875 395.599609375 -72.4501953125 c 0
 384.099609375 -102.349609375 366.849609375 -126.5 342.700195312 -143.75 c 0
 331.200195312 -151.799804688 317.400390625 -158.700195312 299 -163.299804688 c 1
 282.900390625 -169.049804688 264.5 -172.5 247.25 -175.950195312 c 0
 230 -179.400390625 212.75 -180.549804688 197.799804688 -181.700195312 c 0
 181.700195312 -182.849609375 170.200195312 -182.849609375 162.150390625 -182.849609375 c 2
 97.75 -182.849609375 l 1
 97.75 -81.650390625 l 1
 178.25 -81.650390625 l 2
 216.200195312 -81.650390625 242.650390625 -72.4501953125 259.900390625 -55.2001953125 c 0
 276 -37.9501953125 284.049804688 -9.2001953125 284.049804688 29.900390625 c 2
 284.049804688 46 l 2
 284.049804688 54.0498046875 284.049804688 64.400390625 282.900390625 74.75 c 1
 282.900390625 105.799804688 l 1
 281.75 116.150390625 281.75 123.049804688 281.75 127.650390625 c 0
 281.75 146.049804688 284.049804688 163.299804688 287.5 180.549804688 c 0
 290.950195312 197.799804688 296.700195312 212.75 303.599609375 226.549804688 c 0
 310.5 240.349609375 318.549804688 253 328.900390625 264.5 c 0
 339.25 274.849609375 349.599609375 284.049804688 361.099609375 292.099609375 c 1
 335.799804688 308.200195312 316.25 330.049804688 301.299804688 356.5 c 0
 286.349609375 382.950195312 279.450195312 414 279.450195312 447.349609375 c 0
 279.450195312 450.799804688 279.450195312 457.700195312 280.599609375 464.599609375 c 1
 280.599609375 489.900390625 l 1
 281.75 499.099609375 281.75 508.299804688 281.75 516.349609375 c 2
 281.75 537.049804688 l 2
 281.75 568.099609375 276 591.099609375 264.5 606.049804688 c 0
 251.849609375 621 233.450195312 629.049804688 209.299804688 629.049804688 c 2
 96.599609375 629.049804688 l 1
 96.599609375 732.549804688 l 1
 189.75 732.549804688 l 2
 262.200195312 732.549804688 317.400390625 715.299804688 354.200195312 680.799804688 c 0
 391 645.150390625 409.400390625 593.400390625 409.400390625 525.549804688 c 2
 409.400390625 508.299804688 l 1
 408.25 501.400390625 408.25 492.200195312 407.099609375 483 c 1
 407.099609375 455.400390625 l 1
 407.099609375 434.700195312 l 2
 407.099609375 402.5 412.849609375 379.5 424.349609375 364.549804688 c 0
 435.849609375 349.599609375 453.099609375 342.700195312 477.25 342.700195312 c 2
 524.400390625 342.700195312 l 1
 524.400390625 240.349609375 l 1
 476.099609375 240.349609375 l 2
 465.75 240.349609375 455.400390625 239.200195312 447.349609375 235.75 c 0
 439.299804688 232.299804688 432.400390625 227.700195312 426.650390625 220.799804688 c 0
 420.900390625 212.75 417.450195312 203.549804688 414 190.900390625 c 0
 410.549804688 178.25 409.400390625 163.299804688 409.400390625 143.75 c 2
 409.400390625 117.299804688 l 1
 410.549804688 105.799804688 410.549804688 95.4501953125 411.700195312 85.099609375 c 1
 411.700195312 54.0498046875 l 1
 412.849609375 43.7001953125 412.849609375 35.650390625 412.849609375 29.900390625 c 0
EndSplineSet
Validated: 524289
EndChar

StartChar: asciitilde
Encoding: 126 126 95
Width: 600
VWidth: 1150
GlyphClass: 2
Flags: W
HStem: 364.55 113.851<333.484 424.821> 446.2 115<162.674 258.606>
LayerCount: 2
Fore
SplineSet
31.0498046875 435.849609375 m 1x40
 42.5498046875 454.25 55.2001953125 471.5 71.2998046875 486.450195312 c 1
 85.099609375 501.400390625 101.200195312 515.200195312 117.299804688 526.700195312 c 0
 132.25 537.049804688 148.349609375 546.25 163.299804688 552 c 0
 179.400390625 557.75 194.349609375 561.200195312 207 561.200195312 c 0x40
 218.5 561.200195312 228.849609375 560.049804688 239.200195312 556.599609375 c 0
 248.400390625 554.299804688 257.599609375 550.849609375 266.799804688 547.400390625 c 1
 274.849609375 542.799804688 284.049804688 537.049804688 292.099609375 531.299804688 c 0
 301.299804688 524.400390625 310.5 517.5 320.849609375 509.450195312 c 0
 331.200195312 501.400390625 341.549804688 494.5 351.900390625 487.599609375 c 0
 361.099609375 481.849609375 370.299804688 478.400390625 378.349609375 478.400390625 c 0
 386.400390625 478.400390625 393.299804688 479.549804688 400.200195312 483 c 0
 405.950195312 486.450195312 412.849609375 491.049804688 420.900390625 496.799804688 c 0
 427.799804688 502.549804688 434.700195312 510.599609375 442.75 520.950195312 c 0
 450.799804688 531.299804688 458.849609375 542.799804688 469.200195312 557.75 c 1
 555.450195312 488.75 l 1
 545.099609375 471.5 533.599609375 455.400390625 519.799804688 441.599609375 c 1
 508.299804688 425.5 494.5 412.849609375 478.400390625 401.349609375 c 1
 464.599609375 389.849609375 448.5 380.650390625 432.400390625 374.900390625 c 0
 416.299804688 368 400.200195312 364.549804688 384.099609375 364.549804688 c 0x80
 365.700195312 364.549804688 348.450195312 368 333.5 374.900390625 c 0
 318.549804688 380.650390625 304.75 388.700195312 294.400390625 396.75 c 0
 286.349609375 402.5 279.450195312 408.25 271.400390625 414 c 0
 264.5 419.75 257.599609375 425.5 250.700195312 430.099609375 c 0
 243.799804688 434.700195312 236.900390625 438.150390625 230 441.599609375 c 0
 221.950195312 445.049804688 213.900390625 446.200195312 205.849609375 446.200195312 c 0
 194.349609375 446.200195312 181.700195312 440.450195312 167.900390625 428.950195312 c 0
 154.099609375 417.450195312 139.150390625 399.049804688 124.200195312 372.599609375 c 1
 31.0498046875 435.849609375 l 1x40
EndSplineSet
Validated: 524289
EndChar

StartChar: exclamdown
Encoding: 161 161 97
Width: 600
VWidth: 1150
GlyphClass: 2
Flags: W
HStem: -11.5 21G<263.925 289.225> 512.45 20G<223.221 329.074> 604.9 166.75<215.917 335.123>
VStem: 186.3 179.4<635.806 741.427> 196.65 161<14.6691 410.263> 204.7 143.75<99.2255 325.427>
LayerCount: 2
Fore
SplineSet
339.25 630.200195312 m 0xf0
 322 612.950195312 300.150390625 604.900390625 274.849609375 604.900390625 c 0
 262.200195312 604.900390625 250.700195312 607.200195312 240.349609375 611.799804688 c 0
 230 616.400390625 220.799804688 622.150390625 211.599609375 630.200195312 c 1
 204.700195312 638.25 197.799804688 646.299804688 193.200195312 656.650390625 c 0
 188.599609375 667 186.299804688 677.349609375 186.299804688 688.849609375 c 0
 186.299804688 700.349609375 188.599609375 710.700195312 193.200195312 721.049804688 c 0
 197.799804688 731.400390625 204.700195312 739.450195312 211.599609375 747.5 c 1
 220.799804688 755.549804688 230 761.299804688 240.349609375 765.900390625 c 0
 250.700195312 769.349609375 262.200195312 771.650390625 274.849609375 771.650390625 c 0
 287.5 771.650390625 299 769.349609375 309.349609375 765.900390625 c 0
 319.700195312 761.299804688 330.049804688 755.549804688 338.099609375 747.5 c 0
 346.150390625 739.450195312 353.049804688 731.400390625 358.799804688 721.049804688 c 0
 363.400390625 710.700195312 365.700195312 700.349609375 365.700195312 688.849609375 c 0
 365.700195312 678.5 363.400390625 668.150390625 358.799804688 657.799804688 c 0
 354.200195312 648.599609375 347.299804688 639.400390625 339.25 630.200195312 c 0xf0
277.150390625 -11.5 m 0
 250.700195312 -11.5 231.150390625 -2.2998046875 217.349609375 13.7998046875 c 1
 203.549804688 32.2001953125 196.650390625 56.349609375 196.650390625 87.400390625 c 0xe8
 196.650390625 95.4501953125 196.650390625 105.799804688 197.799804688 117.299804688 c 2
 201.25 151.799804688 l 2
 202.400390625 164.450195312 204.700195312 175.950195312 204.700195312 188.599609375 c 1
 207 200.099609375 207 210.450195312 208.150390625 219.650390625 c 2
 224.25 532.450195312 l 1
 327.75 532.450195312 l 1
 348.450195312 219.650390625 l 2xe4
 348.450195312 211.599609375 349.599609375 201.25 350.75 190.900390625 c 2
 354.200195312 156.400390625 l 2
 355.349609375 146.049804688 355.349609375 135.700195312 356.5 124.200195312 c 0
 357.650390625 115 357.650390625 105.799804688 357.650390625 98.900390625 c 0xe8
 357.650390625 59.7998046875 350.75 32.2001953125 335.799804688 13.7998046875 c 1
 320.849609375 -2.2998046875 301.299804688 -11.5 277.150390625 -11.5 c 0
EndSplineSet
Validated: 524289
EndChar

StartChar: cent
Encoding: 162 162 98
Width: 600
VWidth: 1150
GlyphClass: 2
Flags: W
VStem: 44.8496 131.101<212.434 406.764>
LayerCount: 2
Fore
SplineSet
451.950195312 391 m 1
 448.5 392.150390625 446.200195312 393.299804688 445.049804688 395.599609375 c 0
 443.900390625 396.75 442.75 399.049804688 441.599609375 402.5 c 2
 439.299804688 411.700195312 l 1
 437 420.900390625 l 1
 431.25 430.099609375 425.5 438.150390625 416.299804688 446.200195312 c 1
 409.400390625 454.25 399.049804688 461.150390625 388.700195312 466.900390625 c 1
 346.150390625 136.849609375 l 1
 363.400390625 140.299804688 381.799804688 147.200195312 401.349609375 157.549804688 c 0
 420.900390625 167.900390625 438.150390625 184 455.400390625 205.849609375 c 1
 530.150390625 119.599609375 l 1
 501.400390625 87.400390625 470.349609375 64.400390625 437 48.2998046875 c 1
 403.650390625 34.5 368 25.2998046875 331.200195312 24.150390625 c 1
 316.25 -90.849609375 l 1
 203.549804688 -77.0498046875 l 1
 218.5 40.25 l 1
 192.049804688 50.599609375 169.049804688 63.25 147.200195312 80.5 c 0
 126.5 97.75 108.099609375 117.299804688 93.150390625 140.299804688 c 0
 78.2001953125 163.299804688 65.5498046875 188.599609375 57.5 216.200195312 c 0
 49.4501953125 244.950195312 44.849609375 274.849609375 44.849609375 305.900390625 c 0
 44.849609375 342.700195312 50.599609375 377.200195312 62.099609375 409.400390625 c 0
 73.599609375 442.75 89.7001953125 471.5 111.549804688 496.799804688 c 0
 133.400390625 522.099609375 158.700195312 542.799804688 188.599609375 558.900390625 c 0
 217.349609375 575 250.700195312 585.349609375 286.349609375 588.799804688 c 1
 302.450195312 717.599609375 l 1
 426.650390625 706.099609375 l 1
 426.650390625 700.349609375 425.5 694.599609375 423.200195312 690 c 1
 422.049804688 684.25 419.75 677.349609375 416.299804688 669.299804688 c 1
 403.650390625 579.599609375 l 1
 454.25 565.799804688 495.650390625 537.049804688 527.849609375 492.200195312 c 1
 451.950195312 391 l 1
175.950195312 312.799804688 m 0
 175.950195312 281.75 180.549804688 254.150390625 189.75 230 c 0
 198.950195312 205.849609375 213.900390625 185.150390625 233.450195312 167.900390625 c 1
 271.400390625 474.950195312 l 1
 256.450195312 469.200195312 243.799804688 462.299804688 232.299804688 450.799804688 c 1
 219.650390625 441.599609375 209.299804688 428.950195312 202.400390625 415.150390625 c 1
 193.200195312 401.349609375 187.450195312 385.25 182.849609375 368 c 0
 178.25 350.75 175.950195312 332.349609375 175.950195312 312.799804688 c 0
EndSplineSet
Validated: 524289
EndChar

